<?xml version="1.0" encoding="UTF-8" standalone="no"?>
<!-- Created with Inkscape (http://www.inkscape.org/) -->

<svg
   xmlns:dc="http://purl.org/dc/elements/1.1/"
   xmlns:cc="http://creativecommons.org/ns#"
   xmlns:rdf="http://www.w3.org/1999/02/22-rdf-syntax-ns#"
   xmlns:svg="http://www.w3.org/2000/svg"
   xmlns="http://www.w3.org/2000/svg"
   xmlns:sodipodi="http://sodipodi.sourceforge.net/DTD/sodipodi-0.dtd"
   xmlns:inkscape="http://www.inkscape.org/namespaces/inkscape"
   width="200"
   height="130"
   id="svg5963"
   version="1.1"
   inkscape:version="0.48.0 r9654"
   sodipodi:docname="Arab_world.svg">
  <defs
     id="defs5965">
    <inkscape:perspective
       sodipodi:type="inkscape:persp3d"
       inkscape:vp_x="0 : 526.18109 : 1"
       inkscape:vp_y="0 : 1000 : 0"
       inkscape:vp_z="744.09448 : 526.18109 : 1"
       inkscape:persp3d-origin="372.04724 : 350.78739 : 1"
       id="perspective5971" />
    <inkscape:perspective
       id="perspective5981"
       inkscape:persp3d-origin="0.5 : 0.33333333 : 1"
       inkscape:vp_z="1 : 0.5 : 1"
       inkscape:vp_y="0 : 1000 : 0"
       inkscape:vp_x="0 : 0.5 : 1"
       sodipodi:type="inkscape:persp3d" />
    <clipPath
       clipPathUnits="userSpaceOnUse"
       id="clipPath1">
      <path
         d="M 0,0 940,0 940,470 0,470 0,0 z"
         id="path9" />
    </clipPath>
    <clipPath
       clipPathUnits="userSpaceOnUse"
       id="clipPath5987">
      <path
         d="M 0,0 940,0 940,470 0,470 0,0 z"
         id="path5989" />
    </clipPath>
    <inkscape:perspective
       id="perspective5334"
       inkscape:persp3d-origin="0.5 : 0.33333333 : 1"
       inkscape:vp_z="1 : 0.5 : 1"
       inkscape:vp_y="0 : 1000 : 0"
       inkscape:vp_x="0 : 0.5 : 1"
       sodipodi:type="inkscape:persp3d" />
    <inkscape:perspective
       id="perspective5421"
       inkscape:persp3d-origin="0.5 : 0.33333333 : 1"
       inkscape:vp_z="1 : 0.5 : 1"
       inkscape:vp_y="0 : 1000 : 0"
       inkscape:vp_x="0 : 0.5 : 1"
       sodipodi:type="inkscape:persp3d" />
    <inkscape:perspective
       id="perspective5539"
       inkscape:persp3d-origin="0.5 : 0.33333333 : 1"
       inkscape:vp_z="1 : 0.5 : 1"
       inkscape:vp_y="0 : 1000 : 0"
       inkscape:vp_x="0 : 0.5 : 1"
       sodipodi:type="inkscape:persp3d" />
  </defs>
  <sodipodi:namedview
     id="base"
     pagecolor="#ffffff"
     bordercolor="#666666"
     borderopacity="1.0"
     inkscape:pageopacity="0.0"
     inkscape:pageshadow="2"
     inkscape:zoom="2.8284272"
     inkscape:cx="154.54263"
     inkscape:cy="76.076404"
     inkscape:document-units="px"
     inkscape:current-layer="layer1"
     showgrid="false"
     height="300px"
     inkscape:window-width="1280"
     inkscape:window-height="949"
     inkscape:window-x="0"
     inkscape:window-y="25"
     inkscape:window-maximized="1" />
  <metadata
     id="metadata5968">
    <rdf:RDF>
      <cc:Work
         rdf:about="">
        <dc:format>image/svg+xml</dc:format>
        <dc:type
           rdf:resource="http://purl.org/dc/dcmitype/StillImage" />
        <dc:title />
      </cc:Work>
    </rdf:RDF>
  </metadata>
  <g
     inkscape:label="Layer 1"
     inkscape:groupmode="layer"
     id="layer1"
     transform="translate(0,-922.36218)">
    <g
       transform="translate(-339.80373,744.29721)"
       text-rendering="optimizeLegibility"
       id="g4211"
       style="fill:#000099;fill-opacity:1;stroke:#c0c0c0;stroke-width:0.1;stroke-miterlimit:10;stroke-dasharray:none"
       inkscape:transform-center-x="-74.285714"
       inkscape:transform-center-y="-168.57143">
      <path
         clip-path="url(#clipPath1)"
         d="m 427.8281,177.8813 -0.0113,-0.007 -0.0391,-0.0469 0.0504,0.0542 z"
         id="path4215"
         style="fill:#000099;fill-opacity:1;fill-rule:evenodd;stroke:none" />
      <path
         style="fill:#4d4d4d;stroke-width:0.1;stroke-miterlimit:10;stroke-dasharray:none"
         d="M 134.1875 52.90625 C 133.97854 53.11769 133.42767 53.92486 133.09375 53.75 C 132.65597 53.52057 132.49985 54.10868 132.40625 54.375 C 132.2255 54.88812 132.09025 55.18545 131.53125 55.28125 C 130.97751 55.37643 130.83378 55.50598 130.71875 56.0625 C 130.46731 57.27945 129.26386 56.34533 128.6875 56.03125 C 128.18771 55.75899 127.32692 55.94615 126.78125 55.96875 C 126.06846 55.99822 125.33096 56.02779 124.625 55.90625 C 124.85843 55.69131 124.75008 54.94866 124.40625 55.5 C 124.06622 56.04514 123.60668 55.9375 123.03125 55.9375 L 118.625 55.9375 C 115.63063 55.9375 112.58781 55.90625 109.59375 55.90625 C 109.65388 57.69146 109.7209 59.49511 109.75 61.28125 L 107.4375 61.28125 L 107.65625 72.84375 C 107.27273 72.72475 106.8829 72.55003 106.5 72.75 C 106.18407 72.91555 105.88433 72.74689 105.5625 72.90625 C 104.8119 73.27768 105.59409 73.83974 105.125 74.4375 C 104.74892 74.9162 104.66974 75.42948 104.125 75.71875 C 103.78209 75.90043 104.13323 76.76722 104.34375 76.96875 C 103.56276 77.59348 103.06476 77.78837 103.625 78.84375 C 103.83831 79.24556 103.57772 79.42496 103.25 79.65625 C 102.89997 79.90335 102.84438 80.21457 102.6875 80.59375 C 102.99134 81.41411 103.55156 80.64141 104.0625 80.9375 C 104.36483 81.1136 103.92422 81.41907 104.0625 81.65625 C 104.23261 81.94583 104.31235 82.32482 104.21875 82.65625 C 104.29905 82.61564 104.38535 82.56505 104.46875 82.53125 C 104.7118 82.9219 104.23908 83.35439 104.4375 83.75 C 104.63407 84.14375 105.14167 84.21384 105.3125 84.5 C 105.56328 84.92042 105.03272 85.31012 105.21875 85.71875 C 105.41097 86.14196 105.77068 86.4585 106.09375 86.78125 C 106.67135 87.35886 107.15225 88.20437 107.15625 89.03125 C 107.15811 89.37973 107.18702 89.85768 106.96875 90.15625 C 106.77994 90.41451 106.58465 90.50605 106.65625 90.875 C 106.7381 90.8455 106.82435 90.81105 106.90625 90.78125 C 106.97229 91.02928 106.8346 91.24831 106.75 91.46875 C 107.15709 91.54285 108.07147 91.42353 108.375 91.75 C 108.48521 91.86813 108.375 92.26208 108.375 92.40625 C 108.375 92.545923 108.45114 92.617597 108.53125 92.6875 C 108.46362 92.61932 108.4375 92.53299 108.4375 92.40625 C 108.4375 92.33015 108.45765 92.16994 108.46875 92.03125 C 108.7742 92.04905 108.53626 91.68502 108.71875 91.59375 C 108.79065 91.55785 108.78857 91.41174 108.84375 91.375 C 108.9811 91.2835 109.18498 91.31503 109.3125 91.1875 C 109.3694 91.1302 109.36935 90.9813 109.40625 90.90625 C 109.48015 90.75841 109.23538 90.65205 109.28125 90.46875 C 109.31135 90.3501 109.38277 90.20312 109.4375 90.09375 C 109.5033 89.96245 109.3905 89.89125 109.4375 89.8125 C 109.4974 89.63176 109.68669 89.62655 109.75 89.5 C 109.8238 89.35153 109.56646 88.9644 109.65625 88.875 C 109.75305 88.7779 109.79061 88.6157 109.875 88.53125 C 110.00739 88.39892 110.18064 88.25688 110.3125 88.125 C 110.51905 87.91847 110.32052 87.48946 110.53125 87.28125 C 110.68026 87.13223 111.16607 87.36519 111.34375 87.1875 C 111.46572 87.06548 112.16585 86.82213 112.28125 86.9375 C 112.43735 87.09368 112.42416 87.61162 112.5 87.6875 C 112.5659 87.7531 112.78859 87.72595 112.84375 87.78125 C 112.9456 87.8831 112.93762 88.06268 113 88.1875 C 113.0409 88.2704 113.14357 88.3936 113.1875 88.4375 C 113.34593 88.59588 113.26732 89.01723 113.40625 89.15625 C 113.49705 89.24745 113.80167 89.37138 113.90625 89.40625 C 114.17766 89.49675 115.25303 89.15319 115.40625 89 C 115.44015 88.9663 115.62707 89.02535 115.65625 89.03125 C 116.08906 89.11775 116.73605 89.1169 117.0625 89.0625 C 117.22654 89.29276 117.30136 89.6138 117.46875 89.78125 C 117.65111 89.96358 118.88087 89.8721 119.125 89.75 C 119.2078 89.7087 119.17795 89.51887 119.21875 89.4375 C 119.32897 89.21712 119.657 88.90584 119.90625 88.78125 C 120.19322 88.63772 120.86882 88.75617 121.03125 88.59375 C 121.14295 88.48212 120.93472 87.8776 121.09375 87.71875 C 121.30696 87.50555 121.69198 87.34734 121.90625 87.21875 C 122.51347 87.3622 122.78182 87.81309 123.15625 88.1875 C 123.36596 88.39718 123.6655 88.50924 123.84375 88.6875 C 123.89465 88.7386 123.95368 88.60875 123.96875 88.59375 C 124.01365 88.54895 124.40696 88.5625 124.5 88.5625 C 124.61428 88.5625 124.92091 88.61035 125 88.53125 C 125.40817 88.1231 125.7514 87.49856 126.1875 87.0625 C 126.39061 86.85934 126.39942 86.35053 126.59375 86.15625 C 126.95498 85.79497 127.50055 85.46717 127.65625 85 C 127.18561 84.633 127.77829 83.55948 127.46875 83.25 C 127.42785 83.2093 126.8245 82.67559 126.84375 82.65625 C 127.05027 82.44981 128.16607 82.79297 128.3125 82.5 C 128.4083 82.30888 128.2883 82.05233 128.3125 81.90625 C 128.43258 81.84255 129.5625 81.89625 129.5625 81.90625 C 129.5625 82.14096 129.33845 82.97937 129.21875 83.21875 C 129.0991 83.458 129.48964 84.89606 129.5625 85.1875 C 129.5974 85.32695 129.48035 85.8546 129.53125 85.90625 C 129.64082 86.01589 129.92264 86.05134 130.0625 86.15625 C 130.62197 86.57588 130.90616 87.37484 131.3125 87.78125 C 131.44387 87.91256 131.319 88.65647 131.09375 88.46875 C 131.13865 89.79247 131.02025 88.92344 131.8125 89.1875 C 131.83655 88.98674 131.87304 88.79132 131.9375 88.59375 C 132.08384 88.14419 132.29895 87.82834 132.28125 87.34375 C 132.26141 86.79901 132.20999 86.41459 132.5625 85.96875 C 132.83038 85.63049 133.259 85.90424 133.25 86.28125 C 133.4385 86.07383 133.54156 85.92863 133.6875 85.625 C 134.05595 84.85848 133.51304 84.86224 133.6875 84.65625 C 134.11309 84.15376 133.7869 83.27362 134.25 82.96875 C 134.69553 82.67545 134.87536 81.69615 135.15625 81.25 C 135.44304 80.79486 135.80664 80.9992 136.25 80.9375 C 136.54487 80.89626 136.495 80.01992 136.5 79.8125 C 136.51426 79.22715 136.85019 78.80692 136.96875 78.25 C 137.1403 77.44494 137.0276 76.53244 137 75.96875 C 136.97 75.36393 136.78068 74.6296 137 74.21875 C 137.30719 73.64331 137.39448 72.86585 137.65625 72.15625 C 137.75801 71.88041 137.90585 71.56928 137.96875 71.28125 C 138.03763 70.96749 137.8804 70.74661 137.9375 70.4375 C 137.99579 70.12281 137.92948 69.45208 138.21875 69.28125 C 138.42865 69.15722 139.01315 69.409 139.09375 69.125 C 139.25063 68.57313 139.17296 68.51161 139.78125 68.28125 C 140.11734 68.15382 140.87753 67.86261 141.0625 67.5625 C 141.2032 67.33422 141.57265 66.7159 141.65625 66.625 C 141.60448 66.20707 140.8955 66.25697 140.875 65.875 C 140.58542 66.13544 139.77905 64.79285 139.34375 64.71875 C 138.59035 64.5907 138.3451 63.13217 138.3125 62.5 C 138.26599 61.59964 138.00781 60.79142 138.125 59.90625 C 138.17709 59.51436 138.03095 59.07406 137.875 58.71875 C 137.65921 58.22703 138.11179 57.98385 138.21875 58.46875 C 138.18961 57.83162 137.45735 57.435 137.28125 56.84375 C 137.06856 56.12942 137.37665 55.86604 136.71875 55.40625 C 136.22237 55.05932 135.8937 54.39597 135.375 54.125 C 134.79554 53.82209 134.34563 53.59423 134.1875 52.90625 z M 109.75 93 C 109.86766 93.039918 109.97445 93.100225 110.0625 93.1875 C 110.16244 93.286448 110.26386 93.3744 110.34375 93.46875 C 110.26977 93.379656 110.21891 93.280495 110.125 93.1875 C 110.02333 93.08672 109.88817 93.04023 109.75 93 z M 129.28125 93.84375 C 129.30364 93.872497 129.33461 93.907508 129.375 93.9375 C 129.33564 93.910298 129.30555 93.869889 129.28125 93.84375 z M 110.875 93.9375 C 110.93912 94.016086 110.96875 94.107385 110.96875 94.21875 C 110.96819 94.42275 110.64136 94.65245 110.8125 94.84375 C 110.93388 94.979625 111.08331 95.081956 111.21875 95.1875 C 111.09022 95.085868 110.99068 94.973238 110.875 94.84375 C 110.70417 94.65281 110.99941 94.42238 111 94.21875 C 111 94.099889 110.94802 94.020278 110.875 93.9375 z M 111.25 95.1875 C 111.65113 95.49501 112.06991 95.734481 112.53125 96 C 112.61201 96.046505 112.67893 96.077423 112.71875 96.125 C 112.6805 96.083545 112.66456 96.040759 112.59375 96 C 112.12514 95.730285 111.65556 95.503559 111.25 95.1875 z M 112.71875 96.125 C 112.83821 96.26773 112.82086 96.422935 112.96875 96.625 C 112.9731 96.630955 112.99527 96.619272 113 96.625 C 112.84642 96.415103 112.85475 96.272394 112.71875 96.125 z M 113.3125 96.84375 C 113.42169 96.909763 113.52175 97.019468 113.5625 97.125 C 113.66046 97.37831 113.31336 97.58021 113.5 97.84375 C 113.50428 97.849801 113.52647 97.837807 113.53125 97.84375 C 113.34486 97.58069 113.6918 97.37785 113.59375 97.125 C 113.5503 97.01282 113.42962 96.913344 113.3125 96.84375 z M 113.71875 98.03125 C 113.79684 98.103373 113.875 98.17878 113.875 98.28125 C 113.87283 98.76305 114.36741 98.84844 114.75 99.125 C 114.37103 98.861841 113.90409 98.752444 113.90625 98.28125 C 113.90625 98.170542 113.80506 98.107998 113.71875 98.03125 z M 115.34375 99.46875 C 115.51298 99.582164 115.63602 99.733157 115.65625 99.96875 C 115.68385 100.29212 115.58338 100.63032 115.8125 100.90625 C 115.94281 101.06297 116.054 101.30765 116.1875 101.46875 C 116.06352 101.30827 115.99987 101.05643 115.875 100.90625 C 115.64628 100.63082 115.71506 100.29153 115.6875 99.96875 C 115.66655 99.723485 115.5231 99.584148 115.34375 99.46875 z M 116.1875 101.46875 C 116.22488 101.51386 116.23323 101.5654 116.28125 101.59375 C 116.43364 101.68382 116.55307 101.74648 116.625 101.84375 C 116.55383 101.75504 116.48661 101.67817 116.34375 101.59375 C 116.28898 101.56141 116.22883 101.52224 116.1875 101.46875 z M 116.625 101.84375 C 116.69693 101.94102 116.7243 102.06913 116.75 102.25 C 116.76481 102.35429 116.84001 102.4042 116.90625 102.46875 C 116.84908 102.40768 116.7947 102.34478 116.78125 102.25 C 116.75425 102.05845 116.70542 101.94398 116.625 101.84375 z M 116.90625 102.46875 C 117.08123 102.63927 117.36502 102.73106 117.5 102.90625 C 117.35444 102.73822 117.07212 102.64596 116.90625 102.46875 z M 121.125 102.375 C 121.11205 102.3785 121.10563 102.40034 121.09375 102.40625 C 121.1401 102.39373 121.18589 102.38041 121.25 102.40625 C 121.20147 102.39211 121.16236 102.36491 121.125 102.375 z M 133.65625 102.5625 C 133.36826 102.57679 133.07881 102.61605 132.8125 102.65625 C 133.34608 102.57568 133.9061 102.56534 134.5 102.5625 C 134.21424 102.5641 133.93395 102.54872 133.65625 102.5625 z M 121.625 102.71875 C 121.74062 102.88589 121.78138 103.0842 121.90625 103.25 C 122.06158 103.45617 122.20045 103.71588 122.375 103.90625 C 122.38018 103.91191 122.40081 103.90068 122.40625 103.90625 C 122.23198 103.71624 122.09255 103.42454 121.9375 103.21875 C 121.80871 103.04774 121.74885 102.88977 121.625 102.71875 z M 119.4375 102.8125 C 119.42699 102.81405 119.41711 102.84157 119.40625 102.84375 C 119.63353 102.81017 119.7961 102.91264 120 103 C 119.80936 102.91501 119.65474 102.78041 119.4375 102.8125 z M 118 103.1875 C 118.22089 103.32095 118.36437 103.35906 118.5 103.3125 C 118.3667 103.34923 118.22308 103.32778 118 103.1875 z M 131.09375 104.375 C 131.05285 104.4234 130.91579 104.54528 130.75 104.65625 C 130.89796 104.55405 131.05649 104.45022 131.09375 104.40625 C 131.09814 104.40105 131.08933 104.38031 131.09375 104.375 z M 123.40625 104.59375 C 123.45646 104.64199 123.53179 104.69355 123.5625 104.75 C 123.52821 104.68008 123.46942 104.65151 123.40625 104.59375 z M 123.5625 104.78125 C 123.62505 104.90879 123.61799 105.06103 123.53125 105.25 C 123.68735 105.21341 123.86676 105.17519 124 105.21875 C 123.867 105.17527 123.71833 105.18224 123.5625 105.21875 C 123.64338 105.04258 123.6136 104.90316 123.5625 104.78125 z M 125.125 104.78125 C 125.11421 104.78233 125.10448 104.81078 125.09375 104.8125 C 125.14778 104.80709 125.1952 104.8001 125.25 104.8125 C 125.20587 104.80546 125.16857 104.77689 125.125 104.78125 z M 126.46875 104.78125 C 126.45756 104.78148 126.449 104.81049 126.4375 104.8125 C 126.49356 104.81134 126.55027 104.81501 126.59375 104.875 C 126.55471 104.83304 126.51648 104.78027 126.46875 104.78125 z M 126.59375 104.875 C 126.7154 105.04263 126.83668 105.15118 126.96875 105.25 C 126.84591 105.15409 126.74044 105.03407 126.625 104.875 C 126.61862 104.86619 126.60048 104.88223 126.59375 104.875 z M 126.96875 105.25 C 127.08778 105.33907 127.20931 105.42901 127.40625 105.5 C 127.40081 105.48712 127.41036 105.48105 127.40625 105.46875 C 127.22421 105.39982 127.08181 105.33827 126.96875 105.25 z M 126.4375 104.8125 C 126.27656 104.8407 126.09181 105.00726 125.96875 105.0625 C 126.1007 104.98844 126.28118 104.81572 126.4375 104.8125 z M 125.96875 105.0625 C 125.66302 105.20021 125.54736 104.87254 125.28125 104.8125 C 125.52976 104.88847 125.64139 105.22711 125.9375 105.09375 C 125.94682 105.08956 125.95873 105.06812 125.96875 105.0625 z M 128.4375 104.84375 C 128.26333 104.87986 128.09186 104.92767 127.9375 104.96875 C 128.09207 104.92955 128.26668 104.8795 128.4375 104.84375 z M 127.6875 105.03125 C 127.59808 105.06744 127.55193 105.1045 127.5 105.15625 C 127.55024 105.11312 127.6094 105.06285 127.6875 105.03125 z M 124.15625 105.34375 C 124.20097 105.39934 124.23798 105.46391 124.25 105.5625 C 124.25502 105.55017 124.27546 105.54403 124.28125 105.53125 C 124.26485 105.43899 124.2037 105.39461 124.15625 105.34375 z "
         id="sd-"
         transform="translate(339.80373,178.06497)" />
      <path
         inkscape:connector-curvature="0"
         style="fill:#4d4d4d;stroke-width:0.1;stroke-miterlimit:10;stroke-dasharray:none"
         id="xj"
         d="m 448.51053,269.64459 c 0.0719,-0.0359 0.0898,-0.16085 0.14498,-0.19759 0.13735,-0.0915 0.32036,-0.0569 0.44788,-0.18443 0.0569,-0.0573 0.0549,-0.20818 0.0918,-0.28323 0.0739,-0.14784 -0.14467,-0.27777 -0.0988,-0.46107 0.0301,-0.11865 0.10339,-0.2529 0.15812,-0.36227 0.0658,-0.1313 -0.0669,-0.20447 -0.0199,-0.28322 0.0599,-0.18074 0.26602,-0.17644 0.32933,-0.30299 0.0738,-0.14847 -0.18159,-0.52975 -0.0918,-0.61915 0.0968,-0.0971 0.11319,-0.2844 0.19758,-0.36885 0.13239,-0.13233 0.32924,-0.25015 0.4611,-0.38203 0.20655,-0.20653 0,-0.64805 0.21073,-0.85626 0.14901,-0.14902 0.61277,0.0723 0.79045,-0.10539 0.12197,-0.12202 0.83308,-0.33932 0.94848,-0.22395 0.1561,0.15618 0.13486,0.675 0.2107,0.75088 0.0659,0.0656 0.30058,0.0238 0.35574,0.0791 0.10185,0.10185 0.10882,0.29672 0.1712,0.42154 0.0409,0.0829 0.14055,0.18005 0.18448,0.22395 0.15843,0.15838 0.0719,0.58552 0.21083,0.72454 0.0908,0.0912 0.3828,0.22859 0.48738,0.26346 0.27141,0.0905 1.36176,-0.26836 1.51498,-0.42155 0.0339,-0.0337 0.20788,0.0205 0.23706,0.0264 0.43281,0.0865 1.08309,0.0939 1.40954,0.0395 0.16404,0.23026 0.25414,0.57023 0.42153,0.73768 0.18236,0.18233 1.41573,0.0694 1.65986,-0.0527 0.0828,-0.0413 0.038,-0.2348 0.0788,-0.31617 0.11022,-0.22038 0.449,-0.50773 0.69825,-0.63232 0.28697,-0.14353 0.95725,-0.022 1.11968,-0.18442 0.1117,-0.11163 -0.10613,-0.72377 0.0529,-0.88262 0.21321,-0.2132 0.60253,-0.38517 0.8168,-0.51376 0.60722,0.14345 0.86384,0.60043 1.23827,0.97484 0.20971,0.20968 0.50679,0.30916 0.68504,0.48742 0.0509,0.0511 0.1166,-0.0772 0.13167,-0.0922 0.0449,-0.0448 0.46026,-0.0132 0.5533,-0.0132 0.11428,0 0.4215,0.0264 0.50059,-0.0527 0.40817,-0.40815 0.73635,-1.02618 1.17245,-1.46224 0.20311,-0.20316 0.2272,-0.7015 0.42153,-0.89578 0.36123,-0.36128 0.88501,-0.69209 1.04071,-1.15926 -0.47064,-0.367 0.12507,-1.42937 -0.18447,-1.73885 -0.0409,-0.0407 -0.65158,-0.57346 -0.63233,-0.5928 0.20652,-0.20644 1.34214,0.12171 1.48857,-0.17126 0.0958,-0.19112 -0.0242,-0.44672 0,-0.5928 0.12008,-0.0637 1.23836,-0.01 1.23836,0 0,0.23471 -0.20962,1.06479 -0.32932,1.30417 -0.11965,0.23925 0.25646,1.68456 0.32932,1.976 0.0349,0.13945 -0.0908,0.65971 -0.0399,0.71136 0.10957,0.10964 0.38705,0.15856 0.52691,0.26347 0.55947,0.41963 0.87143,1.22707 1.27777,1.63348 0.13137,0.13131 -0.0118,0.85958 -0.23705,0.67186 0.0449,1.32372 -0.0799,0.44747 0.71235,0.71153 -0.045,0.36869 -0.034,0.74213 0,1.11877 0.0548,0.70405 0.48815,1.96512 -0.58446,2.07994 -0.32716,0.0349 -0.73067,-0.10958 -1.07764,-0.0944 -0.52986,0.0229 -0.44429,0.33185 -0.51981,0.76852 -0.0608,0.35404 -0.74711,0.59595 -0.16498,0.9336 0.3812,0.22127 0.83907,0.13356 1.23914,0.34073 0.44293,0.22932 0.65744,0.49392 0.92135,0.81143 0.29463,0.35436 0.58601,1.05276 0.80496,1.15332 0.26828,0.12321 0.43805,0.39251 0.77736,0.64941 0.37019,0.28028 0.35044,0.87406 0.53802,1.23862 0.22307,0.43327 0.23854,0.92472 0.46726,1.36294 0.0848,0.16247 0.14414,0.40604 0.31441,0.50167 0.2014,0.11295 0.12467,0.36549 0.29339,0.52859 0.26257,-0.33878 0.56607,-0.28122 0.84055,-0.0461 0.26633,0.22806 0.18317,0.1365 0.27408,0.37139 0.10405,0.26615 -0.0689,0.58925 -0.0689,0.86097 0,0.34197 0.20527,0.52549 0.4024,0.77462 -1.09398,0.0593 -2.38567,-0.0394 -3.45091,0.12141 -0.68385,0.10326 -1.25802,1.20662 -1.70063,1.73026 -0.0818,0.0968 -0.62058,0.49344 -0.78757,0.49109 -0.4507,-0.006 -0.8235,-0.4286 -1.16727,-0.24881 -0.6158,0.32212 -1.9846,0.23517 -1.71688,0.86961 -0.41465,-0.14948 -0.58325,-0.29929 -0.81413,-0.61743 -0.1736,-0.23954 -0.48081,0.11893 -0.65661,0.19784 -0.30573,0.13771 -0.4232,-0.21136 -0.68931,-0.2714 -0.43762,-0.099 -0.86873,0.42082 -1.0059,0.75784 -0.0479,-0.39366 -0.40013,-0.40727 -0.71179,-0.33424 0.34638,-0.75451 -0.77451,-0.91008 -1.16228,-1.33407 -0.17427,-0.19001 -0.29894,-0.45998 -0.45399,-0.66577 -0.16618,-0.22066 -0.20162,-0.47815 -0.4331,-0.67744 -0.70462,-0.60721 -0.53652,0.57832 -1.12445,0.52968 -0.58362,-0.0483 -0.68079,-0.51332 -1.35782,-0.0788 -0.44649,0.28654 -0.55082,0.48704 -1.02673,0.18777 -0.12569,-0.0783 -0.37435,-0.16256 -0.46528,-0.28054 -0.18575,-0.24107 -0.68383,-0.28367 -0.73765,-0.66278 -0.0509,-0.36108 -0.16079,-0.479 -0.46506,-0.6588 -0.21907,-0.12937 -0.30353,-0.47253 -0.47002,-0.67277 -0.22872,-0.27543 -0.13366,-0.62669 -0.16122,-0.94947 -0.0419,-0.49053 -0.57091,-0.58585 -0.90582,-0.82786 -0.3819,-0.27605 -0.8913,-0.36178 -0.8891,-0.8427 0,-0.20457 -0.26006,-0.31691 -0.36365,-0.4636 -0.18639,-0.26306 0.15595,-0.46298 0.0579,-0.71583 -0.0869,-0.22436 -0.44072,-0.29307 -0.58313,-0.48804 -0.19678,-0.26893 -0.1042,-0.45215 -0.42677,-0.63783 -0.62482,-0.35962 -1.23569,-0.60967 -1.72035,-1.15219 -0.17083,-0.19094 0.14116,-0.41284 0.14175,-0.61647 0,-0.22233 -0.13208,-0.34572 -0.38002,-0.50416 -0.24961,-0.15964 -0.32681,-0.3432 -0.51463,-0.52919 -0.17576,-0.17423 -0.4401,-0.22809 -0.67539,-0.26491 -0.34226,-0.0535 -1.00658,-0.0114 -1.00658,-0.51836 0,-0.0761 0.0318,-0.21867 0.0429,-0.35736 0.30545,0.0178 0.0519,-0.37346 0.23439,-0.46473 z"
         class="limitxx xj sd" />
      <path
         class="landxx ly"
         d="m 413.26241,212.43163 c -0.29857,-0.25702 0.34074,-0.55962 0.50599,-0.6362 0.4973,-0.23098 0.76549,-0.36337 1.06685,-0.85199 0.24214,-0.39282 0.48512,-0.58441 0.39056,-1.0904 -0.0815,-0.43622 -0.28825,-0.87588 -0.2436,-1.33102 0.0614,-0.62411 0.81882,-0.46422 0.93973,-0.91166 0.13034,-0.48228 0.5235,-0.73073 0.92671,-0.92254 0.30902,-0.147 1.31271,-0.42103 1.32077,-0.84827 0.004,-0.21393 -0.20555,-0.34632 -0.18323,-0.57358 0.0403,-0.41607 0.0564,-0.834 0.0977,-1.25008 0.40088,0.27904 0.9388,0.42011 1.36945,0.68488 0.45204,0.2778 0.96516,0.37236 1.49098,0.31469 0.53203,-0.0583 0.92361,-0.3953 1.47084,-0.19749 0.48738,0.17641 1.0036,0.1947 1.47796,0.39685 0.42227,0.18013 0.76301,0.50536 1.18901,0.67217 0.37266,0.14603 0.87586,-0.007 1.20822,0.22292 0.39158,0.27066 0.46475,0.7351 0.54009,1.16978 0.0964,0.55621 0.31469,0.99957 0.74813,1.37317 0.78285,0.67465 1.74987,0.51653 2.69146,0.68736 0.94532,0.17176 2.29089,0.60117 3.04801,1.21443 0.6052,0.49048 1.16513,1.3186 2.03046,1.24078 0.99988,-0.0902 2.0689,-0.97167 2.29275,-1.97558 0.10324,-0.46351 -0.21021,-0.82409 -0.35221,-1.24171 -0.15688,-0.46041 -0.2716,-0.98965 -0.11378,-1.46618 0.28957,-0.87432 1.72909,-1.95884 2.64185,-1.98953 0.4725,-0.0158 0.74844,-0.35779 1.1856,-0.39127 0.44584,-0.0341 0.92144,-0.0422 1.35673,0.0645 0.50909,0.12432 0.95307,0.37049 1.4358,0.55962 0.57234,0.22416 0.42073,0.30198 0.44894,0.803 0.0223,0.40585 0.67775,0.49173 0.97012,0.51343 0.56737,0.0428 0.93446,0.29981 1.45874,0.45173 0.52055,0.15099 1.06685,-0.0236 1.59516,0.0732 0.29949,0.0546 0.75091,0.6517 0.64426,0.96546 -0.11224,0.33113 -0.51622,0.41546 -0.57234,0.78813 -0.0778,0.51467 0.25083,0.89632 0.34136,1.37503 0.10169,0.53854 -0.24549,1.01566 -0.42841,1.48382 -0.1944,0.49669 0.31456,1.08667 0.3992,1.60072 0.14355,0.87617 0.29975,1.70443 0.35463,2.60293 l 0.55292,23.34007 c -0.77293,0 -1.54617,0 -2.3191,0 0.0214,0.44615 0.005,0.89385 0.0434,1.33938 l -18.49431,-10.46719 -4.19414,2.00959 c -0.3553,0.097 -0.79069,-0.48273 -0.9978,-0.68891 -0.86563,-0.86284 -1.80527,-1.03926 -2.958,-1.30124 -0.41174,-0.0936 -0.95028,-0.14138 -1.31705,-0.36895 -0.29051,-0.18044 -0.42795,-0.68926 -0.54825,-0.9838 -0.35314,-0.86532 -0.78316,-1.10079 -1.63019,-1.41952 -0.28121,-0.10572 -0.55023,-0.34457 -0.8581,-0.33651 -0.30136,0.008 -0.62659,0.34229 -0.90935,0.0366 -0.22974,-0.24803 -0.62659,-0.88547 -0.63248,-1.22869 -0.0124,-0.71805 -0.0819,-0.98034 -0.47685,-1.59174 -0.30415,-0.47127 -1.3155,-1.30838 -0.8802,-1.93559 0.50227,-0.72363 1.27055,-0.44677 0.94128,-1.6336 -0.16463,-0.59373 -0.28306,-1.0498 -0.0797,-1.65221 0.17425,-0.51622 0.27749,-0.94221 0.0868,-1.47579 -0.20028,-0.56117 -0.0446,-1.12297 0.006,-1.69313 0.0595,-0.67589 -0.0415,-1.35767 -0.26601,-1.99604 -0.19347,-0.54753 -0.47343,-1.06313 -0.81293,-1.53377"
         id="ly"
         inkscape:transform-center-x="42.78207"
         inkscape:transform-center-y="-31.263707"
         style="fill:#4d4d4d" />
      <g
         class="landxx coastxx ye"
         id="ye"
         transform="matrix(0.31004052,0,0,0.31004052,-12.211758,43.536426)"
         inkscape:transform-center-x="-31.063833"
         inkscape:transform-center-y="-2.4953577"
         style="stroke-width:0.32253849;stroke-miterlimit:10;stroke-dasharray:none">
        <path
           d="m 1625.188,684.288 c 0.096,-0.331 0.118,-0.667 0.069,-1.008 -1.102,0.177 -0.653,0.617 -0.069,1.008"
           id="path2190"
           style="fill:#4d4d4d;stroke-width:0.32253849;stroke-miterlimit:10;stroke-dasharray:none" />
        <path
           d="m 1698.268,699.552 c -0.042,-0.778 -1.002,-0.504 -1.439,-0.432 0.479,0.144 0.959,0.288 1.439,0.432"
           id="path2192"
           style="fill:#666666;stroke-width:0.32253849;stroke-miterlimit:10;stroke-dasharray:none" />
        <path
           d="m 1708.918,698.112 c 1.685,-0.387 4.609,-0.202 5.471,-2.088 -1.012,-0.607 -2.35,-1.537 -3.598,-1.256 -0.591,0.134 -1.101,0.521 -1.734,0.46 -0.67,-0.063 -1.245,-0.648 -1.941,-0.522 -0.76,0.137 -1.436,1.617 -0.808,2.171 0.655,0.581 1.737,1.11 2.61,1.235"
           id="path2194"
           style="fill:#4d4d4d;stroke-width:0.32253849;stroke-miterlimit:10;stroke-dasharray:none" />
        <path
           class="landxx ye"
           d="m 1702.658,660.279 c -2.426,-0.09 -1.0536,-5.06093 -3.4596,-5.34393 1.0794,-1.71427 -2.9223,-7.03311 -3.6111,-8.90907 l -2.8076,-6.48875 c -7.1249,1.40009 -14.2832,2.93331 -21.295,3.88069 -5.8504,1.80488 -8.8025,4.71243 -10.1257,7.87906 -1.221,1.824 -1.874,6.43 -4.801,6.253 -1.992,-0.12 -1.775,-3.107 -3.691,-2.881 -2.415,0.285 -4.391,0.24 -6.839,-0.104 -1.389,-0.195 -2.813,-1.184 -4.174,-1.184 -1.507,0 -3.008,0.145 -4.506,0.287 -1.839,0.174 -3.392,1 -5.298,0.895 -1.048,-0.058 -1.437,-1.224 -2.508,-1.357 -1.024,-0.128 -1.812,0.563 -2.241,1.429 -0.469,0.945 -0.619,2.091 -0.442,3.129 0.114,0.672 1.056,1.339 0.544,2.028 -0.484,0.653 -0.868,1.324 -1.366,2.004 -0.266,0.372 -0.601,0.665 -1.004,0.88 -0.96,0.48 -0.471,0.845 -0.273,1.898 0.312,1.668 -0.316,2.441 -0.613,3.961 -0.275,1.407 0.906,2.63 0.772,4.029 -0.267,-0.24 -1.701,-0.277 -1.462,0.282 -0.051,-0.117 1.447,0.726 1.444,0.722 0.802,0.856 1.102,1.742 1.375,2.862 0.538,2.196 0.58,4.644 1.27,6.78 0.283,0.877 0.987,1.533 1.321,2.388 0.401,1.031 0.022,2.149 0,3.204 -0.041,2.087 2.483,3.843 1.8,5.963 0.921,0.071 1.542,-0.446 2.474,-0.074 0.992,0.396 1.674,0.723 2.767,0.506 2.255,-0.447 3.258,-2.023 5.609,-0.79 -0.121,-0.64 0.561,-1.29 0.791,-0.359 0.389,-0.428 0.615,-0.925 0.929,-1.401 0.496,-0.753 1.301,-0.736 1.965,-1.238 1.48,-1.118 1.648,-2.245 3.686,-2.713 1.901,-0.437 3.916,-0.52 5.855,-0.342 1.142,0.104 3.057,-1.206 4.201,-1.53 1.707,-0.483 2.552,-1.96 4.054,-2.792 0.461,-0.255 1.111,-0.832 1.61,-0.981 0.551,0.018 1.076,0.149 1.576,0.391 0.564,0.027 1.116,-0.041 1.654,-0.203 3.628,-0.584 4.444,-4.338 7.705,-5.939 1.515,-0.744 2.853,-0.932 4.472,-1.215 1.995,-0.348 3.649,-1.686 5.612,-2.154 1.365,-0.326 2.748,-0.583 4.072,-1.061 1.323,-0.478 1.793,-1.532 2.911,-2.103 0.928,-0.474 2.93,-0.415 3.215,-1.675 0.331,-1.46 -0.683,-2.788 -0.153,-4.277 1.068,-3.009 4.742,-2.89 6.984,-4.536"
           id="path2592"
           style="fill:#4d4d4d;stroke-width:0.32253849;stroke-miterlimit:10;stroke-dasharray:none" />
      </g>
      <path
         class="landxx dz"
         d="m 371.8534,219.79819 0.15812,-3.37076 c -0.14606,-0.90638 1.24357,-1.20543 1.74398,-1.66119 0.24809,-0.22596 0.65363,-0.68765 1.0355,-0.66386 0.33221,0.0207 0.40907,-0.47984 0.84583,-0.56452 0.71101,-0.13787 1.07562,0.55159 1.50317,-0.39063 0.13269,-0.29175 0.57565,-0.16959 0.83019,-0.20307 0.45824,-0.0608 0.91989,-0.12312 1.3524,-0.2831 0.86873,-0.3212 0.90463,-1.25417 1.64532,-1.64544 0.30539,-0.16153 0.70509,-0.17946 1.02723,-0.29851 0.39654,-0.14696 0.65697,-0.59156 1.06592,-0.67372 0.14975,-0.0301 0.95557,-0.0956 0.626,-0.5203 -0.213,-0.27439 -0.55159,-0.37448 -0.11444,-0.77412 -0.62535,-0.17176 -0.0608,-0.82719 0.3981,-0.78874 0.60705,0.0508 1.16699,-0.16556 1.38216,-0.73387 0.41235,-1.08855 3.22225,-0.12433 4.0237,-0.33019 -0.91896,-0.41476 0.67121,-0.92124 0.17176,-1.3062 -0.23584,-0.1818 -0.49978,-0.34229 -0.69139,-0.57482 -0.22199,-0.2688 -0.10634,-0.65418 -0.3243,-0.98345 -0.22788,-0.34414 -0.10157,-0.62735 -0.0358,-0.96995 0.0617,-0.3212 -0.18615,-0.32509 -0.15142,-0.63668 0.0325,-0.29112 0.0282,-0.64184 0.0318,-0.93172 0.005,-0.38911 -0.25411,-0.70157 0.13158,-1.00355 -0.40088,-0.1637 -0.2387,-0.38716 -0.29668,-0.68697 -0.0772,-0.39933 -0.76974,-0.52893 -0.92135,-0.93973 0.74255,-0.002 1.05991,-0.18208 1.69084,-0.50452 0.2747,-0.14045 0.4477,-0.14076 0.61357,-0.43033 0.14665,-0.25641 0.25733,-0.47158 0.52986,-0.6173 0.15378,-0.0825 0.45173,-0.32182 0.61419,-0.19346 0.21083,0.16649 0.47684,-0.12278 0.61698,-0.25113 0.36399,-0.33268 0.86377,0.50474 1.23582,-0.26044 0.49886,-1.0253 2.21803,-1.46897 3.22504,-1.58492 0.71682,-0.0825 1.44107,-0.27966 2.16347,-0.23098 0.53885,0.0363 0.90996,-0.65078 1.37751,-0.38632 0.20338,0.11503 0.15719,0.0505 0.2347,-0.0775 0.017,-0.0279 0.82501,-0.0161 0.94531,-0.0639 0.69821,-0.27687 1.40324,-0.17239 2.13742,-0.19285 0.61171,-0.017 0.75712,0.10976 1.2228,0.46103 0.59497,0.44863 0.80145,-0.21486 1.31736,-0.2781 0.16587,-0.0202 1.19521,-0.0648 1.13878,-0.36957 -0.10169,-0.54877 0.64768,-0.21083 0.82595,-0.0911 0.37236,0.24958 0.9326,0.37576 1.31426,0.0707 0.20959,-0.16773 0.0729,-0.386 0.47188,-0.28647 0.28338,0.0707 0.50568,0.27903 0.81386,0.2626 -0.26106,0.43127 0.38631,0.28028 0.59094,0.22695 0.40832,-0.10634 0.84951,-0.007 1.2414,-0.13797 0.0294,0.55622 -0.67558,0.82874 -0.98283,1.18312 0.8368,0.18044 0.0341,1.35704 0.20308,1.89621 0.2936,0.93663 0.17114,1.64445 -0.0264,2.56837 -0.16247,0.76022 -1.00857,1.3524 -1.57377,1.85125 -0.32957,0.29082 -0.16928,1.05042 0.0232,1.37255 0.31128,0.52118 0.16959,1.08917 0.81107,1.33287 0.87586,0.33236 0.61884,1.442 1.3248,1.9703 0.3274,0.24525 0.71371,0.42259 0.99089,0.73046 0.37453,0.41638 0.4294,1.09878 0.51653,1.62709 0.17982,1.09134 0.69759,2.30391 0.69759,3.40425 0,0.29702 -0.62442,0.1834 -0.22168,0.72039 0.38972,0.52056 0.71235,1.13252 0.84114,1.77295 0.44332,2.20451 -0.20829,2.19088 0.12401,3.32116 0.15856,0.53928 0.16696,0.9335 -0.0426,1.4584 -0.23659,0.59248 -0.0208,1.14633 0.10781,1.73758 0.19408,0.89385 -0.20345,0.90805 -0.83873,1.38799 -0.72394,0.54754 0.47964,1.61095 0.79371,2.09399 0.58721,0.90284 0.23408,1.97465 1.01507,2.81765 0.29981,0.32368 0.64457,-0.0645 0.96454,-0.0403 0.40491,0.0307 0.84424,0.33608 1.22435,0.47405 0.86749,0.315 1.15893,1.04298 1.47889,1.86706 0.15192,0.39035 0.30508,0.43747 -0.11782,0.67744 -4.40046,2.80674 -8.83953,5.61493 -12.5895,9.26556 -0.2157,0.31402 -0.91338,1.09879 -1.45533,1.39829 -0.41124,0.22727 -1.01631,0.24803 -1.46959,0.34197 -0.61605,0.12743 -1.23365,0.24834 -1.84908,0.37887 -0.30881,0.0654 -3.01484,0.99523 -2.89857,0.0375 0.0409,-0.33763 0.28213,-0.46847 0.24896,-0.84238 -0.0127,-0.14355 0.0304,-0.89754 -0.11912,-0.97226 -0.45483,-0.22757 -1.02288,-0.33171 -1.52484,-0.42814 -0.24741,-0.0477 -0.57978,-0.677 -0.76871,-0.63062 -1.08431,0.26616 -1.25492,-0.81441 -1.44982,-0.97606 -0.23026,-0.19098 -0.62752,-0.20835 -0.83835,-0.36864 -0.23718,-0.18013 -0.033,-0.62755 -0.1756,-0.86938 -0.17921,-0.30414 -0.49036,-0.56889 -0.78211,-0.74158 -0.49979,-0.29578 -0.96795,-0.64706 -1.42588,-1.00267 -1.13785,-0.88331 -2.25585,-1.79297 -3.38843,-2.68309 -4.36785,-3.43401 -8.72981,-6.85531 -13.29981,-10.01927 -1.09041,-0.7565 -2.1864,-1.50215 -3.28643,-2.24222"
         id="dz"
         inkscape:transform-center-x="78.62721"
         inkscape:transform-center-y="-35.839773"
         style="fill:#4d4d4d" />
      <path
         class="landxx jo"
         d="m 471.54724,214.23979 c -0.0428,-0.74844 0.25857,-1.46122 0.26571,-2.20532 0.008,-0.8554 0.39003,-1.48975 0.49358,-2.30391 0.0434,-0.33919 -0.0546,-0.68519 -0.0279,-1.02965 0.0254,-0.32554 0.13378,-0.64581 0.14587,-0.96298 0.0248,-0.66473 -0.0662,-1.4631 -0.0907,-2.13403 -0.0205,-0.56954 0.69018,-0.39435 1.0148,-0.16988 0.53482,0.36957 1.01826,0.92946 1.73725,0.78808 0.72394,-0.14262 1.39013,-0.82343 1.98881,-1.22245 0.76518,-0.50971 1.52912,-1.07336 2.33213,-1.51951 0.24772,0.79371 0.57264,1.55982 0.84641,2.34422 -0.27594,0.0291 -0.0958,0.40584 0.0819,0.45142 0.28152,0.0722 0.6367,0.028 0.18125,0.50573 -1.42882,0.87345 -2.85988,1.33643 -4.57735,1.76483 l 2.56075,2.68717 c -0.23036,0.11316 -0.83943,0.0994 -1.00344,0.30584 -0.18851,0.23749 0.0251,0.71698 -0.17648,0.95447 -0.33825,0.3984 -1.19207,0.0592 -1.63047,0.4777 -0.5001,0.47747 -0.66364,1.3751 -1.37798,1.65631 -0.64643,0.25392 -2.10895,-0.21845 -2.76407,-0.38804"
         id="jo"
         inkscape:transform-center-x="-1.98483"
         inkscape:transform-center-y="-44.527027"
         style="fill:#4d4d4d" />
      <g
         transform="matrix(0.31004052,0,0,0.31004052,-2.9410186,57.511346)"
         class="landxx coastxx so"
         id="so"
         inkscape:transform-center-x="-26.00817"
         inkscape:transform-center-y="25.578476">
        <path
           class="landxx so so-"
           d="m 1583.6963,739.50955 c 0,-1.407 -0.363,-3.353 0.244,-4.67 0.578,-1.254 1.7577,-2.22213 2.5507,-3.35213 1.588,-2.258 2.9653,-6.29987 5.3723,-7.75287 2.197,-1.327 4.768,-0.469 6.691,-2.534 2.184,-2.345 4.251,-3.877 7.556,-4.355 2.472,-0.357 6.817,1.401 8.525,-0.863 l 21.69,-25.648 c -2.622,0 -5.342,0.446 -7.92,-0.216 -2.922,-0.75 -5.712,-2.158 -8.536,-3.21 -2.911,-1.084 -5.807,-2.209 -8.712,-3.309 -2.689,-1.018 -5.049,-1.729 -7.113,-3.798 -0.69,-0.693 -0.914,-1.057 -1.871,-1.311 -0.974,-0.259 -1.353,-1.769 -1.808,-2.568 -0.772,-1.356 -1.286,-2.453 -2.38,-3.649 -1.304,-1.427 -2.838,-3.257 -2.244,-5.38 0.652,-2.33 2.6927,-4.37513 3.6027,-6.67213 2.402,1.34 3.7253,4.54113 5.3683,6.61413 2.052,2.588 5.179,3.306 8.352,2.26 1.215,-0.4 2.788,-1.484 3.826,-2.25 1.833,-1.354 2.351,-1.126 4.607,-0.755 2.331,0.384 3.38,0.872 5.557,-0.486 1.099,-0.686 3.621,-3.244 5.037,-2.74 1.56,0.554 2.636,0.623 4.313,0.046 1.011,-0.348 1.969,-0.86 3.019,-1.093 1.202,-0.268 2.006,0.255 3.152,0.369 1.878,0.188 3.316,-0.926 4.94,-1.587 1.693,-0.689 3.619,-0.384 5.326,-1.251 1.421,-0.722 1.565,-2.578 2.773,-3.172 1.171,-0.577 4.953,0.426 4.488,2.116 -0.603,2.189 -1.009,3.524 -0.606,5.845 0.279,1.617 0.701,3.935 -0.712,5.175 0.94,0.353 1.717,0.134 1.51,-0.864 0.466,0.311 0.973,0.527 1.52,0.648 -0.312,1.551 -3.829,-0.574 -3.842,2.149 -0.01,2.224 0.177,4.5 -0.442,6.68 -0.528,1.862 -1.648,3.287 -2.701,4.85 -1.226,1.824 -1.083,4.526 -2.585,6.283 -0.583,0.682 -1.387,0.856 -1.791,1.756 -0.402,0.895 -0.054,1.905 -0.389,2.852 -0.766,2.16 -2.311,3.875 -3.387,5.865 -1.433,2.648 -1.549,5.563 -2.668,8.301 -1.137,2.783 -2.909,5.242 -4.541,7.747 -1.583,2.431 -2.632,5.247 -4.444,7.517 -2.012,2.521 -4.029,5.035 -6.08,7.524 -4.123,5.004 -8.315,9.071 -13.779,12.587 -2.289,1.474 -4.567,3.005 -6.479,4.961 -2.153,2.201 -4.615,4.374 -6.561,6.752 -1.926,2.354 -3.951,4.645 -5.854,7.008 -0.927,1.151 -1.738,2.388 -2.64,3.559 -0.558,0.724 -2.229,3.337 -2.526,1.813 0,2.476 -1.6171,4.85594 -3.1101,6.72494 0.1281,-1.94222 -1.7464,-3.54834 -3.079,-5.466 -1.5215,-2.18943 -1.2792,-3.69719 -1.3042,-6.23319 -0.065,-7.667 0.084,-15.15275 0.084,-22.81675"
           id="so-"
           style="fill:#4d4d4d" />
        <path
           class="limitxx so xs"
           d="m 1636.3253,690.33455 c -2.622,0 -5.342,0.446 -7.92,-0.216 -2.922,-0.75 -5.712,-2.158 -8.536,-3.21 -2.911,-1.084 -5.807,-2.209 -8.712,-3.309 -2.689,-1.018 -5.049,-1.729 -7.113,-3.798 -0.69,-0.693 -0.914,-1.057 -1.871,-1.311 -0.974,-0.259 -1.353,-1.769 -1.808,-2.568 -0.772,-1.356 -1.286,-2.453 -2.38,-3.649 -1.304,-1.427 -2.838,-3.257 -2.244,-5.38 0.652,-2.33 2.6927,-4.37513 3.6027,-6.67213 2.402,1.34 3.7253,4.54113 5.3683,6.61413 2.052,2.588 5.179,3.306 8.352,2.26 1.215,-0.4 2.788,-1.484 3.826,-2.25 1.833,-1.354 2.351,-1.126 4.607,-0.755 2.331,0.384 3.38,0.872 5.557,-0.486 1.099,-0.686 3.621,-3.244 5.037,-2.74 1.56,0.554 2.636,0.623 4.313,0.046 1.011,-0.348 1.9691,-0.85974 3.019,-1.093 0.3496,-0.0777 0.6655,-0.089 0.9659,-0.0626 l 0.079,23.56713 -4.1425,5.01251 z"
           id="xs"
           style="fill:#4d4d4d" />
      </g>
      <g
         class="landxx coastxx mr"
         id="mr"
         transform="matrix(0.31004052,0,0,0.31004052,-12.211758,43.536426)"
         inkscape:transform-center-x="108.01125"
         inkscape:transform-center-y="-17.012947">
        <path
           d="m 1178.278,635.04 c 0.508,-0.641 0.609,-1.447 0.65,-2.232 -0.581,0.553 -1.077,1.421 -0.65,2.232"
           id="path3878" />
        <path
           class="landxx mr"
           d="m 1174.038,624.96 c -0.204,-1.377 -0.086,-2.32769 0.4642,-3.65324 0.1538,-0.37061 0.6654,-1.26447 1.634,-1.31476 l 27.8834,-0.0319 c 1.4181,-0.74707 0.4439,-6.90927 0.3494,-9.28114 -0.173,-2.384 -0.414,-3.93685 1.4972,-5.74564 1.6005,-1.51474 1.5477,-1.12866 6.6326,-3.20772 l 1.117,-21.83227 24.8791,-0.29164 0.3344,-11.07091 c 9.472,6.373 18.7673,12.93718 27.9043,19.78218 -4.394,0 -8.8226,0 -13.2156,0 l 5.4235,72.91093 c 0.4464,1.19253 1.6743,1.70657 1.7835,1.9852 0.7263,1.85442 -0.2297,2.41508 -0.2982,3.84403 -0.08,1.6745 -0.2455,3.18268 -0.7334,3.36244 l -15.8878,0.019 c -9.0245,0.31228 -12.89,1.54838 -13.6876,-1.1206 -0.385,2.416 -3.9639,2.81102 -5.729,2.11 -2.7876,-1.10713 -4.5675,-0.64045 -5.71,2.498 -0.6488,-1.07139 -1.5934,-1.98502 -2.561,-2.918 -1.1465,-1.10551 -2.2517,-1.69839 -2.8606,-1.36078 -2.2889,1.26908 0.9057,7.65036 -4.7161,7.24739 0.029,0.10214 -1.5162,-1.09302 -1.9255,-1.87554 -0.5057,-0.96696 -1.0895,-0.65885 -2.0598,-1.48707 -1.051,-0.89711 -0.9771,-2.36093 -1.8392,-2.93401 -2.3084,-1.53451 -1.3934,-1.55366 -1.6078,-2.59424 -0.2641,-1.28138 -1.5683,-2.91336 -2.221,-2.92275 -3.3964,-0.0489 -3.6398,-2.80506 -5.8422,-3.86621 -1.1111,-0.53535 -2.0795,-0.81823 -3.5774,-0.86717 -2.3328,-0.0762 -3.1351,2.20359 -8.4895,1.80377 -1.1287,-0.0843 -0.9781,-0.83817 -1.9394,-0.56515 -0.9333,0.34162 -2.0307,3.34542 -2.4027,4.13276 0,-5.202 3.4242,-9.445 3.9182,-14.544 0.297,-3.07 -0.127,-5.666 -0.512,-8.672 -0.139,-1.084 -0.104,-2.273 -0.793,-3.192 -0.601,-0.802 -1.649,-1.372 -1.76,-2.464 0.802,0.25 1.685,-0.345 1.59,-1.224 -0.542,0.145 -0.975,0.552 -1.16,1.08 0.197,-1.044 1.039,-1.777 1.497,-2.694 0.296,-0.593 -0.133,-1.541 0.214,-1.938 1.565,-1.792 -0.831,-4.97 -1.421,-6.744 -0.244,0.428 -0.411,0.884 -0.5,1.368 -1.588,-1.202 -1.209,-3.688 -2.81,-4.896 -0.255,1.062 -0.639,2.092 -0.862,3.165"
           id="path3882"
           style="fill:#4d4d4d" />
      </g>
      <path
         class="landxx iq"
         d="m 479.40646,203.48014 c 1.35261,-0.66336 2.54075,-1.31085 3.74392,-2.13731 0.38247,-0.26272 0.79504,-0.58783 1.01489,-0.92341 0.42218,-0.64441 0.0856,-1.49625 0.16987,-1.73738 0.009,-1.00182 0.2791,-1.12574 0.22159,-1.60711 -0.0642,-0.5381 -0.82995,-1.48273 -0.23892,-1.94325 0.33816,-0.26349 0.75805,-0.25246 1.10709,-0.54375 0.29308,-0.24459 1.08136,-0.88496 0.84753,-1.14348 -0.1069,-0.11819 0.1074,0.0111 0.26769,-0.0376 0.26477,-0.08 0.35112,-0.32893 0.46636,-0.54003 0.11314,-0.20719 1.29234,-0.0156 1.55082,0.0837 0.20463,0.0786 0.41112,0.15285 0.6266,0.19719 0.35437,0.0732 0.46041,-0.15615 0.76859,-0.21331 0.77714,-0.14414 0.24666,0.8742 0.68736,0.83432 0.32107,-0.0291 0.4485,-0.51522 0.80195,-0.50189 0.44863,0.0167 0.43269,0.77907 0.62957,1.04291 0.0933,0.12526 0.2151,0.10325 0.29292,0.26013 0.0949,0.1916 -0.031,0.4642 0.13034,0.62187 0.33999,0.33228 1.08741,0.65967 0.78217,1.23353 0.5045,-0.11285 0.7117,0.34011 0.93664,0.42525 0.43011,0.16283 0.43653,-0.17833 1.36386,0.067 -0.0809,0.34849 -0.48571,0.26769 -0.63111,0.53712 -0.24618,0.45514 0.44937,0.79358 0.48936,1.20717 0.0524,0.54598 -0.61481,-0.0543 -0.59558,0.49917 0.008,0.24927 -0.26137,0.20729 -0.3302,0.44199 -0.0778,0.2654 0.053,0.46302 0.0986,0.70764 -0.16867,-9.3e-4 -0.32493,-0.0456 -0.46848,-0.13425 -0.0378,0.2245 -0.1938,0.39528 -0.0167,0.58102 0.19303,0.20242 0.33791,0.2889 0.23135,0.62076 -0.10166,0.31656 -0.38519,0.38842 -0.11266,0.6349 0.23346,0.21083 0.43861,0.46301 0.701,0.6393 0.26211,0.17611 1.62752,1.3462 0.84951,1.56478 0.30334,0.074 0.22636,0.42706 0.47653,0.36888 0.35952,-0.0836 0.56089,0.14516 0.84895,0.30781 0.52921,0.29882 0.8674,0.97772 1.59987,1.03479 0.34728,0.0271 0.98736,1.15845 1.29405,1.42948 0.46391,0.40996 0.17945,0.83345 0.0629,1.39741 -0.0558,0.26943 -0.0418,1.03436 0.35754,1.06289 0.14013,0.0102 0.37453,-0.0189 0.48428,0.1209 0.14169,0.17952 0.14104,0.54143 0.10876,0.76079 -0.0717,0.48734 0.18258,0.63014 0.72736,1.02269 0.27469,0.19796 0.21259,0.8122 0.60191,0.90626 -0.20122,0.0152 -1.40089,-0.15583 -1.42755,-0.37534 0.16525,0.39003 -0.52081,0.0771 -0.78899,0.0653 -0.38786,-0.0167 -0.88938,0.0749 -1.06505,0.44807 -0.38073,0.8089 -0.31246,2.4204 -1.60446,2.2726 l -3.26082,-0.37303 c -1.09144,-0.15613 -1.1324,-0.72981 -2.13079,-1.35731 -2.76106,-2.03078 -5.40583,-4.46436 -8.49737,-5.81864 -1.11088,-0.48664 -2.09739,-0.44524 -3.10118,-0.66664 0.62923,-0.68187 -0.12864,-0.38137 -0.3173,-0.67144 -0.0468,-0.0721 -0.0859,-0.21562 -0.0453,-0.28817 0.15781,-0.18106 0,-0.36528 -0.097,-0.62944 -0.2192,-0.58473 -0.42652,-1.1596 -0.61223,-1.75488"
         id="iq"
         inkscape:transform-center-x="-16.72649"
         inkscape:transform-center-y="-49.706004"
         style="fill:#4d4d4d" />
      <path
         class="landxx eh"
         d="m 351.78758,237.29936 c -0.36709,-0.64674 0.17734,-1.74398 0.28896,-2.4146 0.0766,-0.45855 0.1947,-0.88857 0.44025,-1.28852 0.29733,-0.48491 0.84145,-0.48584 1.02407,-1.09197 0.0936,-0.31066 0.0877,-0.78905 0.39654,-0.97445 0.17517,-0.1048 0.0716,-0.45669 0.20835,-0.65729 0.21858,-0.32089 1.09878,-1.41657 0.85385,-1.83296 -0.16463,0.10604 -0.30322,0.25392 -0.39995,0.42414 0.38476,-0.84641 1.3589,-1.46929 1.99883,-2.12254 0.8523,-0.87028 0.68767,-1.76971 1.1025,-2.83718 0.3395,-0.87277 0.60272,-1.83606 1.4513,-2.31941 0.93508,-0.53265 1.44358,-0.96696 1.83079,-1.99697 0.24611,-0.65474 0.71201,-1.58406 0.55045,-1.39344 l 10.38611,-0.0839 -0.14792,4.52519 -7.70653,0.0889 -0.35468,6.76912 c -0.45855,0.33081 -1.11026,0.36708 -1.58927,0.66503 -0.72084,0.44801 -1.01197,0.92733 -0.95492,1.7787 0.0332,0.49483 0.41297,3.07282 -0.11255,3.22164 l -8.57231,0 c -0.65791,3.1e-4 -0.76301,1.07491 -0.69387,1.54059"
         id="eh"
         inkscape:transform-center-x="112.36313"
         inkscape:transform-center-y="-25.612887"
         style="fill:#4d4d4d" />
      <path
         class="landxx sy"
         d="m 472.28483,203.74802 c 0.19442,-0.24632 0.56886,-0.75886 0.91462,-0.82595 -0.52769,-0.49235 0.22633,-0.80208 0.66937,-0.66969 -0.38941,-0.47312 0.1909,-0.5306 0.32499,-0.98277 0.0743,-0.25056 -0.23706,-0.75734 -0.52422,-0.81057 -0.32746,-0.0607 0.29606,-0.5306 -0.21138,-0.38829 -0.84561,0.23713 -0.90789,-0.30205 -0.94705,-0.73957 -0.0356,-0.39761 0.22168,-1.1239 -0.13549,-1.41658 -0.28617,-0.2347 -0.0638,-0.85862 -0.0747,-1.20183 -0.008,-0.25764 0.47089,0.14726 0.56297,0.19284 0.007,0.0341 0.11726,-0.22877 0.32071,-0.35177 0.25107,-0.15178 0.0814,-0.49328 0.12544,-0.73046 0.21858,0.0527 0.4508,-0.01 0.66969,-0.022 -0.1748,-0.35872 -0.28902,-0.45173 -0.33919,-0.88331 -0.0183,-0.15706 -0.004,-0.60073 0.2161,-0.65561 0.16556,-0.0415 0.33187,-0.0431 0.46364,0.0264 0.3553,0.18696 0.42506,0.50436 0.79122,0.44731 0.44677,-0.0697 0.74304,-0.12271 1.16935,-0.30687 0.43716,-0.18882 0.75743,-0.45111 1.24822,-0.38073 0.36244,0.0518 0.57544,0.3093 0.88207,0.45284 0.3491,0.16371 1.03268,0.0956 1.41093,0.063 0.96537,-0.0831 1.6549,-0.63454 2.52906,-0.98413 0.88374,-0.35343 1.84921,0.14236 2.75608,-0.21964 0.46295,-0.18479 1.14253,-0.89218 1.20996,0.21405 0.0158,0.25765 -0.61264,0.78007 -0.7937,0.95927 -0.32834,0.32523 -0.69449,0.30229 -1.06437,0.51932 -0.79371,0.46599 0.0378,1.47486 0.10014,2.03169 0.0369,0.32927 -0.16215,0.73325 -0.18602,1.07367 -0.035,0.50692 9e-5,1.32696 -0.003,1.82891 -0.006,1.17429 -4.95033,3.42041 -7.45955,5.13801 -0.68326,0.46771 -1.78862,1.59268 -2.6772,0.97074 -0.32337,-0.22602 -0.55627,-0.39979 -0.88981,-0.62907 -0.57863,-0.39779 -0.83869,-0.10002 -0.93465,-0.11385 -0.0202,-0.0729 0.20909,-1.45961 -0.12476,-1.60533"
         id="sy"
         inkscape:transform-center-x="-5.1191844"
         inkscape:transform-center-y="-53.994348"
         style="fill:#4d4d4d" />
      <g
         class="landxx coastxx om"
         id="om"
         transform="matrix(0.31004052,0,0,0.31004052,-12.211758,43.536426)"
         inkscape:transform-center-x="-47.229203"
         inkscape:transform-center-y="-18.356894"
         style="stroke-width:0.32253849;stroke-miterlimit:10;stroke-dasharray:none">
        <path
           d="m 1741.968,630.145 c 0.671,-0.595 0.903,-1.389 1.225,-2.19 0.183,-0.241 0.397,-0.446 0.646,-0.618 0.273,-0.321 -0.424,-1.322 -0.501,-1.657 -0.371,1.562 -2.003,2.723 -1.37,4.465"
           id="path4692"
           style="stroke-width:0.32253849;stroke-miterlimit:10;stroke-dasharray:none" />
        <path
           class="landxx om"
           d="m 1718.639,579.096 c 0.207,-0.579 0.47,-1.13 0.789,-1.655 0.68,0.76 1.334,-0.274 1.011,-0.937 0.584,0.316 1.757,2.303 0.29,1.944 0.943,0.655 0.254,4.669 -0.787,4.484 -1.414,-0.25 0.501,-3.744 -1.303,-3.836"
           id="path4696"
           style="fill:#4d4d4d;stroke-width:0.32253849;stroke-miterlimit:10;stroke-dasharray:none" />
        <path
           class="landxx om"
           d="m 1692.715,639.39554 c 10.5277,-2.41998 17.118,-4.95577 21.886,-7.54515 1.95,-3.71911 -0.1478,2.13847 0.785,-2.00339 0.762,-3.38322 1.2893,-6.76006 2.057,-9.984 0.5312,-2.23052 1.776,-5.035 0.486,-7.159 -0.929,-1.528 -2.813,-2.834 -3.399,-4.522 -0.737,-2.122 3.27,-9.425 1.299,-10.581 0.885,-1.054 2.622,-0.142 3.39,-1.151 0.843,-1.107 -0.513,-0.738 -0.79,-1.296 -0.736,-1.486 -1.324,-4.749 -0.333,-6.256 0.462,-0.704 1.403,0.378 1.257,0.935 -0.459,1.737 1.295,-0.146 1.573,-0.41 0.858,-0.818 0.85,-0.68 1.384,0.474 0.888,1.918 2.05,3.731 3.465,5.303 2.237,2.485 5.367,3.378 8.553,4.018 1.491,0.299 2.758,0.886 4.276,1.056 2.03,0.228 3.14,2.7 4.302,4.08 0.938,1.113 1.575,2.457 2.51,3.522 0.973,1.109 1.487,1.155 2.772,1.668 3.013,1.204 -0.395,5.48 -0.995,7.247 -1.134,3.338 -4.71,5.08 -5.679,8.656 -0.229,0.844 -0.54,3.285 -1.878,2.883 -1.059,-0.317 -0.853,-2.337 -2.207,-1.496 -1.615,0.978 -1.527,4.493 -1.943,5.938 -0.545,1.889 0.071,3.353 0.57,5.183 0.407,1.496 0.663,2.627 -1.154,2.682 -2.92,0.087 -6.132,0.948 -6.851,4.096 -0.282,1.237 -0.507,2.597 -1.284,3.642 -0.967,1.301 -2.894,1.23 -4.423,1.345 -1.852,0.138 -2.594,0.439 -3.681,1.898 -1.053,1.412 -0.369,1.681 -0.457,3.294 -0.07,1.283 -1.381,2.214 -2.414,2.717 -0.498,0.241 -0.999,0.565 -1.508,0.164 -0.879,-0.693 -1.604,-0.504 -2.695,-0.504 -3.159,0 -5.9235,3.06519 -9.1085,2.97519 -2.063,-0.059 -1.1365,-5.10919 -3.3515,-5.35119 0.939,-0.98 -1.353,-4.426 -1.819,-5.289 -1.63,-3.012 -3.5589,-7.00433 -4.6269,-10.26033"
           id="path4786"
           style="fill:#4d4d4d;stroke-width:0.32253849;stroke-miterlimit:10;stroke-dasharray:none" />
      </g>
      <g
         transform="matrix(0.31004052,0,0,0.31004052,-2.9410186,57.511346)"
         class="landxx coastxx tn"
         id="tn"
         inkscape:transform-center-x="60.558724"
         inkscape:transform-center-y="-51.23482">
        <path
           class="landxx tn"
           d="m 1328.9563,464.90155 c 0.172,-0.848 0.966,-1.171 1.582,-1.64 0.959,-0.73 1.0389,-1.38377 2.1,-2.189 0.8472,-0.64291 1.4854,-1.8458 1.8129,-2.91206 0.6575,-2.14008 0.474,-3.80582 0.58,-5.85894 0.067,-1.29285 -0.7479,-2.417 -0.5749,-3.714 0.196,-1.473 1.831,-4.273 -0.53,-4.782 0.849,-0.979 2.231,-1.482 2.886,-2.643 0.242,-0.429 0.087,-1.164 0.676,-1.333 0.647,-0.185 1.052,-0.002 1.566,-0.546 1.118,-1.184 2.283,-1.709 3.853,-2.158 0.729,-0.208 1.73,-0.756 2.506,-0.446 0.921,0.369 0,0.815 0.103,1.509 0.767,0 0.949,-0.382 0.5,-1.008 1.407,0.306 1.81,0.092 2.38,1.368 0.251,0.561 -0.53,0.615 0.228,1.149 0.58,0.409 0.674,1.12 0.133,1.587 0.044,-0.046 0.647,0.663 1.262,0.41 0.836,-0.345 1.542,-1.027 2.224,-1.602 0.266,-0.224 1.188,-1.216 1.619,-1.02 1.031,0.47 0.894,1.486 0.427,2.332 -0.896,1.623 -3.96,3.18 -4.063,5.026 -0.076,1.386 0.743,3.056 1.995,3.732 1.895,1.021 1.832,1.069 2.283,3.243 0.568,2.738 -1.345,5.584 -3.448,7.245 -2.091,1.651 -5.289,2.581 -3.216,5.787 0.455,0.705 1.063,1.369 1.841,1.723 0.866,0.394 1.218,-0.148 2.015,-0.037 0.262,0.036 0.428,1.319 0.588,1.59 0.391,0.661 1.486,-1.288 2.083,-1.071 0.816,0.297 0.265,0.96 0.51,1.512 0.341,0.767 1.516,1.462 0.29,1.584 0.645,0.689 2.051,-0.069 2.653,0.723 0.503,0.663 -0.328,3.24 -0.147,4.208 0.271,1.451 1.331,2.06986 -0.2596,3.02194 -1.5732,0.94168 -4.7925,1.98608 -5.7284,3.28206 -0.535,0.426 -0.3478,1.65323 -1.0951,1.95631 -1.589,0.64447 -3.0986,1.16892 -2.4699,3.59069 0.5026,1.93602 1.248,3.458 0.127,5.357 -1.307,2.215 -2.456,3.062 -4.751,4.069 -0.549,-3.614 -1.584,-7.09407 -2.295,-10.67 -0.736,-3.70167 -1.1091,-5.8365 -4.2321,-7.572 -1.4593,-0.81094 -2.1142,-1.79113 -2.4812,-3.41113 -0.322,-1.425 -0.967,-2.43468 -2.262,-3.19568 -0.647,-0.381 -1.2707,-0.69019 -1.7007,-1.37019 -0.44,-0.697 -0.2888,-1.64118 -0.7293,-2.34606 -0.915,-1.46441 -1.4187,-3.01736 -0.8397,-4.47994"
           id="path5410"
           style="fill:#4d4d4d" />
        <path
           d="m 1353.2163,468.50155 c -0.118,-0.958 -0.78,-0.18 -1,-0.648 -0.538,-1.145 -0.01,-1.512 0.956,-1.499 2.116,0.028 0.793,1.291 0.044,2.147"
           id="path5412"
           style="fill:#4d4d4d" />
      </g>
      <path
         class="landxx eg"
         d="m 448.28769,212.52092 c -0.44181,-0.7072 0.46816,-1.44811 0.35624,-2.17338 -0.12017,-0.7786 -0.82958,-1.32225 0.29144,-2.24655 0.0236,0.56737 0.68487,0.36429 1.02778,0.26229 0.62659,-0.18633 1.14002,0.0214 1.76258,0.084 0.68116,0.0682 1.33473,0.21982 1.99418,0.39561 0.27873,0.0744 0.32306,0.37763 0.60613,0.46506 0.25144,0.0775 0.44274,0.0462 0.69201,0.0198 0.16742,-0.018 0.24493,0.24369 0.43375,0.28276 0.20679,0.0428 0.41793,0.0437 0.62659,0.0645 0.67062,0.0663 1.11832,0.48707 1.74739,0.59218 0.6083,0.10169 1.18993,-0.30787 1.62616,-0.67992 0.22633,-0.19285 0.43716,-0.40244 0.64457,-0.61543 0.17766,0.13858 0.3116,0.2812 0.53637,0.24555 -0.12835,-0.0645 -0.10045,-0.10138 -0.26973,-0.0893 0.21982,-0.11658 0.43933,-0.32833 0.49296,-0.5804 0.3798,0.22695 0.73697,-0.18075 1.11615,-0.17796 -0.25485,0.1172 -0.49948,0.26291 -0.69418,0.46847 0.0673,-0.0397 1.6057,-0.50474 0.87121,-0.55807 0.5435,-0.17983 0.89633,0.44243 1.41844,0.36833 0.24927,-0.0353 0.48428,-0.28183 0.74875,-0.18944 0.24586,0.0856 0.36181,0.44181 0.57977,0.58009 -0.22075,-0.1544 -0.44677,-0.49359 -0.73789,-0.51312 0.0862,0.23129 -0.23253,0.66876 0.14385,0.75867 0.40926,0.0977 0.21765,0.19905 0.48243,0.44646 0,-0.0911 0.73014,-0.39933 0.20152,-0.64737 0.56242,0.13084 0.74937,0.64985 1.40914,0.59218 0.21393,-0.0186 0.84548,-0.41359 0.73324,0.0552 0.40895,-0.25981 0.86781,-0.1082 1.30713,-0.24059 0.38694,-0.11627 0.77421,-0.26775 1.08456,-0.53718 l 1.88489,4.97593 c -0.47653,0.60613 -0.37007,1.72703 -0.67329,2.44508 -0.17734,0.41979 -0.1699,0.68147 -0.16525,1.12514 0.004,0.37949 -0.47839,0.74657 -0.35964,1.11645 -0.23036,-0.213 -0.53854,-0.30911 -0.79278,-0.48707 -0.32275,-0.22602 -0.54846,-0.55528 -0.76952,-0.8737 -0.27996,-0.40367 -1.09878,-0.6672 -0.98004,-1.27333 0.11968,-0.61078 -0.4694,-1.0343 -0.77045,-1.46463 -0.41638,-0.59435 -0.7134,-1.28667 -0.88206,-1.99542 -0.27966,0.30043 -0.5773,0.95585 -0.28555,1.29876 0.49886,0.58752 0.44708,1.30868 0.86532,1.91574 0.36213,0.52583 0.72922,1.16947 1.18188,1.6181 0.20028,0.19842 0.42878,0.36926 0.6114,0.58535 0.0955,0.11317 0.48893,0.76177 0.0146,0.40802 0.38383,0.2995 0.0663,0.68085 0.30973,0.92764 0.32678,0.33112 0.50041,0.68209 0.67155,1.0994 0.084,0.20525 0.22261,0.38104 0.34197,0.56552 0.0911,0.14106 -0.0899,0.32089 -0.098,0.45886 -0.0112,0.18447 0.2902,0.45824 0.37236,0.61729 0.18881,0.36398 0.39468,0.71929 0.58536,1.08266 0.62597,1.19365 1.25783,2.36623 1.85032,3.57818 0.23191,0.47405 0.57264,0.81354 0.86377,1.23954 0.27098,0.39654 0.74596,0.51932 0.99709,0.92268 -0.23749,0.0127 -0.47715,-0.0285 -0.69108,-0.13394 -0.15657,0.64768 -0.081,1.63656 0.24958,2.01836 0.31472,0.36349 -0.4117,1.09339 -0.85478,1.11491 -0.21951,0.0107 -0.30288,-0.14914 -0.52412,0.0976 -0.17428,0.19439 -0.26617,0.52771 -0.34554,0.77698 -0.0911,0.28803 -0.22664,0.54257 -0.54474,0.61667 -0.25734,0.0598 -0.72041,0.007 -0.85714,0.30235 -0.24989,0.5404 -0.0974,1.17105 -0.85919,1.11056 -0.88749,-0.0705 -1.33872,-0.79005 -1.80629,-0.77047 -1.54044,0.0645 -2.42461,0.205 -3.63219,0.001 0.0347,-0.12123 0.17486,-0.37764 0.0884,-0.50227 -0.21796,-0.31531 -0.38507,0.2564 -0.45731,0.35965 -0.28927,0.41359 -1.73467,0.16494 -2.19787,0.16494 l -12.42926,-0.0268 -0.44305,-16.79963 c -0.0465,-0.78533 -0.0273,-1.60911 -0.1358,-2.387 -0.093,-0.66907 -0.26477,-1.65872 -0.56582,-2.26175"
         id="eg"
         inkscape:transform-center-x="12.924157"
         inkscape:transform-center-y="-32.193708"
         style="fill:#4d4d4d" />
      <g
         class="landxx coastxx sa"
         id="sa"
         transform="matrix(0.31004052,0,0,0.31004052,-12.211758,43.536426)"
         inkscape:transform-center-x="-21.641521"
         inkscape:transform-center-y="-25.658545"
         style="stroke-width:0.32253849;stroke-miterlimit:10;stroke-dasharray:none">
        <path
           d="m 1619.718,661.32 c -0.041,-0.811 -0.376,-1.567 -1.079,-2.017 -0.016,0.265 -0.043,0.529 -0.08,0.792 -0.938,0.037 -1.275,-0.954 -2.08,-1.224 0.78,1.298 2.789,1.272 3.239,2.449"
           id="path3234"
           style="fill:#4d4d4d;stroke-width:0.32253849;stroke-miterlimit:10;stroke-dasharray:none" />
        <path
           class="landxx sa"
           d="m 1624.548,662.653 c 0.097,-0.908 -0.457,-3.06 -1.274,-3.58 -0.416,-0.265 -2.431,-4.499 -2.315,-2.456 -0.187,-3.659 -2.723,-4.6 -4.741,-7.077 -0.764,-0.938 -1.842,-2.292 -2.2,-3.439 -0.463,-1.48 -1.298,-1.902 -2.056,-3.105 -0.444,-0.706 -0.066,-1.322 -0.578,-2.047 -0.365,-0.515 -0.975,-2.154 -1.216,-2.815 -0.226,-0.619 -0.363,-1.273 -0.653,-1.868 -0.267,-0.547 -0.824,-0.624 -1.092,-1.105 -0.256,-0.462 -0.01,-1.092 -0.359,-1.497 -0.359,-0.409 -0.945,-0.466 -1.334,-0.828 -0.977,-0.909 -2.108,-1.828 -2.971,-2.841 -1.047,-1.23 -2.274,-0.715 -3.455,-1.585 -1.959,-1.446 -3.262,-4.131 -4.493,-6.187 -0.717,-1.197 -0.511,-1.882 -0.571,-3.145 -0.066,-1.368 -1.056,-2.5 -1.158,-3.883 -0.134,-1.815 0.617,-3.62 0.256,-5.428 -0.165,-0.824 -0.615,-1.521 -1.057,-2.216 -0.232,-0.366 -1.639,-2.181 -0.051,-0.94 -0.349,-0.912 -1.142,-0.922 -1.348,-1.921 -0.185,-0.893 -0.623,-1.87 -0.972,-2.713 -0.966,-2.335 -2.851,-3.926 -4.618,-5.606 -1.289,-1.224 -2.566,-1.417 -4.138,-1.847 -0.67,-0.183 -0.99,-1.458 -1.187,-2.002 -0.422,-1.166 -1.238,-1.966 -1.969,-2.938 2.53,-0.922 -0.994,-5.075 -1.82,-6.08 -0.557,-0.675 -2.12,-1.905 -2.053,-2.796 0.117,-1.535 -1.86,-2.422 -2.525,-3.803 -2.016,-4.19 -5.198,-7.671 -7.432,-11.782 -0.681,-1.252 -1.441,-3.183 -2.942,-3.606 -0.682,-0.192 -3.364,-0.638 -3.417,0.621 -0.897,-0.82 0.553,-2.975 0.805,-3.836 0.528,-1.805 0.106,-3.68271 0.401,-5.505 0.3737,-2.30852 0.014,-0.8716 0.3385,-2.24737 1.723,0.51257 6.4635,1.78516 8.1825,1.41037 3.415,-0.74456 3.361,-5.71 6.57,-6.216 1.203,-0.19 4.1559,0.11407 4.027,-1.508 -0.2941,-3.69942 1.3153,-2.58881 3.5546,-3.34406 -2.9226,-2.79949 -5.703,-5.71917 -8.3765,-8.754 5.1925,-1.08478 8.6393,-2.25469 14.76,-5.52458 2.5927,0.49723 7.217,0.77985 10.0595,2.09578 9.5514,4.4217 17.4184,11.18186 25.7094,17.49086 1.756,1.337 3.465,2.664 5.104,4.137 1.867,1.677 3.1647,1.59327 5.6247,1.83127 2.836,0.274 5.8243,0.67473 8.6613,0.93673 1.041,0.097 1.555,-0.434 2.685,-0.19 1.527,0.329 3.111,0.515 4.666,0.656 1.648,0.148 1.778,2.064 2.304,3.277 0.779,1.802 3.404,0.664 4.894,0.795 1.541,0.136 1.742,0.971 2.246,2.232 0.545,1.365 3.255,3.104 2.834,4.635 -0.139,-0.241 -0.309,-0.457 -0.511,-0.647 -0.461,1.097 0.645,0.972 0.511,1.94 0.019,0.015 4.632,0.442 2.87,1.797 0.676,0.214 2.111,3.675 2.8,1.725 -0.46,1.736 3.706,3.686 4.67,4.741 -0.514,-0.154 -0.897,-0.466 -1.15,-0.934 0.024,1.914 1.184,1.942 1.596,3.478 0.241,0.9 0.145,2.799 -1.165,1.624 0.119,1.021 -0.211,1.224 0.717,1.412 0.143,0.028 1.359,2.665 1.443,2.971 -0.27,-0.233 -0.533,-0.473 -0.791,-0.719 0.797,1.169 2.22,1.826 2.85,3.12 0.639,1.308 0.833,2.508 1.601,3.779 0.59,0.978 1.443,2.654 2.665,2.954 0.559,0.137 2.587,-0.393 2.295,0.71 0.214,-0.56 0.699,-0.765 1.221,-0.432 -0.683,0.834 -1.3002,3.10814 1.0068,2.51914 -0.152,0.039 1.1802,2.63645 1.3082,2.81945 2.6599,3.01823 6.2479,8.32765 7.6579,8.89996 8.7636,0.97901 12.8159,1.45516 17.5839,2.51679 0.6215,-0.14882 1.1661,-0.52221 1.3651,-0.92452 1.0641,2.45975 3.4811,3.74705 3.8873,5.344 0.367,1.44291 0.2647,2.40103 -0.1135,3.88483 -1.2662,4.96847 -1.9636,13.91667 -3.7987,14.9054 -12.4941,6.73153 -28.1308,9.08715 -42.979,11.54695 -1.926,0.682 -3.7786,1.55278 -5.5365,2.57009 -2.6434,1.52972 -5.2137,6.12495 -6.0713,8.86805 -0.3963,1.26766 -1.888,2.65572 -3.283,2.66172 -1.458,0.006 -1.7275,-2.3642 -2.9157,-2.76405 -1.3502,-0.45438 -2.3471,0.23562 -3.5112,0.0931 -1.8051,-0.22095 -4.2178,0.0627 -5.8403,-0.77213 -1.949,-1.00286 -3.3851,-0.54262 -5.5441,-0.53836 -1.891,0.004 -3.8878,1.16148 -5.7705,1.13754 -2.3377,-0.0297 -2.6794,-1.80886 -3.896,-1.489 -1.6305,0.42868 -2.063,2.56919 -2.1538,3.92227 -0.09,1.33517 1.5811,2.11151 0.166,3.076 -0.2714,0.18502 -0.5545,2.07645 -2.5891,2.74927 -0.013,-0.179 0.1045,-0.22754 0.094,-0.40254"
           id="path3380"
           style="fill:#4d4d4d;stroke-width:0.32253849;stroke-miterlimit:10;stroke-dasharray:none" />
        <path
           d="m 1617.268,657.504 c 0.531,0.132 0.65,0.3 0.36,0.504 -0.12,-0.168 -0.24,-0.336 -0.36,-0.504"
           id="path5480"
           style="fill:#4d4d4d;stroke-width:0.32253849;stroke-miterlimit:10;stroke-dasharray:none" />
        <path
           d="m 1617.628,658.008 c 0.219,0.31 0.265,0.646 0.14,1.008 -0.264,-0.073 -0.503,-0.193 -0.72,-0.359 0.193,-0.217 0.387,-0.433 0.58,-0.649"
           id="path5482"
           style="fill:#4d4d4d;stroke-width:0.32253849;stroke-miterlimit:10;stroke-dasharray:none" />
        <path
           d="m 1668.889,568.368 c 0.355,-0.539 0.91,-0.395 1.3,0 -0.434,0.083 -0.867,0.083 -1.3,0"
           id="path5488"
           style="stroke-width:0.32253849;stroke-miterlimit:10;stroke-dasharray:none" />
      </g>
      <path
         class="landxx dj"
         d="m 489.6071,263.41717 c 0,-0.7196 -0.27903,-1.43486 0.15719,-2.08533 0.32833,-0.48924 0.62907,-0.93322 0.91369,-1.44696 0.33236,-0.59993 0.49979,-0.27872 0.97539,-0.15099 0.24121,0.0645 0.22819,-0.31345 0.32275,-0.43839 0.14665,-0.19347 0.39995,-0.27005 0.60117,-0.38724 0.20742,0.45514 1.07739,1.30341 0.65822,1.83513 -0.21486,0.27283 -0.8861,0.58411 -1.20699,0.71061 -0.32927,0.1299 -0.37174,0.51932 -0.74751,0.57977 0.24648,0.31749 0.98221,-0.20555 1.33938,-0.0673 0.64581,0.25021 0.003,0.88207 -0.17022,1.23707 -0.25981,0.53574 -0.67278,-0.0229 -1.07615,0.0831 -0.41235,0.1082 -1.49191,0.64736 -1.76692,0.13052"
         id="dj"
         inkscape:transform-center-x="-17.279694"
         inkscape:transform-center-y="7.6552408"
         style="fill:#4d4d4d" />
      <path
         class="landxx ma"
         d="m 361.58486,218.79366 c 0.10727,-0.11812 0.45545,-0.67061 0.57791,-0.71526 0.43871,-0.15967 0.91866,-0.18014 1.37224,-0.27997 0.84176,-0.1854 1.69531,-0.45142 2.33058,-1.06034 0.62287,-0.59713 1.27117,-1.06623 1.92318,-1.61965 0.62473,-0.52986 1.10188,-1.23675 1.60198,-1.88008 0.33918,-0.43654 1.11832,-1.69344 0.46103,-2.16967 -0.25454,-0.18416 -0.43344,-0.19036 -0.27067,-0.53172 0.16154,-0.33887 0.14448,-0.67775 0.16278,-1.04731 0.0509,-1.02903 0.42258,-1.4882 1.05227,-2.25493 0.35996,-0.4384 0.26106,-0.88454 0.41236,-1.38867 0.10975,-0.36492 0.40956,-0.64767 0.6824,-0.89602 0.58287,-0.5311 1.04483,-1.18497 1.77622,-1.51547 0.79618,-0.35996 1.64259,-0.64117 2.40343,-1.0743 1.50525,-0.85726 2.2295,-2.94538 2.79967,-4.48225 0.0552,-0.14851 0.25516,-0.90625 0.48459,-0.883 0.28152,0.0288 0.56552,-0.0853 0.80518,-0.21392 0.30291,-0.16247 0.36088,0.23966 0.44925,0.45607 0.17021,0.41793 0.39716,0.70193 0.76549,0.9636 0.76921,0.54629 1.40727,0.39344 2.28685,0.28803 0.72922,-0.0871 1.65655,0.35624 2.10022,-0.50041 -0.007,0.27904 0.0698,0.34849 0.10851,0.56025 0.0415,0.22695 0.4539,0.34166 0.093,-0.0245 0.19502,0.27036 0.54381,0.40833 0.85696,0.25238 0.31903,-0.15905 0.50908,0.16866 0.70565,0.35034 0.21083,0.19502 0.58721,0.30539 0.71309,0.5804 0.14386,0.31438 -0.16773,0.60241 0.26974,0.7813 -0.23687,0.18571 -0.15998,0.52676 -0.11503,0.77665 0.0713,0.39561 -0.0605,0.74348 -0.0155,1.12514 0.0363,0.30663 0.23501,0.50226 0.15874,0.83153 -0.11471,0.49513 -0.0583,0.67093 0.17766,1.10653 0.11998,0.22168 0.0112,0.41918 0.13114,0.62225 0.17828,0.30198 0.45762,0.42197 0.72085,0.63001 0.48521,0.38352 -0.9664,1.02034 -0.19006,1.31457 -0.80145,0.20586 -3.61135,-0.75805 -4.0237,0.33019 -0.21517,0.56831 -0.77542,0.78471 -1.38216,0.73387 -0.45886,-0.0388 -1.02345,0.61698 -0.3981,0.78874 -0.52955,0.48428 0.44243,0.843 0.21052,1.07274 -0.26477,0.2626 -0.7289,0.16773 -1.01507,0.37639 -0.2995,0.21889 -0.62814,0.54691 -0.98283,0.66938 -0.26819,0.0924 -0.5711,0.0843 -0.82285,0.22509 -0.488,0.27252 -0.68457,0.84393 -1.04235,1.24388 -0.40988,0.45855 -1.16762,0.63775 -1.76351,0.66132 -0.4477,0.0174 -0.92951,-0.17022 -1.11026,0.36336 -0.19285,0.56924 -0.75247,0.14293 -1.20048,0.17611 -0.31593,0.0232 -0.49978,0.18106 -0.70317,0.40057 -0.20649,0.22323 -0.45018,0.1761 -0.70751,0.27903 -0.29702,0.11875 -0.48025,0.41267 -0.71743,0.61047 -0.25207,0.21021 -0.56428,0.34105 -0.82192,0.54971 -0.50258,0.40708 -0.94315,0.4663 -0.89292,1.17071 0.0499,0.70069 -0.0242,1.47734 -0.10262,2.174 -0.0335,0.29516 -9.36199,0.0729 -10.31536,0.0729"
         id="ma"
         inkscape:transform-center-x="98.527436"
         inkscape:transform-center-y="-45.809057"
         style="fill:#4d4d4d" />
      <g
         transform="matrix(0.31004052,0,0,0.31004052,-2.9410186,57.511346)"
         id="lb"
         inkscape:transform-center-x="1.5459765"
         inkscape:transform-center-y="-51.484962"
         style="stroke-width:0.32253849;stroke-miterlimit:10;stroke-dasharray:none">
        <path
           class="landxx lb"
           d="m 1529.1163,473.25355 c 1.59,-1.854 1.538,-5.199 2.888,-7.283 0.669,-1.032 -0.115,-2.426 0.653,-3.421 0.599,-0.774 2.236,-1.63 1.709,-2.832 0.617,0.13 1.551,0.393 2.142,0.041 1.359,-0.81 0.399,0.732 0.599,1.196 -0.026,-0.062 0.895,0.282 0.991,0.375 0.685,0.659 0.299,0.513 0.817,1.463 1.104,2.021 -2.423,2.345 -1.019,4.052 -1.429,-0.427 -3.861,0.572 -2.159,2.16 -0.634,0.146 -2.786,2.234 -2.881,2.88 -0.156,-0.083 -0.276,-0.203 -0.359,-0.36 -0.237,0.465 -0.2511,1.0165 -0.505,1.491 -0.5382,1.00587 -2.0934,-0.39296 -2.876,0.238"
           id="lb-"
           style="fill:#4d4d4d;stroke-width:0.32253849;stroke-miterlimit:10;stroke-dasharray:none" />
      </g>
      <g
         transform="matrix(0.31004052,0,0,0.31004052,-2.9410186,57.511346)"
         id="kw"
         inkscape:transform-center-x="-26.072484"
         inkscape:transform-center-y="-39.221718">
        <g
           class="landxx coastxx kw"
           id="kw-"
           transform="translate(-29.9017,-45.0745)">
          <path
             d="m 1657.008,545.256 c 0.141,0.313 -1.702,3.358 0.58,3.132 1.975,-0.196 -0.036,-2.463 -0.58,-3.132"
             id="path5440"
             style="fill:#4d4d4d" />
          <path
             class="landxx kw"
             d="m 1645.708,552.815 c 3.2037,-1.1666 1.7157,-7.66132 5.057,-8.277 1.2918,-0.23804 3.1343,-0.35839 4.831,1.042 0.4391,0.36243 1.568,2.708 1.122,3.276 -0.952,-1.335 -2.306,0.929 -2.81,1.584 1.462,-0.194 3.089,0.374 3.45,1.954 0.44,1.921 1.9082,3.63258 2.5552,5.57258 -1.2384,-0.71107 -4.3239,0.48629 -5.5382,-0.36558 -0.9477,-0.66486 -1.0636,-2.10479 -1.439,-3.1 -0.5018,-1.33045 -5.29,-0.97304 -7.228,-1.686"
             id="path5486"
             style="fill:#4d4d4d" />
        </g>
      </g>
      <g
         transform="matrix(0.31004052,0,0,0.31004052,-2.9410186,57.511346)"
         id="qa"
         inkscape:transform-center-x="-35.244123"
         inkscape:transform-center-y="-28.425142">
        <path
           class="landxx qa"
           d="m 1649.7863,540.78955 c -0.044,-0.39 -0.608,-2.786 0.5,-1.656 -0.063,-0.388 -0.317,-2.542 0.37,-0.72 0.055,-1.816 0.702,-6.609 3.204,-3.966 0.627,0.663 1.831,1.128 1.837,2.168 0,0.726 -0.354,1.186 -0.519,1.849 -0.144,0.574 0.207,1.32 0.263,1.893 0.055,0.573 0.664,0.584 0.824,1.08 0.264,0.809 0.068,1.543 -0.259,2.29 -0.566,1.293 -0.38,2.237 -1.798,2.662 -1.178,0.354 -2.239,1.291 -3.028,-0.439 -0.72,-1.578 -1.02,-3.477 -1.394,-5.161"
           id="qa-"
           style="fill:#4d4d4d" />
      </g>
      <g
         transform="matrix(0.31004052,0,0,0.31004052,-2.9410186,57.511346)"
         id="ps"
         inkscape:transform-center-x="2.0930786"
         inkscape:transform-center-y="-46.211694"
         style="stroke-width:0.32253849;stroke-miterlimit:10;stroke-dasharray:none">
        <g
           class="landxx ps"
           id="ps-"
           transform="translate(-29.9017,-45.0745)"
           style="stroke-width:0.32253849;stroke-miterlimit:10;stroke-dasharray:none">
          <path
             d="m 1553.758,533.592 c 0.694,-0.685 1.34,-1.438 1.801,-2.304 0.861,0.544 -0.967,2.8688 -1.37,3.2878 -0.171,-0.299 -0.315,-0.6588 -0.431,-0.9838"
             id="path5472"
             style="fill:#4d4d4d;stroke-width:0.32253849;stroke-miterlimit:10;stroke-dasharray:none" />
          <path
             d="m 1558.658,526.104 c 0.3667,-0.85734 0.4906,-3.26436 1.957,-2.976 0.5086,0.10002 1.9952,0.97283 2.1818,1.46686 0.5422,1.43525 0.4024,3.44979 0.3541,5.01014 -0.033,1.07192 -0.049,2.22754 -0.6136,2.49214 l -2.0942,0.98058 c -0.9939,0.46534 -1.986,0.49834 -1.56,-1.06066 0.113,-0.413 1.5829,-2.58706 1.7929,-2.51606 -0.436,-0.149 -1.5651,0.28277 -1.828,-0.478 -0.4643,-1.34373 0,-2.35464 -0.19,-2.919"
             id="path5474"
             style="fill:#4d4d4d;stroke-width:0.32253849;stroke-miterlimit:10;stroke-dasharray:none" />
        </g>
      </g>
      <g
         transform="matrix(0.31004052,0,0,0.31004052,-3.8249021,57.334569)"
         id="bh"
         inkscape:transform-center-x="-33.104344"
         inkscape:transform-center-y="-31.334058"
         style="fill:#666666">
        <path
           class="landxx coastxx bh"
           d="m 1646.9073,533.08555 c 0.229,0.479 0.326,0.982 0.289,1.512 -0.134,0.691 0.704,1.188 0.86,1.8 0.296,-0.76 0.331,-4.892 -1.149,-3.312"
           id="bh-"
           style="fill:#666666" />
        <circle
           sodipodi:ry="6.0130301"
           sodipodi:rx="6.0130301"
           sodipodi:cy="531.45422"
           sodipodi:cx="1645.5894"
           d="m 1651.6024,531.45422 c 0,3.32091 -2.6921,6.01303 -6.013,6.01303 -3.3209,0 -6.0131,-2.69212 -6.0131,-6.01303 0,-3.3209 2.6922,-6.01303 6.0131,-6.01303 3.3209,0 6.013,2.69213 6.013,6.01303 z"
           class="circlexx bh"
           cx="1645.5894"
           cy="531.45422"
           id="bh."
           r="6.0130301"
           style="fill:#666666" />
      </g>
    </g>
    <g
       class="landxx coastxx ae"
       id="ae"
       transform="matrix(0.31004052,0,0,0.31004052,-352.03539,787.81049)"
       style="fill:#4d4d4d;fill-opacity:1;stroke-width:0.32253849;stroke-miterlimit:10;stroke-dasharray:none">
      <path
         d="m 1703.018,595.872 c 0.5,0.033 0.883,-0.159 1.15,-0.576 -0.653,-0.54 -1.479,-0.413 -1.87,0.36 0.24,0.073 0.479,0.144 0.72,0.216"
         id="path2704"
         style="fill:#4d4d4d;fill-opacity:1;stroke-width:0.32253849;stroke-miterlimit:10;stroke-dasharray:none" />
      <path
         class="landxx ae"
         d="m 1686.3177,594.576 c 0.489,-0.323 1.0364,0.0828 0.9254,0.78981 0.234,-0.222 0.1186,-0.65181 0.3636,-0.86181 0.467,0.682 0.053,1.668 0.58,2.304 0.51,0.615 1.69,0.473 2.381,0.433 0.898,-0.053 1.655,-0.195 2.346,-0.816 0.314,-0.282 0.677,-1.107 1.104,-1.2 0.463,-0.103 1.617,0.594 2.186,0.606 0.933,0.021 1.862,0.129 2.794,0.096 2.533,-0.09 4.28,1.076 6.761,-0.414 -0.225,-0.347 -0.465,-0.683 -0.72,-1.008 0.781,-0.295 0.673,0.645 1.29,0.576 0.898,-0.1 1.66,-1.183 2.026,-1.901 0.996,-1.958 1.123,-3.073 2.866,-4.528 1.697,-1.417 2.389,-3.972 3.993,-5.295 1.776,-1.464 2.842,-1.855 3.354,-4.26 1.294,0.066 0.736,1.938 0.746,2.728 0.018,1.494 1.641,0.737 1.835,2.397 0.194,1.665 1.3308,3.84195 0.021,5.13038 -2.7954,2.74974 -1.2433,0.35281 -1.9658,-0.34172 -0.9165,-0.88098 -1.4812,0.36588 -1.638,1.60494 -0.069,0.54271 -0.045,0.59408 0.038,1.1714 0.089,0.618 0.2715,1.78852 0.4091,2.44905 0.4514,2.1667 1.9657,1.11957 1.3802,2.09954 -0.6415,1.07364 -2.7583,0.34381 -3.5753,1.31681 1.8818,1.04769 -1.2014,6.87141 -1.4368,9.90673 0.027,0.74329 -0.7802,1.45987 -2.5032,1.05587 -2.12,-0.497 -4.312,-0.697 -6.464,-1.016 -2.257,-0.334 -4.513,-0.665 -6.777,-0.947 -1.663,-0.208 -2.8437,-0.26047 -3.0793,-0.43146 -1.8016,-1.30751 -2.9415,-2.84882 -4.2741,-4.59791 -0.7987,-1.04836 -2.4825,-2.99442 -3.4004,-4.27966 -0.8657,-1.21207 -1.1424,-2.25742 -1.2445,-2.74915"
         id="path2784"
         style="fill:#4d4d4d;fill-opacity:1;stroke-width:0.32253849;stroke-miterlimit:10;stroke-dasharray:none"
         sodipodi:nodetypes="cccssssssccsssscssssssssccssssssc" />
    </g>
  </g>
</svg>
