<?xml version="1.0" encoding="UTF-8" standalone="no"?>
<!-- Created with Inkscape (http://www.inkscape.org/) -->

<svg
   xmlns:dc="http://purl.org/dc/elements/1.1/"
   xmlns:cc="http://creativecommons.org/ns#"
   xmlns:rdf="http://www.w3.org/1999/02/22-rdf-syntax-ns#"
   xmlns:svg="http://www.w3.org/2000/svg"
   xmlns="http://www.w3.org/2000/svg"
   xmlns:sodipodi="http://sodipodi.sourceforge.net/DTD/sodipodi-0.dtd"
   xmlns:inkscape="http://www.inkscape.org/namespaces/inkscape"
   width="300"
   height="300"
   id="svg4089"
   version="1.1"
   inkscape:version="0.48.4 r9939"
   sodipodi:docname="mapsvgregioneight.svg">
  <defs
     id="defs4091" />
  <sodipodi:namedview
     id="base"
     pagecolor="#ffffff"
     bordercolor="#666666"
     borderopacity="1.0"
     inkscape:pageopacity="0.0"
     inkscape:pageshadow="2"
     inkscape:zoom="0.7"
     inkscape:cx="-21.308171"
     inkscape:cy="54.394634"
     inkscape:document-units="px"
     inkscape:current-layer="layer1"
     showgrid="false"
     inkscape:window-width="1440"
     inkscape:window-height="838"
     inkscape:window-x="-8"
     inkscape:window-y="-8"
     inkscape:window-maximized="1" />
  <metadata
     id="metadata4094">
    <rdf:RDF>
      <cc:Work
         rdf:about="">
        <dc:format>image/svg+xml</dc:format>
        <dc:type
           rdf:resource="http://purl.org/dc/dcmitype/StillImage" />
        <dc:title></dc:title>
      </cc:Work>
    </rdf:RDF>
  </metadata>
  <g
     inkscape:label="Layer 1"
     inkscape:groupmode="layer"
     id="layer1"
     transform="translate(0,-752.36218)">
    <path
       inkscape:connector-curvature="0"
       style="fill:#d3d3d3;fill-opacity:1;stroke:#ffffff;stroke-width:0.75;stroke-miterlimit:4;stroke-opacity:1;stroke-dasharray:none"
       d="m 137.21228,795.0061 -2.28125,0.5625 -5.375,3.875 -2.1875,0.8125 -1.8125,2.0625 1.59375,1.125 2.0625,-0.90625 3.3125,-1.9375 5.15625,-5.15625 -0.46875,-0.4375 z m 11.125,14.21875 -4.6875,0.5 -4.34375,2.40625 -2.28125,2.28125 -1.28125,1.75 -1.78125,0.8125 -1.9375,2.90625 -0.15625,1.3125 -4.375,2.09375 -2.40625,1.9375 -6.00001,0.96875 -0.65625,0.65625 0,0.96875 -3.53125,2.25 -2.75,0.8125 -0.71875,0.59375 3.71875,5.125 7.87501,1.15625 8.25,2.1875 2.84375,1.03125 12.125,2.71875 2.0625,2.28125 3.53125,1.375 1.9375,10.3125 1.375,1.03125 1.1875,1.03125 3.15625,-7 0.96875,-4.0625 1.96875,-4.34375 0.78125,-0.1875 1.15625,1.625 0.625,0 4.53125,-2.40625 1.46875,1.59375 0.46875,0.15625 1.3125,-1.125 1.125,-3.0625 2.40625,-0.8125 6.96875,-0.65625 1.9375,-2.5625 5.15625,-0.1875 5.84375,1.3125 1.78125,0 3.21875,-1.46875 2.25,0.15625 2.125,-0.625 3.71875,0.46875 0.8125,0.34375 1.28125,-0.34375 -1.28125,-0.96875 -1.3125,-0.625 -3.21875,-3.09375 0,-6.9375 -1.46875,-0.5 -1.125,1.15625 -6.15625,1.59375 -1.9375,0.5 -2.90625,-0.8125 -0.46875,-0.3125 0,-5.65625 -1.46875,-0.1875 -2.59375,1.3125 -4.5,1.9375 -6.65625,0.3125 -3.375,1.125 -4.0625,3.5625 -1.59375,0.96875 -1.15625,0 -1.28125,0.8125 -1.625,-0.46875 -1.59375,-1.3125 -1.46875,0.96875 -3.875,0.15625 -2.75,-2.75 -1.46875,-3.0625 -1.4375,-1.125 -3.25,-0.96875 -2.25,0 -1.28125,-1.28125 -3.5625,2.90625 -0.96875,1.125 -0.8125,-0.5 0.3125,-2.5625 2.4375,-3.25 0.46875,-2.4375 2.28125,-0.78125 1.4375,-3.09375 3.71875,-0.96875 0.34375,-0.96875 -1.15625,-1.125 z m 66.53125,23.1875 -2.1875,0.25 -1.59375,0.15625 -0.34375,1.125 0.96875,0.5 0.65625,2.5 3.25,0.15625 1.28125,-1.1875 c 0,0 -0.0829,-1.46333 -0.40625,-1.625 -0.32333,-0.16166 -1.625,-1.875 -1.625,-1.875 z m -16.25,9.3125 -2.90625,1.78125 -2.90625,2.25 0.3125,3.5625 0.96875,0.3125 2.125,0.5 0.46875,0.8125 -2.59375,0.8125 -2.5625,0.3125 -1.46875,1.78125 -0.3125,2.09375 0.3125,1.625 0.3125,5.5 -3.53125,2.09375 -0.65625,-0.15625 0,-4.21875 1.28125,-2.40625 0.65625,-2.4375 -0.8125,-0.8125 -1.9375,0.8125 -0.96875,4.21875 -2.75,1.125 -1.78125,1.9375 -0.15625,0.96875 0.65625,0.8125 -0.65625,2.59375 -2.25,0.46875 0,1.125 0.78125,2.4375 -1.125,6.125 -1.59375,4.0625 0.625,4.6875 0.5,1.125 -0.8125,2.4375 -0.3125,0.78125 -0.34375,2.75 3.5625,6 2.90625,6.46875 1.46875,4.84375 -0.8125,4.6875 -0.96875,5.96875 -2.4375,5.1875 -0.3125,2.75 -3.25,3.09375 4.40625,-0.1875 21.40625,-2.25 7.28125,-1 0.0937,1.6875 6.84375,-1.21875 10.3125,-1.5 3.84375,-0.46875 0.15625,-0.59375 0.15625,-1.4375 2.09375,-3.71875 2,-1.75 -0.21875,-5.0625 1.59375,-1.59375 1.09375,-0.34375 0.21875,-3.53125 1.53125,-3.03125 1.0625,0.59375 0.15625,0.65625 0.8125,0.15625 1.9375,-0.96875 -0.3125,-9.53125 -3.25,-8.25 -2.25,-9.0625 -2.4375,-3.21875 -2.59375,-1.78125 -1.59375,1.125 -3.90625,1.78125 -1.9375,5 -2.75,3.71875 -1.125,0.65625 -1.4375,-0.65625 c 0,0 -2.59916,-1.44711 -2.4375,-2.09375 0.16166,-0.64664 0.5,-5 0.5,-5 l 3.375,-1.3125 0.8125,-3.375 0.65625,-2.59375 2.40625,-1.625 -0.3125,-10.03125 -1.625,-2.25 -1.28125,-0.8125 -0.8125,-2.09375 0.8125,-0.8125 1.625,0.3125 0.15625,-1.625 -2.4375,-2.25 -1.28125,-2.59375 -2.59375,0 -4.53125,-1.4375 -5.5,-3.40625 -2.75,0 -0.625,0.65625 -0.96875,-0.5 -3.09375,-2.25 z"
       id="MI" />
    <path
       inkscape:connector-curvature="0"
       style="fill:#d3d3d3;fill-opacity:1;stroke:#ffffff;stroke-width:0.75;stroke-miterlimit:4;stroke-opacity:1;stroke-dasharray:none"
       id="OH"
       d="m 279.256,913.58442 -6.09354,4.05335 -3.87985,2.26325 -3.39487,3.71819 -4.04151,3.87985 -3.23321,0.8083 -2.90989,0.48498 -5.49646,2.58657 -2.10158,0.16166 -3.39487,-3.07155 -5.17314,0.64665 -2.58656,-1.45495 -2.38107,-1.35083 -4.89257,0.70341 -10.18462,1.61661 -11.20687,2.18473 1.29329,14.63028 1.77827,13.74117 2.58656,23.4408 0.56582,4.8312 4.12235,-0.129 2.42491,-0.8084 3.3638,1.5032 2.07049,4.3648 5.13894,-0.017 1.89174,2.1187 1.76117,-0.065 2.53839,-1.3415 2.50417,0.3716 5.42128,0.4826 1.72697,-2.1327 2.34565,-1.2932 2.07049,-0.6809 0.64664,2.7483 1.77828,0.9699 3.47569,2.3441 2.18242,-0.081 1.33312,-0.4925 0.18471,-2.7615 1.58536,-1.455 0.0992,-4.7927 c 0,0 1.02396,-4.1091 1.02396,-4.1091 l 1.29927,-0.6012 1.32135,1.1477 0.53815,1.697 1.71913,-1.0374 0.43898,-1.4607 -1.11669,-1.9031 0.0663,-2.3144 0.749,-1.0723 2.15276,-3.30653 1.05022,-1.54334 2.10159,0.48498 2.26325,-1.61661 3.07155,-3.39487 2.77149,-4.07873 0.32033,-5.05551 0.48498,-5.01149 -0.17678,-5.30688 -0.95484,-2.89478 0.35124,-1.18978 1.80439,-1.75011 -2.28879,-9.04733 -2.90989,-19.36177 z"
       sodipodi:nodetypes="cccccccccccccccccccccccccccccccccccccccccccccccccccccccccccccccc" />
    <path
       inkscape:connector-curvature="0"
       style="fill:#d3d3d3;fill-opacity:1;stroke:#ffffff;stroke-width:0.75;stroke-miterlimit:4;stroke-opacity:1;stroke-dasharray:none"
       id="IN"
       d="m 163.50057,1020.2274 0.0653,-2.8585 0.48499,-4.5266 2.26324,-2.9098 1.77828,-3.8799 2.58656,-4.2032 -0.48498,-5.81981 -1.77826,-2.7482 -0.32332,-3.2332 0.8083,-5.4965 -0.48498,-6.9514 -1.2933,-16.0044 -1.29328,-15.35776 -0.97047,-11.72002 3.07106,0.88951 1.45495,0.96996 1.13162,-0.32332 2.10159,-1.93992 2.82957,-1.61699 5.0928,-0.16204 21.98587,-2.26326 5.57573,-0.53316 1.50314,15.95621 4.25135,36.84159 0.59846,5.7716 -0.3715,2.2632 1.22798,1.7954 0.0964,1.3725 -2.52129,1.5995 -3.53943,1.5514 -3.20213,0.5502 -0.59846,4.86701 -4.57469,3.3124 -2.79642,4.0105 0.32332,2.3767 -0.58134,1.5342 -3.32647,0 -1.58553,-1.6166 -2.49331,1.2622 -2.68296,1.5031 0.16167,3.0545 -1.19379,0.258 -0.46788,-1.0181 -2.16688,-1.5032 -3.25032,1.3415 -1.55131,3.0063 -1.43784,-0.8083 -1.45495,-1.5995 -4.46434,0.485 -5.59283,0.9699 -2.90989,1.5513 z" />
    <path
       inkscape:connector-curvature="0"
       style="fill:#d3d3d3;fill-opacity:1;stroke:#ffffff;stroke-width:0.75;stroke-miterlimit:4;stroke-opacity:1;stroke-dasharray:none"
       id="IL"
       d="m 163.47248,1020.5986 0.0312,-3.2298 0.56739,-4.6459 2.33253,-2.9159 1.86665,-4.0757 2.23302,-3.9954 -0.3715,-5.25241 -2.00521,-3.5425 -0.0964,-3.3467 0.69483,-5.2695 -0.82541,-7.1784 -1.06634,-15.77745 -1.29328,-15.01734 -0.92228,-11.6392 -0.27251,-0.92139 -0.8083,-2.58657 -1.29328,-3.71819 -1.61661,-1.77827 -1.45494,-2.58656 -0.23357,-5.48896 -45.79644,2.59825 0.22862,2.37195 2.28623,0.68587 0.91448,1.14311 0.45725,1.82898 3.88658,3.42934 0.68589,2.28623 -0.68589,3.42934 -1.82898,3.65796 -0.68586,2.51484 -2.28623,1.82899 -1.82898,0.68587 -5.25832,1.37173 -0.68587,1.82898 -0.68587,2.05761 0.68587,1.37174 1.82898,1.60036 -0.22862,4.1152 -1.82899,1.60036 -0.68586,1.60036 0,2.74347 -1.82898,0.45724 -1.60036,1.14312 -0.22862,1.37174 0.22862,2.0576 -1.71466,1.31457 -1.0288,2.80064 0.45724,3.65798 2.28622,7.3159 7.31593,7.5446 5.48693,3.6579 -0.22862,4.3438 0.9145,1.37184 6.40144,0.4572 2.74347,1.37177 -0.68586,3.6579 -2.28623,5.9442 -0.68587,3.2007 2.28622,3.8866 6.40144,5.2583 4.57246,0.6859 2.05759,5.0297 2.05761,3.2007 -0.91449,2.9721 1.60036,4.1152 1.82898,2.0576 1.41403,-0.8807 0.90766,-2.0748 2.21308,-1.7472 2.13147,-0.6144 2.60253,1.1798 3.62699,1.3757 1.18895,-0.2982 0.19987,-2.2584 -1.2873,-2.4118 0.30422,-2.3767 1.8384,-1.3475 3.02254,-0.8103 1.2609,-0.4585 -0.61261,-1.3869 -0.79137,-2.3544 1.4326,-0.9809 1.15747,-3.214 z"
       sodipodi:nodetypes="ccccccccccccccccccccccccccccccccccccccccccccccccccccccccccccccccccccccccccccccccccc" />
    <path
       inkscape:connector-curvature="0"
       style="fill:#d3d3d3;fill-opacity:1;stroke:#ffffff;stroke-width:0.75;stroke-miterlimit:4;stroke-opacity:1;stroke-dasharray:none"
       id="WI"
       d="m 158.99692,917.62476 -0.0667,-3.15742 -1.17911,-4.5265 -0.64664,-6.14309 -1.13162,-2.42491 0.96996,-3.07155 0.8083,-2.90989 1.45495,-2.58656 -0.64665,-3.39487 -0.64664,-3.55653 0.48498,-1.77827 1.93993,-2.42491 0.16166,-2.74823 -0.8083,-1.29328 0.64664,-2.58657 -0.45252,-4.17071 2.74823,-5.65811 2.90989,-6.78974 0.16166,-2.26325 -0.32332,-0.96996 -0.80831,0.48498 -4.20317,6.30476 -2.74823,4.04151 -1.93992,1.77827 -0.8083,2.26324 -1.95495,0.8083 -1.13162,1.93993 -1.45495,-0.32332 -0.16166,-1.77827 1.29329,-2.4249 2.10158,-4.68816 1.77827,-1.6166 0.99083,-2.35785 -2.56045,-1.90134 -1.97482,-10.36699 -3.54747,-1.34198 -1.94626,-2.30833 -12.12971,-2.72164 -2.87589,-1.01205 -8.21312,-2.16729 -7.91793,-1.15875 -3.76516,-5.13067 -0.7504,0.55401 -1.19791,-0.16166 -0.64665,-1.13162 -1.33401,0.29655 -1.13163,0.16166 -1.77826,0.96996 -0.96997,-0.64664 0.64665,-1.93993 1.93992,-3.07155 1.13162,-1.13162 -1.93992,-1.45494 -2.10159,0.8083 -2.90988,1.93992 -7.436383,3.23321 -2.90989,0.64664 -2.90988,-0.48498 -0.98173,-0.87825 -2.1167,2.83518 -0.22862,2.74347 0,8.45903 -1.14312,1.60037 -5.25832,3.88657 -2.28622,5.94419 0.45724,0.22862 2.51485,2.05761 0.68586,3.20072 -1.82898,3.20071 0,3.88659 0.45725,6.63005 2.97209,2.9721 3.42935,0 1.82898,3.20072 3.42933,0.45724 3.88659,5.71557 7.087303,4.11521 2.0576,2.74347 0.91449,7.43024 0.68586,3.31502 2.28623,1.60036 0.22862,1.37174 -2.0576,3.42933 0.22862,3.20073 2.51485,3.88658 2.51485,1.14311 2.97209,0.45724 1.34234,1.38012 45.29837,-2.66945 z"
       sodipodi:nodetypes="ccccccccccccccccccccccccccccccccccccccccccccccccccccccccccccccccccccccccccccccccccccccccc" />
    <path
       inkscape:connector-curvature="0"
       style="fill:#d3d3d3;fill-opacity:1;stroke:#ffffff;stroke-width:0.75;stroke-miterlimit:4;stroke-opacity:1;stroke-dasharray:none"
       id="MN"
       d="m 19.168837,849.08049 -0.45725,-8.45904 -1.82898,-7.31592 -1.82898,-13.48873 -0.45725,-9.83078 -1.82898,-3.42934 -1.600363,-5.02969 0,-10.28802 0.685861,-3.88659 -1.820931,-5.45167 30.132423,0.0353 0.32332,-8.24468 0.64664,-0.16166 2.26325,0.48498 1.93992,0.8083 0.8083,5.49646 1.45495,6.1431 1.6166,1.6166 4.84982,0 0.32332,1.45494 6.30476,0.32333 0,2.10158 4.84981,0 0.32332,-1.29328 1.13162,-1.13163 2.26325,-0.64664 1.29328,0.96997 2.90989,0 3.87985,2.58656 5.3348,2.42491 2.42491,0.48498 0.48498,-0.96996 1.45494,-0.48498 0.48498,2.90989 2.58657,1.29328 0.48498,-0.48498 1.29329,0.16166 0,2.10158 2.58656,0.96997 3.07155,0 1.61661,-0.80831 3.233213,-3.2332 2.58655,-0.48499 0.80831,1.77827 0.48498,1.29328 0.96996,0 0.96996,-0.8083 8.89133,-0.32332 1.77826,3.07155 0.64665,0 0.71361,-1.08428 4.43992,-0.37067 -0.6121,2.27946 -3.93873,1.83713 -9.24578,4.06113 -4.77474,2.00689 -3.07155,2.58657 -2.4249,3.55653 -2.263243,3.87985 -1.77827,0.80831 -4.52649,5.01147 -1.29329,0.16166 -4.32778,2.75712 -2.46288,3.20511 -0.22862,3.19139 0.0944,8.04335 -1.37604,1.68875 -5.08154,3.75997 -2.23008,5.98241 2.87175,2.23371 0.67989,3.22698 -1.85524,3.23893 0.17079,3.74802 0.36886,6.7304 3.02825,3.00199 3.329,0 1.89111,3.1326 3.37917,0.50327 3.85916,5.67147 7.08729,4.11675 2.143153,2.87512 0.67115,6.43951 -81.211503,1.14479 -0.33792,-35.67685 -0.45724,-2.97209 -4.11521,-3.42934 -1.14312,-1.82898 0,-1.60037 2.0576,-1.60035 1.37174,-1.37174 0.22863,-3.20072 z"
       sodipodi:nodetypes="ccccccccccccccccccccccccccccccccccccccccccccccccccccccccccccccccccccccccccccccccccccccccccc" />
    <path
       inkscape:connector-curvature="0"
       id="labels"
       d="m 38.361407,846.12725 -3.06708,11.71332 1.48972,0 1.86946,-7.21494 3.21313,7.65309 3.21313,-7.62388 1.86946,7.18573 1.48972,0 -3.06708,-11.71332 -3.50523,8.38335 z m 11.59648,0.0292 0,11.68411 1.54814,0 0,-8.00362 8.32493,8.5294 0,-11.77174 -1.54814,0 0,8.09125 z m 73.843593,27.54527 -3.59288,8.38335 -3.4176,-7.94519 -1.60657,0 4.99496,11.59648 3.62209,-8.35414 3.62207,8.35414 4.99496,-11.59648 -1.60657,0 -3.38839,7.88677 z m 10.22359,0.40895 0,11.27516 1.51894,0 0,-11.27516 z m 70.71809,25.12084 -3.06708,11.71332 1.48973,0 1.89867,-7.21494 3.21313,7.65309 3.18392,-7.62388 1.86945,7.18573 1.51894,0 -3.09629,-11.71332 -3.47602,8.38335 z m 11.68411,0.46736 0,11.24596 1.51894,0 0,-11.24596 z m 26.02636,50.82589 c -1.71825,0 -3.18971,0.59137 -4.41075,1.75262 -1.22418,1.15966 -1.84025,2.55165 -1.84025,4.17707 0,1.68521 0.60575,3.11063 1.81104,4.29391 1.20688,1.18327 2.66329,1.78182 4.38154,1.78182 1.74501,0 3.21175,-0.57721 4.41076,-1.75261 1.199,-1.17541 1.78182,-2.6206 1.78182,-4.32312 0,-1.60812 -0.59787,-3.00796 -1.81103,-4.17707 -1.21474,-1.16912 -2.64578,-1.75262 -4.32313,-1.75262 z m 8.20809,0.37973 0,11.24596 1.54815,0 0,-5.4039 5.37469,0 0,5.4039 1.51893,0 0,-11.24596 -1.51893,0 0,4.32312 -5.37469,0 0,-4.32312 z m -8.35414,1.19762 c 1.30443,0 2.40701,0.434 3.30076,1.28526 0.8969,0.85125 1.34368,1.88244 1.34368,3.1255 0,1.19428 -0.43017,2.22929 -1.31447,3.09629 -0.87801,0.86857 -1.9139,1.31446 -3.1255,1.31446 -1.31859,0 -2.4497,-0.434 -3.35918,-1.28525 -0.90948,-0.85126 -1.34367,-1.89503 -1.34367,-3.1255 0,-1.21317 0.42858,-2.23087 1.31446,-3.09629 0.88273,-0.86542 1.94243,-1.31447 3.18392,-1.31447 z m -53.63007,10.48649 0,11.68412 1.51893,0 0,-7.97441 8.35414,8.50019 0,-11.77174 -1.54814,0 0,8.12046 z m -3.91418,0.43816 0,11.24596 1.51894,0 0,-11.24596 z m -47.61276,6.30942 0,11.27518 1.54815,0 0,-11.27518 z m 4.23549,0 0,11.27518 5.19943,0 0,-1.5482 -3.68049,0 0,-9.72698 z"
       style="fill:#333333;fill-opacity:1;stroke:none"
       inkscape:label=""
       sodipodi:nodetypes="ccccccccccccccccccccccccccccccccccccccccccccccccccccscscssscscccccccccccccscscssscscccccccccccccccccccccccccc" />
  </g>
</svg>
