<?xml version="1.0" encoding="UTF-8" standalone="no"?>
<svg
   xmlns:dc="http://purl.org/dc/elements/1.1/"
   xmlns:cc="http://creativecommons.org/ns#"
   xmlns:rdf="http://www.w3.org/1999/02/22-rdf-syntax-ns#"
   xmlns:svg="http://www.w3.org/2000/svg"
   xmlns="http://www.w3.org/2000/svg"
   xmlns:sodipodi="http://sodipodi.sourceforge.net/DTD/sodipodi-0.dtd"
   xmlns:inkscape="http://www.inkscape.org/namespaces/inkscape"
   width="300"
   height="300"
   id="svg2"
   sodipodi:version="0.32"
   inkscape:version="0.48.2 r9819"
   sodipodi:docname="usa-labels.svg"
   inkscape:output_extension="org.inkscape.output.svg.inkscape"
   version="1.1">
  <metadata
     id="metadata62">
    <rdf:RDF>
      <cc:Work
         rdf:about="">
        <dc:format>image/svg+xml</dc:format>
        <dc:type
           rdf:resource="http://purl.org/dc/dcmitype/StillImage" />
        <dc:title />
      </cc:Work>
    </rdf:RDF>
  </metadata>
  <defs
     id="defs60">
    <inkscape:perspective
       sodipodi:type="inkscape:persp3d"
       inkscape:vp_x="0 : 296.5 : 1"
       inkscape:vp_y="0 : 1000 : 0"
       inkscape:vp_z="959 : 296.5 : 1"
       inkscape:persp3d-origin="479.5 : 197.66667 : 1"
       id="perspective64" />
  </defs>
  <sodipodi:namedview
     inkscape:window-height="716"
     inkscape:window-width="1366"
     inkscape:pageshadow="2"
     inkscape:pageopacity="0.0"
     guidetolerance="10.0"
     gridtolerance="10.0"
     objecttolerance="10.0"
     borderopacity="1.0"
     bordercolor="#666666"
     pagecolor="#ffffff"
     id="base"
     showgrid="false"
     inkscape:zoom="1.8911032"
     inkscape:cx="753.98561"
     inkscape:cy="425.21094"
     inkscape:window-x="-8"
     inkscape:window-y="-8"
     inkscape:current-layer="svg2"
     showguides="true"
     inkscape:guide-bbox="true"
     inkscape:window-maximized="1" />
 <path
     style="fill:#d3d3d3;fill-opacity:1;stroke:#ffffff;stroke-opacity:1;stroke-width:0.75;stroke-miterlimit:4;stroke-dasharray:none"
     id="NH"
     d="M 880.79902,142.42476 L 881.66802,141.34826 L 882.75824,138.05724 L 880.21516,137.14377 L 879.73017,134.07221 L 875.85032,132.94059 L 875.527,130.19235 L 868.25225,106.75153 L 863.65083,92.208542 L 862.75375,92.203482 L 862.10711,93.820087 L 861.46047,93.335106 L 860.4905,92.365143 L 859.03556,94.305068 L 858.98709,99.337122 L 859.29874,105.00434 L 861.23866,107.75258 L 861.23866,111.7941 L 857.52046,116.85688 L 854.93389,117.98852 L 854.93389,119.12014 L 856.06552,120.89841 L 856.06552,129.46643 L 855.25721,138.6811 L 855.09555,143.53092 L 856.06552,144.82422 L 855.90386,149.35071 L 855.41887,151.12899 L 856.38768,151.83821 L 873.17535,147.41366 L 875.35022,146.81121 L 877.19379,144.03788 L 880.79902,142.42476 z"
     sodipodi:nodetypes="ccccccccccccccccccccccccccccccccc" />

 <path
     style="fill:#d3d3d3;fill-opacity:1;stroke:#ffffff;stroke-opacity:1;stroke-width:0.75;stroke-miterlimit:4;stroke-dasharray:none"
     id="VT"
     d="M 844.48416,154.05791 L 844.80086,148.71228 L 841.91015,137.92811 L 841.26351,137.60479 L 838.35361,136.3115 L 839.16191,133.40161 L 838.35361,131.30002 L 835.65356,126.66004 L 836.62353,122.78018 L 835.81522,117.60703 L 833.39031,111.14059 L 832.58474,106.21808 L 859.0041,99.48626 L 859.3128,105.00847 L 861.22906,107.7507 L 861.22906,111.79222 L 857.52191,116.85021 L 854.93534,117.99288 L 854.92429,119.11345 L 856.23426,120.63257 L 855.92333,128.73054 L 855.3139,137.9894 L 855.08595,143.54634 L 856.05591,144.83963 L 855.89425,149.41032 L 855.40927,151.10021 L 856.42345,151.82737 L 848.9859,153.33408 L 844.48416,154.05791 z"
     sodipodi:nodetypes="ccccccccccccccccccccccccccccc" />
  <path
     style="fill:#d3d3d3;fill-opacity:1;stroke:#ffffff;stroke-opacity:1;stroke-width:0.75;stroke-miterlimit:4;stroke-dasharray:none"
     id="ME"
     d="M 922.83976,78.830719 L 924.77969,80.932305 L 927.04294,84.650496 L 927.04294,86.590422 L 924.94135,91.278575 L 923.00142,91.925217 L 919.60655,94.996766 L 914.75674,100.49322 C 914.75674,100.49322 914.1101,100.49322 913.46346,100.49322 C 912.81682,100.49322 912.49349,98.391636 912.49349,98.391636 L 910.71523,98.553296 L 909.74527,100.00824 L 907.32036,101.46319 L 906.3504,102.91813 L 907.967,104.37307 L 907.48202,105.01972 L 906.99704,107.76794 L 905.05711,107.60628 L 905.05711,105.98968 L 904.73379,104.69639 L 903.27885,105.01972 L 901.50058,101.78651 L 899.399,103.07979 L 900.69228,104.53473 L 901.0156,105.66636 L 900.2073,106.95964 L 900.53062,110.03119 L 900.69228,111.64779 L 899.07568,114.23436 L 896.16579,114.71934 L 895.84247,117.62923 L 890.50767,120.70078 L 889.21439,121.18576 L 887.59778,119.73082 L 884.52623,123.28735 L 885.4962,126.52056 L 884.04125,127.81384 L 883.87959,132.17867 L 882.75631,138.43803 L 880.29406,137.28208 L 879.80907,134.21052 L 875.92922,133.07889 L 875.6059,130.33065 L 868.33115,106.88983 L 863.63257,92.250088 L 865.05311,92.131923 L 866.5669,92.541822 L 866.5669,89.955254 L 867.8752,85.458798 L 870.46177,80.770645 L 871.91672,76.729133 L 869.97679,74.304226 L 869.97679,68.322789 L 870.78509,67.352826 L 871.5934,64.604598 L 871.43174,63.149654 L 871.27007,58.29984 L 873.04834,53.450026 L 875.95823,44.5587 L 878.05981,40.355528 L 879.3531,40.355528 L 880.64638,40.517188 L 880.64638,41.648811 L 881.93967,43.912058 L 884.68789,44.5587 L 885.4962,43.750397 L 885.4962,42.780435 L 889.53771,39.870546 L 891.31597,38.092281 L 892.77092,38.253942 L 898.75235,40.678849 L 900.69228,41.648811 L 909.74527,71.555998 L 915.7267,71.555998 L 916.53501,73.495924 L 916.69667,78.345738 L 919.60655,80.608984 L 920.41486,80.608984 L 920.57652,80.124003 L 920.09154,78.99238 L 922.83976,78.830719 z M 901.90801,108.97825 L 903.44379,107.44247 L 904.81791,108.49327 L 905.38372,110.91819 L 903.68628,111.80732 L 901.90801,108.97825 z M 908.61694,103.07763 L 910.39521,104.93673 C 910.39521,104.93673 911.6885,105.01755 911.6885,104.69423 C 911.6885,104.37091 911.93099,102.67347 911.93099,102.67347 L 912.82013,101.86517 L 912.01182,100.08689 L 909.99106,100.81437 L 908.61694,103.07763 z"
     sodipodi:nodetypes="ccccccccsccccccccccccccccccccccccccccccccccccccccccccccccccccccccccccccccccccccccccccccccsccccc" />
  <path
     style="fill:#d3d3d3;fill-opacity:1;stroke:#ffffff;stroke-opacity:1;stroke-width:0.75;stroke-miterlimit:4;stroke-dasharray:none"
     id="RI"
     d="M 874.07001,178.89536 L 870.37422,163.93937 L 876.6435,162.09423 L 878.83463,164.02135 L 882.14112,168.342 L 884.82902,172.74409 L 881.82968,174.36888 L 880.5364,174.20722 L 879.40478,175.98549 L 876.97987,177.92541 L 874.07001,178.89536 z"
     sodipodi:nodetypes="ccccccccccc" />
  <path
     style="fill:#d3d3d3;fill-opacity:1;stroke:#ffffff;stroke-opacity:1;stroke-width:0.75;stroke-miterlimit:4;stroke-dasharray:none"
     id="NY"
     d="M 830.37944,188.7456 L 829.24781,187.77564 L 826.66123,187.61398 L 824.39799,185.67406 L 822.76738,179.54493 L 819.30892,179.63547 L 816.86521,176.92727 L 797.47989,181.30921 L 754.47811,190.0389 L 746.94846,191.26689 L 746.2103,184.79855 L 747.6384,183.67317 L 748.93168,182.54155 L 749.90165,180.92494 L 751.67991,179.79332 L 753.61984,178.01505 L 754.10482,176.39845 L 756.2064,173.65022 L 757.33803,172.68026 L 757.17637,171.71029 L 755.88308,168.63875 L 754.10482,168.47709 L 752.16489,162.33399 L 755.07478,160.55572 L 759.43961,159.10078 L 763.48113,157.80749 L 766.71434,157.32251 L 773.01909,157.16085 L 774.95902,158.45414 L 776.57562,158.6158 L 778.67721,157.32251 L 781.26378,156.19089 L 786.43691,155.70591 L 788.5385,153.92764 L 790.31676,150.69443 L 791.93337,148.75451 L 794.03495,148.75451 L 795.97488,147.62288 L 796.13654,145.35964 L 794.6816,143.25805 L 794.35828,141.80311 L 795.4899,139.70152 L 795.4899,138.24658 L 793.71163,138.24658 L 791.93337,137.43828 L 791.12507,136.30665 L 790.96341,133.72008 L 796.78318,128.22363 L 797.42982,127.41533 L 798.88477,124.50544 L 801.79466,119.97894 L 804.54289,116.26075 L 806.64447,113.83585 L 809.05957,112.01024 L 812.14093,110.7643 L 817.63738,109.47101 L 820.87059,109.63267 L 825.39709,108.17773 L 832.96228,106.10656 L 833.48207,111.08623 L 835.90699,117.55267 L 836.71529,122.72582 L 835.74533,126.60568 L 838.3319,131.13218 L 839.1402,133.23377 L 838.3319,136.14367 L 841.2418,137.43695 L 841.88844,137.76027 L 844.96,148.75321 L 844.42371,153.81288 L 843.93873,164.64415 L 844.74703,170.14062 L 845.55533,173.69716 L 847.01028,180.9719 L 847.01028,189.05494 L 845.87865,191.31819 L 847.71798,193.31098 L 848.51453,194.9894 L 846.57461,196.76767 L 846.89793,198.06095 L 848.19121,197.73763 L 849.64616,196.44435 L 851.9094,193.85778 L 853.04103,193.21114 L 854.65763,193.85778 L 856.92088,194.01944 L 864.84224,190.13959 L 867.75213,187.39136 L 869.04541,185.93642 L 873.24858,187.55302 L 869.85371,191.10955 L 865.97386,194.01944 L 858.8608,199.35423 L 856.27424,200.3242 L 850.45446,202.26412 L 846.41295,203.39575 L 845.23821,202.86282 L 844.99419,199.17429 L 845.47917,196.42605 L 845.31751,194.32447 L 842.504,192.62547 L 837.9775,191.6555 L 834.09764,190.52388 L 830.37944,188.7456 z" />
  <path
     style="fill:#d3d3d3;fill-opacity:1;stroke:#ffffff;stroke-opacity:1;stroke-width:0.75;stroke-miterlimit:4;stroke-dasharray:none"
     id="PA"
     d="M 825.1237,224.69205 L 826.43212,224.42105 L 828.76165,223.1678 L 829.97353,220.68473 L 831.59014,218.42148 L 834.82335,215.34992 L 834.82335,214.54162 L 832.39844,212.92502 L 828.8419,210.5001 L 827.87194,207.91353 L 825.1237,207.59021 L 824.96204,206.45858 L 824.15374,203.71035 L 826.417,202.57873 L 826.57866,200.15381 L 825.28536,198.86052 L 825.44702,197.24391 L 827.38696,194.17236 L 827.38696,191.1008 L 830.08459,188.45492 L 829.16431,187.77994 L 826.64023,187.58703 L 824.34574,185.64711 L 822.79582,179.53105 L 819.29124,179.63157 L 816.83601,176.92824 L 798.74502,181.12601 L 755.74324,189.8557 L 746.85189,191.31064 L 746.23122,184.78925 L 740.86869,189.8569 L 739.5754,190.34188 L 735.37311,193.35077 L 738.28387,212.48822 L 740.76553,222.21758 L 744.33733,241.47907 L 747.60664,240.84139 L 759.55022,239.33892 L 797.47685,231.67372 L 812.35306,228.8504 L 820.65341,227.22804 L 820.92052,226.98951 L 823.02212,225.37289 L 825.1237,224.69205 z"
     sodipodi:nodetypes="cccccccccccccccccccccccccccccccccccccccccccc" />
  <path
     style="fill:#d3d3d3;fill-opacity:1;stroke:#ffffff;stroke-opacity:1;stroke-width:0.75;stroke-miterlimit:4;stroke-dasharray:none"
     id="NJ"
     d="M 829.67942,188.46016 L 827.35687,191.19443 L 827.35687,194.26599 L 825.41693,197.33754 L 825.25527,198.95416 L 826.54857,200.24744 L 826.38691,202.67236 L 824.12365,203.80398 L 824.93195,206.55221 L 825.09361,207.68384 L 827.84185,208.00716 L 828.81181,210.59373 L 832.36835,213.01865 L 834.79326,214.63525 L 834.79326,215.44356 L 831.81005,218.14012 L 830.19344,220.40336 L 828.73849,223.1516 L 826.47524,224.44488 L 826.01279,226.04736 L 825.77029,227.25982 L 825.16106,229.86656 L 826.25333,232.11075 L 829.48654,235.02064 L 834.33635,237.28389 L 838.37786,237.93053 L 838.53952,239.38547 L 837.73122,240.35543 L 838.05454,243.10366 L 838.86284,243.10366 L 840.96443,240.67876 L 841.77273,235.82894 L 844.52096,231.78743 L 847.59251,225.32101 L 848.72413,219.82456 L 848.07749,218.69293 L 847.91583,209.31662 L 846.29922,205.92176 L 845.1676,206.73006 L 842.41937,207.05338 L 841.93439,206.5684 L 843.06602,205.59843 L 845.1676,203.65851 L 845.23066,202.56468 L 844.84627,199.13084 L 845.41964,196.3826 L 845.30217,194.41359 L 842.49463,192.66324 L 837.40249,191.48748 L 833.26505,190.10585 L 829.67942,188.46016 z"
     sodipodi:nodetypes="ccccccccccccccccccccccccccccccccccccccccccccccccccc" />
  <path
     style="fill:#d3d3d3;fill-opacity:1;stroke:#ffffff;stroke-opacity:1;stroke-linecap:butt;stroke-width:0.75;stroke-miterlimit:4;stroke-dasharray:none"
     id="DE"
     d="M 825.6261,228.2791 L 825.99441,226.13221 L 826.36948,224.44116 L 824.74648,224.83892 L 823.13102,225.30648 L 820.92476,227.07078 L 822.64488,232.11366 L 824.90814,237.77178 L 827.00972,247.47143 L 828.62634,253.77621 L 833.63782,253.61455 L 839.77994,252.43387 L 837.51571,245.0476 L 836.54574,245.53258 L 832.98921,243.10768 L 831.21095,238.41952 L 829.27102,234.86299 L 826.1239,231.99268 L 825.25974,229.89456 L 825.6261,228.2791 z"
     sodipodi:nodetypes="cccccccccccccccccccc" />
  <path
     style="fill:#d3d3d3;fill-opacity:1;stroke:#ffffff;stroke-opacity:1;stroke-width:0.75;stroke-miterlimit:4;stroke-dasharray:none"
     id="MD"
     d="M 839.79175,252.41476 L 833.7832,253.6186 L 828.6403,253.73606 L 826.79674,246.81373 L 824.87193,237.64441 L 822.29931,231.45596 L 821.01093,227.05763 L 813.50491,228.67999 L 798.6287,231.50331 L 761.17727,239.05421 L 762.30857,244.06587 L 763.27853,249.72398 L 763.60185,249.40066 L 765.70345,246.97576 L 767.96669,244.3581 L 770.3916,243.74254 L 771.84656,242.28759 L 773.62482,239.70102 L 774.9181,240.34767 L 777.82799,240.02434 L 780.41457,237.92276 L 782.42146,236.46949 L 784.26669,235.98451 L 785.91104,237.11446 L 788.82093,238.5694 L 790.76085,240.34767 L 791.97331,241.88345 L 796.09566,243.58088 L 796.09566,246.49077 L 801.59212,247.78406 L 802.73656,248.32604 L 804.14846,246.29772 L 807.03043,248.26788 L 805.75226,250.74981 L 804.98699,254.73547 L 803.20873,257.32204 L 803.20873,259.42363 L 803.85537,261.2019 L 808.91932,262.55759 L 813.23042,262.49587 L 816.30196,263.46584 L 818.40355,263.78916 L 819.37351,261.68757 L 817.91857,259.58599 L 817.91857,257.80772 L 815.49366,255.70613 L 813.39208,250.20968 L 814.68536,244.87488 L 814.5237,242.7733 L 813.23042,241.48001 C 813.23042,241.48001 814.68536,239.86341 814.68536,239.21677 C 814.68536,238.57012 815.17034,237.11518 815.17034,237.11518 L 817.11027,235.8219 L 819.05019,234.20529 L 819.53517,235.17526 L 818.08023,236.79186 L 816.78695,240.51005 L 817.11027,241.64167 L 818.88853,241.96499 L 819.37351,247.46145 L 817.27193,248.43141 L 817.59525,251.98794 L 818.08023,251.82628 L 819.21185,249.88636 L 820.82846,251.66462 L 819.21185,252.95791 L 818.88853,256.35278 L 821.4751,259.74765 L 825.35495,260.23263 L 826.97156,259.42433 L 830.20811,263.60726 L 831.56646,264.14356 L 838.22013,261.34661 L 840.22771,257.32274 L 839.79175,252.41476 z M 823.82217,261.44348 L 824.95379,263.94923 L 825.11545,265.7275 L 826.24708,267.5866 C 826.24708,267.5866 827.13622,266.69746 827.13622,266.37414 C 827.13622,266.05082 826.40875,263.30258 826.40875,263.30258 L 825.68127,260.95849 L 823.82217,261.44348 z"
     sodipodi:nodetypes="ccccccccccccccccccccccccccccccccccccccccccccccccccsccccccccccccccccccccccccccccsccc" />
  <path
     style="fill:#d3d3d3;fill-opacity:1;stroke:#ffffff;stroke-opacity:1;stroke-width:0.75;stroke-miterlimit:4;stroke-dasharray:none"
     id="VA"
     d="M 831.63885,266.06892 L 831.49494,264.12189 L 837.94837,261.57201 L 837.17796,264.78985 L 834.25801,268.56896 L 833.83992,273.15478 L 834.30167,276.54522 L 832.4737,281.52338 L 830.30943,283.43952 L 828.83909,278.79871 L 829.28498,273.3496 L 830.87198,269.16653 L 831.63885,266.06892 z M 834.97904,294.37028 L 776.80486,306.94571 L 739.37789,312.22478 L 732.69956,311.8496 L 730.11431,313.77598 L 722.77518,313.99667 L 714.39307,314.97434 L 703.47811,316.58896 L 713.94754,310.97776 L 713.93442,308.90283 L 715.45447,306.7567 L 726.00825,295.25527 L 729.95497,299.73273 L 733.73798,300.69671 L 736.28144,299.55639 L 738.51866,298.24523 L 741.05527,299.58875 L 744.96944,298.16099 L 746.84617,293.60465 L 749.44709,294.14467 L 752.30233,292.01342 L 754.1016,292.50702 L 756.92881,288.83045 L 757.27706,286.74734 L 756.3134,285.47177 L 757.31617,283.60514 L 762.59044,271.32799 L 763.20721,265.59291 L 764.4361,265.06937 L 766.61463,267.51224 L 770.55049,267.21107 L 772.4797,259.63744 L 775.27369,259.07658 L 776.32344,256.33551 L 778.90326,253.98863 L 781.67509,248.29344 L 781.76002,243.22589 L 791.58153,247.04871 C 792.26238,247.38913 792.41441,241.99956 792.41441,241.99956 L 796.06697,243.59789 L 796.1353,246.53605 L 801.91955,247.83554 L 804.0525,249.01174 L 805.71242,251.06743 L 805.05787,254.7161 L 803.11043,257.30708 L 803.22028,259.36615 L 803.80924,261.21906 L 808.78799,262.48749 L 813.23926,262.52737 L 816.30809,263.48601 L 818.2516,263.79531 L 818.96641,266.88377 L 822.15685,267.2863 L 823.02492,268.48632 L 822.58543,273.1764 L 823.96016,274.27895 L 823.48121,276.20934 L 824.71062,276.99911 L 824.48882,278.38371 L 821.79483,278.28877 L 821.88379,279.90429 L 824.16478,281.44716 L 824.28632,282.85906 L 826.05943,284.64444 L 826.55122,287.16857 L 823.99818,288.54988 L 825.5704,290.04418 L 831.37142,288.35835 L 834.97904,294.37028 z"
     sodipodi:nodetypes="ccccccccccccccccccccccccccccccccccccccccccccccccccccccccccccccccccccccccccccccccccc" />
  <path
     style="fill:#d3d3d3;fill-opacity:1;stroke:#ffffff;stroke-opacity:1;stroke-width:0.75;stroke-miterlimit:4;stroke-dasharray:none"
     id="WV"
     d="M 761.18551,238.96731 L 762.29752,243.91184 L 763.38096,249.94317 L 765.51125,247.36283 L 767.77449,244.29127 L 770.31287,243.67572 L 771.76782,242.22078 L 773.54609,239.63421 L 774.99107,240.28085 L 777.90096,239.95753 L 780.48754,237.85594 L 782.49443,236.40268 L 784.33966,235.91769 L 785.64358,236.93416 L 789.28683,238.75579 L 791.22676,240.53406 L 792.60088,241.82734 L 791.83916,247.38228 L 786.00425,244.84106 L 781.759,243.21904 L 781.65786,248.39747 L 778.91022,253.9342 L 776.38019,256.36086 L 775.1881,259.11025 L 772.54452,259.61035 L 771.64668,263.21223 L 770.60345,267.1619 L 766.63521,267.50264 L 764.31148,265.06376 L 763.24033,265.62317 L 762.60765,271.09287 L 761.25736,274.62737 L 756.29896,285.58234 L 757.19565,286.74304 L 756.98979,288.65158 L 754.1811,292.53605 L 752.3726,291.99176 L 749.40455,294.1515 L 746.86217,293.57929 L 744.86294,298.13486 C 744.86294,298.13486 741.60363,299.56508 740.94003,299.50258 C 740.77952,299.48746 738.47093,298.25348 738.47093,298.25348 L 736.13441,299.63285 L 733.72461,300.67725 L 729.97992,299.78813 L 728.85852,298.61985 L 726.6663,295.59649 L 723.52371,293.60837 L 721.81214,289.98513 L 717.52726,286.51694 L 716.88061,284.25369 L 714.29404,282.79874 L 713.48573,281.18214 L 713.24324,275.92816 L 715.42566,275.84733 L 717.3656,275.03903 L 717.52726,272.2908 L 719.14386,270.83585 L 719.30552,265.82437 L 720.27548,261.94451 L 721.56877,261.29787 L 722.86205,262.42949 L 723.34704,264.20776 L 725.12531,263.23779 L 725.61029,261.62119 L 724.47867,259.84292 L 724.47867,257.41801 L 725.44863,256.12472 L 727.71188,252.72985 L 729.00516,251.27491 L 731.10676,251.75989 L 733.37,250.14327 L 736.44155,246.7484 L 738.70481,242.86854 L 739.02813,237.21043 L 739.51311,232.19894 L 739.51311,227.51078 L 738.38149,224.43923 L 739.35145,222.98427 L 740.63493,221.69099 L 744.12618,241.51811 L 748.75719,240.76696 L 761.18551,238.96731 z"
     sodipodi:nodetypes="ccccccccccccccccccccccccccccccccccccccccscccccccccccccccccccccccccccccccccccccccccc" />
 <path
     style="fill:#d3d3d3;fill-opacity:1;stroke:#ffffff;stroke-opacity:1;stroke-width:0.75;stroke-miterlimit:4;stroke-dasharray:none"
     id="CT"
     d="M 874.06831,178.86288 L 870.39088,163.98407 L 865.67206,164.90438 L 844.44328,169.64747 L 845.44347,172.87314 L 846.89842,180.14788 L 847.0752,189.1148 L 845.85518,191.28967 L 847.77597,193.22201 L 852.0475,189.31637 L 855.60403,186.08316 L 857.54395,183.98157 L 858.35226,184.62821 L 861.10048,183.17327 L 866.27362,182.04165 L 874.06831,178.86288 z"
     sodipodi:nodetypes="cccccccccccccccc" />

 <path
     style="fill:#d3d3d3;fill-opacity:1;stroke:#ffffff;stroke-opacity:1;stroke-width:0.75;stroke-miterlimit:4;stroke-dasharray:none"
     id="DC"
     d="M 805.81945,250.84384 L 803.96117,249.01967 L 802.72854,248.33338 L 804.17155,246.31091 L 807.06064,248.25941 L 805.81945,250.84384 z"
     sodipodi:nodetypes="cccccc" />
  <path
     style="fill:#d3d3d3;fill-opacity:1;stroke:#ffffff;stroke-opacity:1;stroke-width:0.75;stroke-miterlimit:4;stroke-dasharray:none"
     id="MA"
     d="M 899.62349,173.25394 L 901.79541,172.56806 L 902.25267,170.85339 L 903.28147,170.9677 L 904.31027,173.25394 L 903.05285,173.71118 L 899.16625,173.8255 L 899.62349,173.25394 z M 890.24995,174.05412 L 892.53617,171.42495 L 894.13654,171.42495 L 895.96553,172.911 L 893.56499,173.9398 L 891.39307,174.9686 L 890.24995,174.05412 z M 855.45082,152.06593 L 873.09769,147.42525 L 875.36095,146.77861 L 877.27503,143.9829 L 881.0118,142.31959 L 883.90104,146.73243 L 881.47613,151.90557 L 881.15281,153.36051 L 883.09274,155.94708 L 884.22436,155.13878 L 886.00263,155.13878 L 888.26587,157.72534 L 892.14573,163.70678 L 895.70226,164.19176 L 897.9655,163.2218 L 899.74377,161.44353 L 898.93546,158.69531 L 896.83388,157.0787 L 895.37893,157.887 L 894.40897,156.59372 L 894.89395,156.10874 L 896.99554,155.94708 L 898.7738,156.75538 L 900.71373,159.18029 L 901.68369,162.09018 L 902.00701,164.51508 L 897.80384,165.97003 L 893.92399,167.90995 L 890.04414,172.43645 L 888.10421,173.89139 L 888.10421,172.92143 L 890.52912,171.46648 L 891.0141,169.68822 L 890.2058,166.61667 L 887.29591,168.07161 L 886.48761,169.52656 L 886.97259,171.7898 L 884.90626,172.79023 L 882.15906,168.2631 L 878.76418,163.89826 L 876.69368,162.08579 L 870.16041,163.96199 L 865.06808,165.01278 L 844.39292,169.60499 L 843.72516,164.83714 L 844.3718,154.24837 L 848.66107,153.35923 L 855.45082,152.06593 z"
     sodipodi:nodetypes="ccccccccccccccccccccccccccccccccccccccccccccccccccccccccccccccc" />

 <path
     inkscape:connector-curvature="0"
     id="labels"
     d="m 120.013,49.982869 -3.59286,8.383351 -3.4176,-7.945197 -1.60657,0 4.99496,11.596482 3.62207,-8.32493 3.62208,8.32493 4.99496,-11.596482 -1.57736,0 -3.4176,7.886776 -3.62208,-8.32493 z m 13.20305,0 -5.28706,11.684112 1.60656,0 1.28526,-2.891818 4.79048,0 1.31446,2.891818 1.60657,0 -5.31627,-11.684112 z m 0,3.505234 1.81104,4.001808 -3.62208,0 1.81104,-4.001808 z m 703.44197,8.266509 0,11.713322 1.54814,0 0,-8.003616 8.32493,8.529402 0,-11.771743 -1.51893,0 0,8.091247 -8.35414,-8.558612 z m 12.23911,0.467365 0,11.245957 1.51893,0 0,-5.403901 5.37469,0 0,5.403901 1.51894,0 0,-11.245957 -1.51894,0 0,4.323121 -5.37469,0 0,-4.323121 -1.51893,0 z m -29.12265,7.565462 0,1.518935 2.65813,0 0,9.727023 1.54815,0 0,-9.727023 2.68734,0 0,-1.518935 -6.89362,0 z m -11.18754,0.02921 5.1118,11.596482 5.22864,-11.596482 -1.63578,0 -3.56365,7.974407 -3.53444,-7.974407 -1.60657,0 z m 76.41409,5.754426 -3.06708,11.713322 1.48973,0 1.86946,-7.214939 3.21313,7.653093 3.21313,-7.623883 1.86946,7.185729 1.48972,0 -3.06708,-11.713322 -3.50523,8.38335 -3.50524,-8.38335 z m 11.56727,0.467364 0,11.245958 6.251,0 0,-1.518934 -4.73206,0 0,-3.884968 4.73206,0 0,-1.518934 -4.73206,0 0,-2.804187 4.73206,0 0,-1.518935 -6.251,0 z m -492.48532,8.558612 0,11.684112 1.51893,0 0,-8.003616 8.35414,8.529401 0,-11.771743 -1.54814,0 0,8.091248 -8.32493,-8.529402 z m 12.18069,0.438154 0,11.245958 2.74576,0 c 2.08017,0 3.64163,-0.556558 4.73207,-1.694196 1.09043,-1.137638 1.63577,-2.464302 1.63577,-3.943388 0,-1.466498 -0.52311,-2.770246 -1.57735,-3.914177 -1.05425,-1.143932 -2.65929,-1.694197 -4.8197,-1.694197 l -2.71655,0 z m -145.67167,1.109991 -3.06708,11.713323 1.48972,0 1.89867,-7.21494 3.21313,7.653094 3.18392,-7.623883 1.86946,7.185729 1.51893,0 -3.09629,-11.713323 -3.50523,8.383351 -3.50523,-8.383351 z m 147.1906,0.379734 0.78868,0 c 1.14865,0 2.06444,0.108205 2.74576,0.350523 0.67976,0.240745 1.26326,0.731098 1.75262,1.431304 0.48779,0.700205 0.73026,1.469826 0.73026,2.336822 0,0.689192 -0.16053,1.324342 -0.46737,1.898669 -0.30683,0.574326 -0.70758,1.052777 -1.22683,1.402093 -0.51925,0.349316 -1.0583,0.569559 -1.63577,0.671836 -0.57905,0.102278 -1.45579,0.146052 -2.59972,0.146052 l -0.0876,0 0,-8.237299 z m -136.17833,0.08763 0,1.518934 2.68735,0 0,9.727024 1.51893,0 0,-9.727024 2.68735,0 0,-1.518934 -6.89363,0 z M 91.5914,121.25595 c -1.718258,0 -3.186573,0.59138 -4.410753,1.75262 -1.22418,1.15966 -1.840247,2.55165 -1.840247,4.17707 0,1.68521 0.605739,3.10907 1.811037,4.29391 1.206872,1.18327 2.663284,1.78183 4.381542,1.78183 1.743434,0 3.213322,-0.60643 4.410752,-1.78183 1.197431,-1.1754 1.811038,-2.59139 1.811038,-4.29391 0,-1.60812 -0.597872,-3.00796 -1.811038,-4.17707 -1.213165,-1.16911 -2.674984,-1.75262 -4.352331,-1.75262 z m 8.41256,0.35053 0,11.27516 1.54815,0 0,-4.64443 0.32131,0 3.1255,4.64443 1.78183,0 -3.27156,-4.8489 c 1.04481,-0.23445 1.81511,-0.62015 2.30762,-1.19762 0.49408,-0.57748 0.73025,-1.26181 0.73025,-2.01551 0,-0.94096 -0.37605,-1.7034 -1.1392,-2.30761 -0.76472,-0.60265 -1.76471,-0.90552 -2.97945,-0.90552 l -2.42445,0 z m -8.529401,1.22683 c 1.306001,0 2.407015,0.40478 3.300761,1.25604 0.895319,0.85126 1.343673,1.91165 1.343673,3.15471 0,1.19429 -0.433305,2.22929 -1.314462,3.09629 -0.878011,0.86857 -1.943119,1.28525 -3.154711,1.28525 -1.318589,0 -2.422065,-0.40478 -3.329972,-1.25604 -0.907907,-0.85126 -1.372883,-1.89502 -1.372883,-3.1255 0,-1.21317 0.457795,-2.26008 1.343673,-3.1255 0.884305,-0.86542 1.942432,-1.28525 3.183921,-1.28525 z m 10.077551,0.14605 c 0.85597,0 1.4873,0.0391 1.92787,0.14605 0.44216,0.10857 0.78565,0.34051 1.05157,0.64263 0.26592,0.30368 0.40895,0.69164 0.40895,1.16841 0,1.36108 -1.11941,2.00429 -3.38839,1.95709 l 0,-3.91418 z m 392.87827,2.89182 -3.06708,11.71332 1.48972,0 1.86946,-7.21494 3.21313,7.65309 3.21313,-7.62388 1.86946,7.18573 1.48972,0 -3.06708,-11.71332 -3.50523,8.38335 -3.50523,-8.38335 z m 11.59648,0.0292 0,11.68411 1.54814,0 0,-8.00362 8.32493,8.5294 0,-11.77174 -1.54814,0 0,8.09125 -8.32493,-8.5294 z m 399.65505,4.67364 -3.06708,11.74254 1.51894,0 1.86946,-7.21494 3.21313,7.62388 3.21313,-7.59467 1.86945,7.18573 1.48973,0 -3.06708,-11.74254 -3.50523,8.38335 -3.53445,-8.38335 z m 15.9196,0.0584 -5.28706,11.68412 1.60657,0 1.31446,-2.89182 4.76128,0 1.31446,2.89182 1.60657,0 -5.31628,-11.68412 z m 0,3.50524 1.81104,4.00181 -3.62207,0 1.81103,-4.00181 z m -739.83797,9.49334 0,11.27517 1.51893,0 0,-11.27517 -1.51893,0 z m 4.03101,0 -0.0292,11.27517 2.77498,0 c 2.07858,0 3.64163,-0.58577 4.73206,-1.72341 1.09044,-1.13764 1.63578,-2.43509 1.63578,-3.91418 0,-1.46649 -0.52468,-2.77024 -1.57736,-3.91418 -1.05267,-1.14393 -2.65771,-1.7234 -4.81969,-1.7234 l -2.71656,0 z m 1.51894,1.51893 0.78868,0 c 1.15022,0 2.06444,0.10821 2.74576,0.35053 0.67976,0.24074 1.26326,0.70188 1.75262,1.40209 0.48936,0.7002 0.73026,1.49903 0.73026,2.36603 0,0.6892 -0.16211,1.32434 -0.46737,1.89867 -0.30683,0.57433 -0.70758,1.02357 -1.22683,1.37288 -0.51925,0.34932 -1.0583,0.56956 -1.63578,0.67184 -0.57904,0.10228 -1.45578,0.17526 -2.59971,0.17526 l -0.0876,0 0,-8.2373 z m 622.20818,2.59972 0,11.71332 1.54814,0 0,-8.00362 8.32493,8.50019 0,-11.77174 -1.51893,0 0,8.12046 -8.35414,-8.55861 z m 11.50885,0.43815 3.65128,6.13416 0,5.14101 1.54815,0 0,-5.17022 3.68049,-6.10495 -1.69419,0 -2.74577,4.55681 -2.74576,-4.55681 -1.6942,0 z m -411.77732,3.15471 c -0.92522,0 -1.71775,0.27907 -2.36603,0.8471 -0.64829,0.56803 -0.96394,1.26673 -0.96394,2.07393 0,0.33673 0.0604,0.64049 0.17526,0.93473 0.11487,0.29424 0.30638,0.60812 0.55499,0.90552 0.24861,0.29739 0.53643,0.5439 0.87631,0.75946 0.33988,0.21557 0.83112,0.43828 1.46052,0.70105 0.6294,0.2612 1.08179,0.50279 1.37288,0.70105 0.29109,0.19983 0.53514,0.45263 0.73026,0.75947 0.19668,0.3084 0.2921,0.62947 0.2921,0.93472 0,0.51139 -0.18365,0.92089 -0.555,1.25605 -0.37292,0.33515 -0.84193,0.49657 -1.40209,0.49657 -1.15809,0 -2.01034,-0.62729 -2.5705,-1.89867 l -1.54815,0.43816 c 0.38865,1.03064 0.94275,1.7915 1.66499,2.30761 0.72223,0.51453 1.56799,0.78868 2.51208,0.78868 0.96613,0 1.77234,-0.33386 2.45366,-0.99315 0.68133,-0.65929 1.02236,-1.45901 1.02236,-2.39525 0,-0.40124 -0.0478,-0.77887 -0.17526,-1.1392 -0.12588,-0.35875 -0.32457,-0.69822 -0.5842,-1.02236 -0.25805,-0.32256 -0.59034,-0.63802 -0.99315,-0.90551 -0.40439,-0.2675 -0.97196,-0.53713 -1.6942,-0.8471 -0.72224,-0.30998 -1.21997,-0.61354 -1.51893,-0.87631 -0.30054,-0.26277 -0.46737,-0.56407 -0.46737,-0.90552 0,-0.39337 0.18119,-0.71375 0.52579,-0.96394 0.34459,-0.25019 0.7898,-0.37973 1.34367,-0.37973 0.50509,0 0.90092,0.0945 1.16841,0.26289 0.26749,0.16993 0.54745,0.41645 0.87631,0.75947 l 1.25604,-0.99315 c -0.41855,-0.54129 -0.94638,-0.93327 -1.57735,-1.19762 -0.63097,-0.26593 -1.2558,-0.40895 -1.86946,-0.40895 z m 5.63758,0.35053 0,11.27516 2.74577,0 c 2.07858,0 3.67084,-0.58576 4.76127,-1.7234 1.09044,-1.13764 1.63578,-2.43509 1.63578,-3.91418 0,-1.4665 -0.55389,-2.77025 -1.60657,-3.91418 -1.05267,-1.14393 -2.65771,-1.7234 -4.81969,-1.7234 l -2.71656,0 z m 1.54815,1.51893 0.75946,0 c 1.15023,0 2.06445,0.1082 2.74577,0.35052 0.67975,0.24075 1.26326,0.70189 1.75262,1.4021 0.48936,0.7002 0.73025,1.49903 0.73025,2.36603 0,0.68919 -0.1329,1.32434 -0.43815,1.89867 -0.30683,0.57432 -0.73679,1.02356 -1.25604,1.37288 -0.51925,0.34932 -1.0583,0.56956 -1.63578,0.67184 -0.57904,0.10228 -1.42657,0.17526 -2.5705,0.17526 l -0.0876,0 0,-8.2373 z m 163.43152,0.23368 -3.59287,8.38335 -3.4176,-7.94519 -1.60657,0 4.99496,11.59648 3.62208,-8.35414 3.62207,8.35414 4.99496,-11.59648 -1.60657,0 -3.38839,7.88677 -3.62207,-8.32493 z m 10.22359,0.40895 0,11.27516 1.51894,0 0,-11.27516 -1.51894,0 z m 315.35419,19.86299 0,11.27516 1.54814,0 0,-4.64443 0.32132,0 3.15471,4.64443 1.75261,0 -3.27155,-4.81969 c 1.04481,-0.23445 1.81511,-0.64936 2.30762,-1.22683 0.49722,-0.57748 0.73025,-1.2326 0.73025,-1.9863 0,-0.94096 -0.37605,-1.73261 -1.1392,-2.33682 -0.76629,-0.60265 -1.73707,-0.90552 -2.95024,-0.90552 l -2.45366,0 z m 8.79229,0 0,11.27516 1.51894,0 0,-11.27516 -1.51894,0 z m -7.24415,1.37288 c 0.85441,0 1.48731,0.0682 1.92788,0.17526 0.44216,0.10857 0.81486,0.3113 1.08078,0.61342 0.26592,0.30368 0.37974,0.69164 0.37974,1.16841 0,1.36108 -1.12099,2.00429 -3.3884,1.95709 l 0,-3.91418 z m -613.50351,1.54814 -3.59287,8.41257 -3.4176,-7.9452 -1.60657,0 4.99496,11.59648 3.62208,-8.35414 3.62207,8.35414 4.99496,-11.59648 -1.60657,0 -3.38839,7.85756 -3.62207,-8.32493 z m 9.58097,0.43816 3.68049,6.10495 0,5.14101 1.51894,0 0,-5.14101 3.7097,-6.10495 -1.69419,0 -2.74577,4.5568 -2.77497,-4.5568 -1.6942,0 z m 357.7383,1.89867 -3.06708,11.71332 1.48973,0 1.89867,-7.21494 3.21313,7.65309 3.18392,-7.62388 1.86945,7.18573 1.51894,0 -3.09629,-11.71332 -3.47602,8.38335 -3.53445,-8.38335 z m 11.68411,0.46736 0,11.24596 1.51894,0 0,-11.24596 -1.51894,0 z m 215.98082,7.0981 c -1.71354,0 -3.19602,0.58665 -4.41076,1.75262 -1.21316,1.16596 -1.81103,2.56984 -1.81103,4.20628 0,1.6679 0.60348,3.08457 1.84024,4.2647 1.23677,1.18169 2.72732,1.78182 4.46918,1.78182 1.18641,0 2.31349,-0.2766 3.32997,-0.81788 l 0,-1.75262 c -1.11876,0.63255 -2.18475,0.96394 -3.18392,0.96394 -1.37838,0 -2.53418,-0.44501 -3.44681,-1.28525 -0.91578,-0.84025 -1.37289,-1.86985 -1.37289,-3.1255 0,-1.23048 0.44993,-2.28054 1.34368,-3.1255 0.89689,-0.84654 1.99633,-1.25605 3.30076,-1.25605 1.0212,0 2.14601,0.27839 3.35918,0.87631 l 0,-1.7234 c -1.17697,-0.49093 -2.31301,-0.75947 -3.4176,-0.75947 z m 4.5568,0.37973 0,1.51894 2.68735,0 0,9.72702 1.51893,0 0,-9.72702 2.68735,0 0,-1.51894 -6.89363,0 z m -102.67413,16.09487 -5.28707,11.68411 1.60657,0 1.28525,-2.89182 4.79049,0 1.31446,2.89182 1.60657,0 -5.31627,-11.68411 z m -11.45043,0.40894 0,11.27517 1.51893,0 0,-4.64443 c 1.68364,0.0189 2.94204,-0.30937 3.76813,-0.96394 0.82451,-0.65458 1.22683,-1.45833 1.22683,-2.42446 0,-0.9614 -0.38638,-1.73574 -1.16841,-2.33682 -0.78361,-0.60108 -1.81861,-0.90552 -3.09629,-0.90552 l -2.24919,0 z m 1.51893,1.34367 c 1.42086,0 2.35328,0.20028 2.77498,0.58421 0.41697,0.38393 0.61341,0.8197 0.61341,1.34367 0,0.69549 -0.26244,1.20266 -0.81789,1.51894 -0.55701,0.31627 -1.42028,0.48556 -2.5705,0.49657 l 0,-3.94339 z m 9.90229,1.75262 1.84024,4.00181 -3.62207,0 1.78183,-4.00181 z m -263.62278,0.40895 -5.28707,11.68411 1.60657,0 1.28525,-2.86261 4.79049,0 1.31446,2.86261 1.60657,0 -5.31627,-11.68411 z m -8.20809,0.43815 0,11.24596 1.51893,0 0,-11.24596 -1.51893,0 z m 8.20809,3.09629 1.81103,4.00181 -3.62207,0 1.81104,-4.00181 z m 331.01089,0.37973 0,11.71333 1.54815,0 0,-8.00362 8.32493,8.5294 0,-11.77174 -1.54815,0 0,8.09124 -8.32493,-8.55861 z m 14.7804,0.46737 0,8.50019 c 0,1.08413 -0.38726,1.63577 -1.19762,1.63577 -0.31627,0 -0.73275,-0.0914 -1.22683,-0.26289 l -0.75947,1.25604 c 0.63412,0.33516 1.28117,0.49658 1.92788,0.49658 1.86617,0 2.80419,-1.11538 2.80419,-3.35918 l 0,-8.26651 -1.54815,0 z m -450.83146,10.16517 0,11.71333 1.51893,0 0,-8.00362 8.35414,8.50019 0,-11.77174 -1.54814,0 0,8.12046 -8.32493,-8.55862 z m 12.03463,0.43816 0,11.27517 6.22179,0 0,-1.51894 -4.70285,0 0,-3.88496 4.70285,0 0,-1.51894 -4.70285,0 0,-2.80419 4.70285,0 0,-1.54814 -6.22179,0 z m -313.16341,5.25785 0,11.71332 1.51893,0 0,-8.00361 8.35414,8.5294 0,-11.77175 -1.54814,0 0,8.09125 -8.32493,-8.55861 z m 11.21675,0.46736 5.141,11.6257 5.19943,-11.6257 -1.63577,0 -3.56366,8.00362 -3.53444,-8.00362 -1.60656,0 z m 566.76706,2.62893 c -1.71825,0 -3.18971,0.59137 -4.41075,1.75262 -1.22418,1.15966 -1.84025,2.55165 -1.84025,4.17707 0,1.68521 0.60575,3.11063 1.81104,4.29391 1.20688,1.18327 2.66329,1.78182 4.38154,1.78182 1.74501,0 3.21175,-0.57721 4.41076,-1.75261 1.199,-1.17541 1.78182,-2.6206 1.78182,-4.32312 0,-1.60812 -0.59787,-3.00796 -1.81103,-4.17707 -1.21474,-1.16912 -2.64578,-1.75262 -4.32313,-1.75262 z m 8.20809,0.37973 0,11.24596 1.54815,0 0,-5.4039 5.37469,0 0,5.4039 1.51893,0 0,-11.24596 -1.51893,0 0,4.32312 -5.37469,0 0,-4.32312 -1.54815,0 z m -8.35414,1.19762 c 1.30443,0 2.40701,0.434 3.30076,1.28526 0.8969,0.85125 1.34368,1.88244 1.34368,3.1255 0,1.19428 -0.43017,2.22929 -1.31447,3.09629 -0.87801,0.86857 -1.9139,1.31446 -3.1255,1.31446 -1.31859,0 -2.4497,-0.434 -3.35918,-1.28525 -0.90948,-0.85126 -1.34367,-1.89503 -1.34367,-3.1255 0,-1.21317 0.42858,-2.23087 1.31446,-3.09629 0.88273,-0.86542 1.94243,-1.31447 3.18392,-1.31447 z m 154.34712,5.22864 0,11.24596 2.74577,0 c 2.08016,0 3.64635,-0.55655 4.73207,-1.69419 1.09043,-1.13764 1.63577,-2.4643 1.63577,-3.94339 0,-1.4665 -0.52468,-2.77025 -1.57735,-3.91418 -1.0511,-1.14393 -2.65772,-1.6942 -4.8197,-1.6942 l -2.71656,0 z m 10.7786,0 0,11.24596 6.251,0 0,-1.51893 -4.73207,0 0,-3.88497 4.73207,0 0,-1.51893 -4.73207,0 0,-2.80419 4.73207,0 0,-1.51894 -6.251,0 z m -9.25966,1.48973 0.78868,0 c 1.14865,0 2.06601,0.1082 2.74576,0.35052 0.68133,0.24075 1.26326,0.7311 1.75262,1.43131 0.49093,0.7002 0.73026,1.46982 0.73026,2.33682 0,0.68919 -0.16211,1.32434 -0.46737,1.89867 -0.30525,0.57432 -0.70915,1.02513 -1.22683,1.37288 -0.51925,0.34932 -1.05988,0.59877 -1.63578,0.70105 -0.58061,0.10227 -1.45578,0.14605 -2.59971,0.14605 l -0.0876,0 0,-8.2373 z m -209.49613,3.76812 0,11.68412 1.51893,0 0,-7.97441 8.35414,8.50019 0,-11.77174 -1.54814,0 0,8.12046 -8.32493,-8.55862 z m -3.91418,0.43816 0,11.24596 1.51894,0 0,-11.24596 -1.51894,0 z m -47.61276,6.30942 0,11.27517 1.54815,0 0,-11.27517 -1.54815,0 z m 4.23549,0 0,11.27517 5.19943,0 0,-1.54815 -3.68049,0 0,-9.72702 -1.51894,0 z m -378.27313,3.91418 0,1.54814 2.68735,0 0,9.72703 1.51893,0 0,-9.72703 2.68735,0 0,-1.54814 -6.89363,0 z m -10.31122,0.0292 0,6.65994 c 0,1.63172 0.42277,2.87418 1.22683,3.70971 0.80563,0.83553 1.87565,1.25604 3.21313,1.25604 1.30915,0 2.33875,-0.43152 3.1255,-1.25604 0.78675,-0.82451 1.19762,-1.92238 1.19762,-3.30076 l 0,-7.06889 -1.54815,0 0,7.18573 c 0,0.93623 -0.26223,1.64703 -0.75946,2.16156 -0.4988,0.51453 -1.17861,0.78868 -2.07393,0.78868 -0.90319,0 -1.61063,-0.28851 -2.10314,-0.8471 -0.49251,-0.56016 -0.73026,-1.34169 -0.73026,-2.36603 l 0,-6.92284 -1.54814,0 z m 643.91141,9.9315 -3.06708,11.71332 1.48973,0 1.89867,-7.18573 3.21313,7.62388 3.18392,-7.59467 1.86946,7.15652 1.51893,0 -3.09629,-11.71332 -3.47602,8.38335 -3.53445,-8.38335 z m 11.71333,0.46736 0,11.24596 2.74576,0 c 2.08017,0 3.67084,-0.55656 4.76128,-1.6942 1.08728,-1.13764 1.63577,-2.43509 1.63577,-3.91418 0,-1.46649 -0.52468,-2.77024 -1.57735,-3.91417 -1.05267,-1.14393 -2.65772,-1.72341 -4.8197,-1.72341 l -2.74576,0 z m 1.54814,1.48972 0.75947,0 c 1.14865,0 2.06287,0.13742 2.74577,0.37974 0.6766,0.24075 1.28931,0.70189 1.78182,1.40209 0.48936,0.70021 0.73026,1.49904 0.73026,2.36603 0,0.6892 -0.16211,1.29514 -0.46737,1.86946 -0.30683,0.57433 -0.70758,1.05435 -1.22683,1.4021 -0.51768,0.34931 -1.08437,0.56955 -1.66498,0.67183 -0.58062,0.10228 -1.42658,0.14605 -2.57051,0.14605 l -0.0876,0 0,-8.2373 z m -131.271,3.09629 -3.62207,8.38336 -3.41761,-7.9452 -1.57735,0 4.99496,11.59648 3.62207,-8.32493 3.62208,8.32493 4.99495,-11.59648 -1.60656,0 -3.38839,7.88677 -3.62208,-8.32493 z m 9.28887,0.43816 5.14101,11.62569 5.22864,-11.62569 -1.63578,0 -3.59286,8.00362 -3.50523,-8.00362 -1.63578,0 z m -427.17114,0.70105 c -1.71353,0 -3.16522,0.58665 -4.38154,1.75261 -1.21632,1.16596 -1.84025,2.56984 -1.84025,4.20628 0,1.66791 0.63269,3.11379 1.86946,4.29391 1.23677,1.1817 2.72574,1.75262 4.46917,1.75262 1.18957,0 2.28271,-0.2766 3.30076,-0.81789 l 0,-1.75261 c -1.11875,0.63255 -2.15397,0.96394 -3.15471,0.96394 -1.37838,0 -2.53104,-0.4158 -3.44681,-1.25605 -0.91577,-0.84024 -1.37288,-1.89906 -1.37288,-3.15471 0,-1.23047 0.44835,-2.28053 1.34367,-3.1255 0.89532,-0.84653 1.99319,-1.25604 3.30076,-1.25604 1.01805,0 2.11681,0.27838 3.32997,0.87631 l 0,-1.72341 c -1.17697,-0.49093 -2.31615,-0.75946 -3.4176,-0.75946 z m 10.39886,0.0292 c -1.44944,0.12671 -2.69696,0.70732 -3.76812,1.72341 -1.22418,1.15966 -1.84025,2.55165 -1.84025,4.17707 0,1.68521 0.60416,3.10906 1.81104,4.29391 1.20687,1.18327 2.66328,1.78182 4.38154,1.78182 1.74343,0 3.21331,-0.57721 4.41075,-1.75261 1.19743,-1.17541 1.81104,-2.6206 1.81104,-4.32312 0,-1.60812 -0.62708,-2.97875 -1.84025,-4.14786 -1.21317,-1.16912 -2.64578,-1.75262 -4.32312,-1.75262 -0.21478,0 -0.43557,-0.0181 -0.64263,0 z m 0.52579,1.54814 c 1.306,0 2.40701,0.434 3.30076,1.28526 0.89532,0.85125 1.34367,1.91165 1.34367,3.15471 0,1.19428 -0.4333,2.20008 -1.31446,3.06708 -0.87801,0.86856 -1.94312,1.31446 -3.15471,1.31446 -1.3186,0 -2.42206,-0.434 -3.32997,-1.28525 -0.90792,-0.85126 -1.37289,-1.89503 -1.37289,-3.1255 0,-1.21317 0.4578,-2.23087 1.34368,-3.09629 0.8843,-0.86542 1.94243,-1.31447 3.18392,-1.31447 z m 465.20292,3.65129 -5.25785,11.71332 1.57736,0 1.31446,-2.89182 4.76127,0 1.31447,2.89182 1.60656,0 -5.31627,-11.71332 z m -14.80961,0.46736 5.14101,11.6257 5.19943,-11.6257 -1.63578,0 -3.56365,7.97441 -3.53445,-7.97441 -1.60656,0 z m 14.80961,3.06708 1.81104,4.00181 -3.62208,0 1.81104,-4.00181 z m -714.8924,1.4021 -5.25785,11.68411 1.606565,0 1.285253,-2.89182 4.761275,0 1.314463,2.89182 1.606566,0 -5.316272,-11.68411 z m -9.43492,0.0876 c -1.713538,0 -3.19444,0.55744 -4.410752,1.72341 -1.216313,1.16596 -1.811038,2.56984 -1.811038,4.20628 0,1.6679 0.60348,3.11379 1.840248,4.29391 1.236768,1.18169 2.725739,1.75262 4.469173,1.75262 1.189563,0 2.31192,-0.2474 3.329972,-0.78868 l 0,-1.78183 c -1.118756,0.63255 -2.183178,0.96394 -3.183921,0.96394 -1.378382,0 -2.531038,-0.4158 -3.446813,-1.25604 -0.915774,-0.84025 -1.372883,-1.89906 -1.372883,-3.15471 0,-1.23048 0.448354,-2.28054 1.343673,-3.1255 0.895319,-0.84654 1.993186,-1.25604 3.300762,-1.25604 1.018051,0 2.146017,0.30759 3.359182,0.90551 l 0,-1.75261 c -1.176975,-0.49093 -2.316156,-0.73026 -3.417603,-0.73026 z m 9.43492,3.44681 1.811038,4.00181 -3.592865,0 1.781827,-4.00181 z m 370.06504,2.86261 c -0.92521,0 -1.71775,0.27906 -2.36603,0.8471 -0.64828,0.56803 -0.96394,1.26673 -0.96394,2.07393 0,0.33673 0.0604,0.64048 0.17526,0.93473 0.11487,0.29424 0.27718,0.57891 0.52579,0.87631 0.24861,0.29739 0.53643,0.57311 0.8763,0.78867 0.33988,0.21557 0.83112,0.43828 1.46052,0.70105 0.62783,0.2612 1.08179,0.50279 1.37288,0.70105 0.28953,0.19983 0.53514,0.45263 0.73026,0.75946 0.19668,0.30841 0.2921,0.60027 0.2921,0.90552 0,0.51139 -0.18207,0.9501 -0.55499,1.28526 -0.37292,0.33515 -0.84036,0.49657 -1.4021,0.49657 -1.15652,0 -2.01034,-0.62729 -2.5705,-1.89867 l -1.54815,0.43816 c 0.39023,1.03064 0.97196,1.7915 1.6942,2.30761 0.72224,0.51453 1.53878,0.78868 2.48287,0.78868 0.96613,0 1.80155,-0.33386 2.48288,-0.99315 0.68132,-0.6593 1.02236,-1.45901 1.02236,-2.39525 0,-0.40124 -0.0786,-0.77887 -0.20447,-1.1392 -0.12588,-0.35876 -0.32458,-0.69822 -0.58421,-1.02236 -0.25963,-0.32256 -0.59034,-0.63802 -0.99315,-0.90552 -0.40281,-0.26749 -0.94118,-0.53712 -1.66499,-0.84709 -0.7238,-0.30998 -1.24761,-0.61354 -1.54814,-0.87631 -0.30053,-0.26277 -0.43815,-0.56407 -0.43815,-0.90552 0,-0.39337 0.15197,-0.71375 0.49657,-0.96394 0.34302,-0.25019 0.7898,-0.37973 1.34367,-0.37973 0.50509,0 0.90092,0.0945 1.16841,0.26289 0.2675,0.16993 0.57667,0.41645 0.90552,0.75947 l 1.22683,-0.99301 c -0.41855,-0.54129 -0.92031,-0.96248 -1.54814,-1.22684 -0.63097,-0.26592 -1.2558,-0.37973 -1.86946,-0.37973 z m -13.43673,0.35052 0,11.27517 1.54815,0 0,-5.49153 4.96575,5.49153 1.98629,0 -5.49153,-6.04653 5.43311,-5.22864 -2.13235,0 -4.76127,4.58602 0,-4.58602 -1.54815,0 z m 100.19126,3.82655 -3.06708,11.74253 1.48973,0 1.89867,-7.21494 3.21313,7.6531 3.18392,-7.62389 1.86946,7.18573 1.48972,0 -3.06708,-11.74253 -3.50523,8.38335 -3.50524,-8.38335 z m 17.46775,0.11684 c -1.7214,0 -3.18657,0.59138 -4.41075,1.75262 -1.22261,1.15966 -1.84025,2.55165 -1.84025,4.17707 0,1.68521 0.60416,3.11064 1.81104,4.29391 1.20687,1.18327 2.6925,1.78183 4.41075,1.78183 1.74344,0 3.21175,-0.57722 4.41075,-1.75262 1.19901,-1.1754 1.78183,-2.6206 1.78183,-4.32312 0,-1.60812 -0.59787,-3.00796 -1.81104,-4.17707 -1.21631,-1.16911 -2.67813,-1.75262 -4.35233,-1.75262 z m -0.11684,1.57736 c 1.30442,0 2.40387,0.43399 3.30076,1.28525 0.89689,0.85126 1.34368,1.88244 1.34368,3.1255 0,1.19428 -0.43174,2.22929 -1.31447,3.09629 -0.87958,0.86857 -1.94154,1.31446 -3.15471,1.31446 -1.31859,0 -2.42206,-0.43399 -3.32997,-1.28525 -0.90791,-0.85126 -1.37288,-1.89502 -1.37288,-3.1255 0,-1.21317 0.45779,-2.23087 1.34367,-3.09629 0.8843,-0.86542 1.94243,-1.31446 3.18392,-1.31446 z m 119.26558,3.91417 0,11.24596 1.51893,0 0,-5.49153 4.99496,5.49153 1.95709,0 -5.46233,-6.04653 5.43312,-5.19943 -2.16156,0 -4.76128,4.55681 0,-4.55681 -1.51893,0 z m 9.28886,0 3.6805,6.10495 0,5.14101 1.54814,0 0,-5.14101 3.6805,-6.10495 -1.6942,0 -2.74576,4.5276 -2.74577,-4.5276 -1.72341,0 z m 94.05711,27.07793 0,11.71333 1.54814,0 0,-8.00362 8.32493,8.50019 0,-11.77174 -1.54814,0 0,8.12046 -8.32493,-8.55862 z m 17.84748,0.0876 c -1.71511,0 -3.16681,0.5898 -4.38154,1.75262 -1.21474,1.16753 -1.84025,2.57142 -1.84025,4.20628 0,1.66948 0.63269,3.08457 1.86946,4.2647 1.23519,1.18327 2.72888,1.78182 4.46917,1.78182 1.18799,0 2.28428,-0.27503 3.30076,-0.81788 l 0,-1.75262 c -1.11876,0.63255 -2.18318,0.93473 -3.18392,0.93473 -1.37681,0 -2.53104,-0.41737 -3.44681,-1.25604 -0.91578,-0.83868 -1.37289,-1.89749 -1.37289,-3.15471 0,-1.23205 0.45151,-2.25133 1.34368,-3.09629 0.89689,-0.84654 2.0224,-1.28526 3.32997,-1.28526 1.01805,0 2.11681,0.30602 3.32997,0.90552 l 0,-1.75261 c -1.17697,-0.49251 -2.31458,-0.73026 -3.4176,-0.73026 z m -137.63884,15.24777 0,11.71332 1.54814,0 0,-8.00362 8.32493,8.5294 0,-11.77174 -1.54814,0 0,8.09125 -8.32493,-8.55843 z m -8.50019,0.43815 0,1.54814 2.65813,0 0,9.72703 1.54815,0 0,-9.72703 2.68734,0 0,-1.54814 -6.89362,0 z m -186.82896,15.39382 c -1.71825,0 -3.18657,0.59137 -4.41075,1.75261 -1.22418,1.15967 -1.84025,2.55323 -1.84025,4.17707 0,1.68522 0.60574,3.1075 1.81104,4.29392 1.20688,1.18327 2.66329,1.78182 4.38154,1.78182 1.74344,0 3.21332,-0.57721 4.41075,-1.75261 1.19744,-1.17541 1.81104,-2.6206 1.81104,-4.32313 0,-1.60496 -0.59787,-3.00638 -1.81104,-4.17707 -1.21316,-1.16753 -2.67498,-1.75261 -4.35233,-1.75261 z m 8.17888,0.35052 0,11.27517 1.51894,0 0,-5.49153 4.99495,5.49153 1.95709,0 -5.46232,-6.04653 5.43311,-5.22864 -2.16156,0 -4.76127,4.58601 0,-4.58601 -1.51894,0 z m -269.78615,1.1392 -5.25785,11.68411 1.57736,0 1.31446,-2.8626 4.76128,0 1.31446,2.8626 1.60656,0 -5.31627,-11.68411 z m 261.49043,0.0876 c 1.30601,0 2.40701,0.43399 3.30076,1.28525 0.89532,0.84969 1.34368,1.88244 1.34368,3.1255 0,1.19428 -0.43331,2.23087 -1.31447,3.09629 -0.87801,0.87014 -1.94311,1.31446 -3.15471,1.31446 -1.31859,0 -2.42049,-0.43399 -3.32997,-1.28525 -0.90791,-0.84812 -1.37288,-1.89502 -1.37288,-3.1255 0,-1.21002 0.45779,-2.26165 1.34367,-3.1255 0.8843,-0.867 1.94243,-1.28525 3.18392,-1.28525 z m -255.09338,0.35075 0,1.54815 5.08259,0 -5.34548,9.72702 7.76994,0 0,-1.54814 -5.28706,0 5.4039,-9.72703 -7.62389,0 z m -6.39705,3.09629 1.81104,4.00181 -3.62207,0 1.81103,-4.00181 z m 560.39923,7.36099 c -0.92679,0 -1.71775,0.2775 -2.36603,0.8471 -0.64828,0.56961 -0.96394,1.26673 -0.96394,2.07393 0,0.33673 0.062,0.63892 0.17526,0.93473 0.11959,0.29267 0.27403,0.6097 0.52579,0.90552 0.25176,0.29581 0.56564,0.54232 0.90551,0.75947 0.34145,0.21556 0.80348,0.43984 1.43131,0.70104 0.62783,0.2612 1.111,0.50121 1.40209,0.70105 0.29109,0.19984 0.53514,0.45263 0.73026,0.75947 0.19668,0.3084 0.2921,0.63104 0.2921,0.93473 0,0.51139 -0.18365,0.92088 -0.55499,1.25604 -0.37607,0.33515 -0.8435,0.49657 -1.4021,0.49657 -1.16124,0 -2.03955,-0.62728 -2.59971,-1.89867 l -1.51894,0.43816 c 0.38865,1.03064 0.94275,1.79308 1.66499,2.30761 0.72224,0.51453 1.56641,0.78868 2.51208,0.78868 0.96456,0 1.77234,-0.33543 2.45367,-0.99315 0.67975,-0.65929 1.02236,-1.45744 1.02236,-2.39524 0,-0.40125 -0.077,-0.77888 -0.20448,-1.13921 -0.12588,-0.35875 -0.29536,-0.69664 -0.55499,-1.02236 -0.25805,-0.32256 -0.59034,-0.63487 -0.99315,-0.90551 -0.40439,-0.2675 -0.97196,-0.53713 -1.6942,-0.8471 -0.7238,-0.30998 -1.25075,-0.61354 -1.54814,-0.87631 -0.29897,-0.26277 -0.43816,-0.56407 -0.43816,-0.90552 0,-0.39337 0.18119,-0.71218 0.52579,-0.96394 0.34145,-0.24861 0.7898,-0.37973 1.34367,-0.37973 0.50352,0 0.87171,0.0977 1.1392,0.26289 0.26749,0.16836 0.57667,0.41645 0.90552,0.75947 l 1.25604,-0.99315 c -0.41697,-0.54128 -0.94952,-0.93799 -1.57735,-1.19762 -0.63412,-0.26749 -1.2558,-0.40895 -1.86946,-0.40895 z m 11.27517,0 c -1.71354,0 -3.16681,0.58981 -4.38154,1.75262 -1.21317,1.16753 -1.81104,2.57142 -1.81104,4.20628 0,1.66948 0.60348,3.08458 1.84025,4.2647 1.23676,1.18327 2.72731,1.78183 4.46917,1.78183 1.18641,0 2.28428,-0.27504 3.30076,-0.81789 l 0,-1.75262 c -1.11876,0.63255 -2.15554,0.93473 -3.15471,0.93473 -1.37838,0 -2.53418,-0.41736 -3.44681,-1.25604 -0.91577,-0.83868 -1.37289,-1.89749 -1.37289,-3.15471 0,-1.23205 0.44836,-2.25132 1.34368,-3.09629 0.89689,-0.84654 1.99634,-1.28525 3.30076,-1.28525 1.0212,0 2.14602,0.30602 3.35918,0.90552 l 0,-1.75262 c -1.17697,-0.49251 -2.34221,-0.73026 -3.44681,-0.73026 z m -227.05151,1.31447 -5.28706,11.68411 1.60656,0 1.28526,-2.89182 4.79048,0 1.31447,2.89182 1.60656,0 -5.31627,-11.68411 z m 6.95205,0.40894 0,11.27517 1.54814,0 0,-4.64444 0.32131,0 3.15471,4.64444 1.75262,0 -3.27155,-4.8197 c 1.04795,-0.23603 1.8151,-0.64935 2.30761,-1.22683 0.49408,-0.57748 0.73026,-1.2326 0.73026,-1.9863 0,-0.94409 -0.37763,-1.7326 -1.1392,-2.33682 -0.76472,-0.60422 -1.73707,-0.90552 -2.95024,-0.90552 l -2.45366,0 z m 1.54814,1.37288 c 0.85756,0 1.48887,0.0682 1.92788,0.17526 0.44215,0.11015 0.81329,0.31289 1.08078,0.61342 0.26435,0.30368 0.37973,0.69164 0.37973,1.16841 0,1.36108 -1.11941,2.00272 -3.38839,1.95709 l 0,-3.91418 z m -246.21345,1.31447 -3.06708,11.74253 1.48972,0 1.86946,-7.21494 3.21313,7.62388 3.21313,-7.59467 1.86946,7.18573 1.48973,0 -3.06708,-11.74253 -3.50524,8.38335 -3.50523,-8.38335 z m -14.42988,0.0292 0,11.71332 1.54814,0 0,-8.00362 8.32493,8.5002 0,-11.77175 -1.51893,0 0,8.12046 -8.35414,-8.55861 z m 252.14314,0.37973 1.81104,4.00181 -3.62208,0 1.81104,-4.00181 z m 108.95435,26.78583 -5.28707,11.68411 1.60657,0 1.31446,-2.89182 4.76128,0 1.31446,2.89182 1.60657,0 -5.31627,-11.68411 z m 74.13569,0 -5.25785,11.68411 1.57735,0 1.31446,-2.89182 4.76128,0 1.31446,2.89182 1.60657,0 -5.31627,-11.68411 z m -12.56042,0.0584 c -1.68365,0 -3.13828,0.58823 -4.32313,1.75262 -1.18327,1.16281 -1.75261,2.58017 -1.75261,4.23549 0,1.57192 0.56688,2.95761 1.7234,4.17707 1.15495,1.2226 2.70117,1.84025 4.64444,1.84025 0.85441,0 1.60317,-0.10643 2.21998,-0.29211 0.61681,-0.19039 1.18369,-0.49572 1.72341,-0.93473 0.53971,-0.439 0.96268,-0.93271 1.28525,-1.48972 0.32256,-0.55544 0.54035,-1.05948 0.64263,-1.51894 0.10542,-0.45945 0.17526,-1.06765 0.17526,-1.84024 l -4.79049,0 0,1.51893 3.03787,0 c -0.57748,1.95743 -1.98854,2.95024 -4.23549,2.95024 -1.4964,0 -2.68319,-0.45307 -3.53444,-1.34367 -0.85284,-0.89217 -1.28526,-1.89462 -1.28526,-3.00866 0,-1.26981 0.43646,-2.33581 1.31447,-3.18392 0.87801,-0.84654 1.98216,-1.25604 3.30076,-1.25604 1.50741,0 2.85473,0.54308 4.00181,1.66498 l 1.1392,-1.10994 c -0.86542,-0.82766 -1.70892,-1.39681 -2.5413,-1.6942 -0.82608,-0.30368 -1.74502,-0.46736 -2.74576,-0.46736 z m -54.62323,0.35052 0,11.27517 5.19943,0 0,-1.51893 -3.68049,0 0,-9.75624 -1.51894,0 z m -6.95204,3.09629 1.81103,4.00181 -3.62207,0 1.81104,-4.00181 z m 74.13569,0 1.81103,4.00181 -3.62207,0 1.81104,-4.00181 z m -132.73152,3.91418 -3.06708,11.74253 1.48973,0 1.89867,-7.21494 3.21313,7.62389 3.18392,-7.59468 1.86946,7.18573 1.48972,0 -3.06708,-11.74253 -3.47602,8.38335 -3.53445,-8.38335 z m 15.13093,0.11684 c -0.92522,0 -1.71775,0.27749 -2.36603,0.8471 -0.64829,0.56961 -0.96394,1.26673 -0.96394,2.07393 0,0.33673 0.0588,0.63892 0.17526,0.93473 0.11644,0.29267 0.30323,0.6097 0.55499,0.90552 0.25176,0.29581 0.53486,0.54232 0.87631,0.75946 0.33988,0.21557 0.83269,0.43985 1.46052,0.70105 0.6294,0.2612 1.08021,0.50121 1.37288,0.70105 0.29109,0.19983 0.53514,0.45263 0.73026,0.75947 0.19668,0.3084 0.2921,0.63104 0.2921,0.93472 0,0.51139 -0.18523,0.92089 -0.555,1.25605 -0.37449,0.33515 -0.8435,0.49657 -1.40209,0.49657 -1.16124,0 -2.01034,-0.62729 -2.5705,-1.89867 l -1.54815,0.43816 c 0.38865,1.03064 0.94275,1.79308 1.66499,2.30761 0.72223,0.51453 1.56799,0.78868 2.51208,0.78868 0.96613,0 1.77077,-0.33543 2.45366,-0.99315 0.67818,-0.65929 1.02236,-1.45744 1.02236,-2.39525 0,-0.40124 -0.0494,-0.77887 -0.17526,-1.1392 -0.12745,-0.35875 -0.32615,-0.69664 -0.5842,-1.02236 -0.25963,-0.32256 -0.59034,-0.63487 -0.99315,-0.90551 -0.40282,-0.2675 -0.97196,-0.53713 -1.6942,-0.8471 -0.72381,-0.30998 -1.22154,-0.61354 -1.51893,-0.87631 -0.30054,-0.26277 -0.46737,-0.56407 -0.46737,-0.90552 0,-0.39337 0.18119,-0.71218 0.52579,-0.96394 0.34301,-0.24861 0.79138,-0.37973 1.34367,-0.37973 0.50667,0 0.89934,0.0977 1.16841,0.26289 0.26749,0.16836 0.54745,0.41645 0.87631,0.75947 l 1.25604,-0.99315 c -0.42012,-0.54129 -0.94952,-0.93799 -1.57735,-1.19762 -0.63255,-0.2675 -1.25265,-0.40895 -1.86946,-0.40895 z m -57.19373,29.44396 -5.25785,11.68412 1.60656,0 1.28526,-2.89182 4.76127,0 1.31446,2.89182 1.60657,0 -5.31627,-11.68412 z m -10.92465,0.40895 0,11.27517 5.17022,0 0,-1.51894 -3.65128,0 0,-9.75623 -1.51894,0 z m 10.92465,3.09629 1.81104,4.00181 -3.59287,0 1.78183,-4.00181 z m -129.63522,2.42445 0,1.51894 2.68734,0 0,9.72702 1.51894,0 0,-9.72702 2.68734,0 0,-1.51894 -6.89362,0 z m 8.17887,0 3.35919,5.52074 -3.47603,5.72522 1.6942,0 2.62892,-4.32312 2.59972,4.32312 1.6942,0 -3.44682,-5.72522 3.35918,-5.52074 -1.7234,0 -2.48288,4.08944 -2.51208,-4.08944 -1.6942,0 z m -319.56046,44.01989 -5.25785,11.68412 1.57735,0 1.31446,-2.89182 4.76128,0 1.31446,2.89182 1.60657,0 -5.31627,-11.68412 z m 6.71836,0.43816 0,11.24596 1.54815,0 0,-5.49154 4.96574,5.49154 1.9863,0 -5.49153,-6.01732 5.43311,-5.22864 -2.13235,0 -4.76127,4.5568 0,-4.5568 -1.54815,0 z m -6.71836,3.06708 1.81103,4.00181 -3.62207,0 1.81104,-4.00181 z m 652.20714,10.28202 0,11.27516 1.54814,0 0,-5.4039 4.70286,0 0,-1.51893 -4.70286,0 0,-2.80419 4.70286,0 0,-1.54814 -6.251,0 z m 8.26651,0 0,11.27516 5.19943,0 0,-1.51893 -3.65129,0 0,-9.75623 -1.54814,0 z m -480.53833,53.77612 0,11.24596 1.54815,0 0,-5.4039 5.37469,0 0,5.4039 1.51893,0 0,-11.24596 -1.51893,0 0,4.32312 -5.37469,0 0,-4.32312 -1.54815,0 z m 10.86623,0 0,11.24596 1.51893,0 0,-11.24596 -1.51893,0 z"
     style="fill:#000000;fill-opacity:1;stroke:none"
     inkscape:label="" />
  <path
     style="fill:none;stroke:#717171;stroke-width:1.50000000000000000;stroke-miterlimit:4;stroke-opacity:1;stroke-dasharray:none"
     d="M 849.46875 79.90625 L 868 124.15625 L 849.46875 79.90625 z M 826.53125 87.53125 L 845.4375 108.40625 L 826.53125 87.53125 z M 896.15625 143.375 L 875.65625 152.84375 L 896.15625 143.375 z M 878.0625 173.34375 L 900.21875 178.40625 L 878.0625 173.34375 z M 859.65625 175.375 L 878.59375 187.5625 L 859.65625 175.375 z M 839.90625 216.90625 L 851.78125 217.90625 L 839.90625 216.90625 z M 847.8125 242.90625 L 833.78125 244.71875 L 847.8125 242.90625 z M 805.625 243.78125 L 847.3125 267 L 805.625 243.78125 z "
     id="lines"
     inkscape:label="" />
</svg>
