<?xml version="1.0" encoding="UTF-8" standalone="no"?>
<!-- Created with Inkscape (http://www.inkscape.org/) -->

<svg
   xmlns:dc="http://purl.org/dc/elements/1.1/"
   xmlns:cc="http://creativecommons.org/ns#"
   xmlns:rdf="http://www.w3.org/1999/02/22-rdf-syntax-ns#"
   xmlns:svg="http://www.w3.org/2000/svg"
   xmlns="http://www.w3.org/2000/svg"
   xmlns:sodipodi="http://sodipodi.sourceforge.net/DTD/sodipodi-0.dtd"
   xmlns:inkscape="http://www.inkscape.org/namespaces/inkscape"
   width="350"
   height="300"
   id="svg4089"
   version="1.1"
   inkscape:version="0.48.4 r9939"
   sodipodi:docname="mapsvgregionthree.svg">
  <defs
     id="defs4091" />
  <sodipodi:namedview
     id="base"
     pagecolor="#ffffff"
     bordercolor="#666666"
     borderopacity="1.0"
     inkscape:pageopacity="0.0"
     inkscape:pageshadow="2"
     inkscape:zoom="0.98994949"
     inkscape:cx="76.593777"
     inkscape:cy="138.89958"
     inkscape:document-units="px"
     inkscape:current-layer="layer1"
     showgrid="false"
     inkscape:window-width="1440"
     inkscape:window-height="838"
     inkscape:window-x="-8"
     inkscape:window-y="-8"
     inkscape:window-maximized="1" />
  <metadata
     id="metadata4094">
    <rdf:RDF>
      <cc:Work
         rdf:about="">
        <dc:format>image/svg+xml</dc:format>
        <dc:type
           rdf:resource="http://purl.org/dc/dcmitype/StillImage" />
        <dc:title></dc:title>
      </cc:Work>
    </rdf:RDF>
  </metadata>
  <g
     inkscape:label="Layer 1"
     inkscape:groupmode="layer"
     id="layer1"
     transform="translate(0,-752.36218)">
    <path
       inkscape:connector-curvature="0"
       style="fill:#d3d3d3;stroke:#ffffff;stroke-width:0.75;stroke-miterlimit:4;stroke-opacity:1;stroke-dasharray:none"
       id="AK"
       d="m 282.63008,790.65258 -0.32332,85.35721 1.6166,0.9699 3.07157,0.1617 1.45494,-1.1316 2.58658,0 0.16167,2.9099 6.95143,6.7897 0.48499,2.5866 3.39488,-1.9399 0.64665,-0.1617 0.32332,-3.0715 1.45494,-1.6167 1.13164,-0.1616 1.93993,-1.455 3.07156,2.1016 0.64665,2.9099 1.93993,1.1317 1.13163,2.4249 3.87988,1.7782 3.39488,5.9815 2.74823,3.8799 2.26326,2.7482 1.45496,3.7182 5.01149,1.7783 5.17317,2.1016 0.96996,4.3649 0.48498,3.0715 -0.96996,3.3949 -1.77828,2.2633 -1.61661,-0.8083 -1.45495,-3.0716 -2.74824,-1.455 -1.77827,-1.1316 -0.80831,0.8083 1.45495,2.7483 0.16166,3.7182 -1.13163,0.4849 -1.93993,-1.9399 -2.10159,-1.2933 0.48498,1.6166 1.29328,1.7783 -0.8083,0.8083 c 0,0 -0.8083,-0.3233 -1.29328,-0.97 -0.485,-0.6466 -2.1016,-3.3948 -2.1016,-3.3948 l -0.96997,-2.2633 c 0,0 -0.32332,1.2933 -0.96997,0.97 -0.64665,-0.3234 -1.29329,-1.455 -1.29329,-1.455 l 1.77827,-1.9399 -1.45495,-1.455 0,-5.0115 -0.8083,0 -0.8083,3.3949 -1.13164,0.485 -0.96996,-3.7182 -0.64665,-3.7182 -0.80831,-0.485 0.32333,5.6582 0,1.1316 -1.45496,-1.2933 -3.55654,-5.9815 -2.1016,-0.485 -0.64664,-3.7182 -1.61661,-2.9099 -1.61662,-1.1316 0,-2.2633 2.1016,-1.2932 -0.48498,-0.3234 -2.58658,0.6467 -3.39489,-2.4249 -2.58658,-2.9099 -4.84983,-2.5866 -4.04154,-2.5866 1.2933,-3.2332 0,-1.6166 -1.77828,1.6166 -2.9099,1.1316 -3.71821,-1.1316 -5.65815,-2.4249 -5.49647,0 -0.64664,0.4849 -6.46645,-3.8798 -2.1016,-0.3234 -2.74823,-5.8198 -3.55655,0.3234 -3.55655,1.4549 0.48499,4.5265 1.13162,-2.9099 0.96998,0.3234 -1.45496,4.3648 3.23322,-2.7482 0.64665,1.6166 -3.87987,4.3648 -1.29329,-0.3233 -0.48498,-1.9399 -1.29329,-0.8083 -1.29329,1.1316 -2.74824,-1.7783 -3.07157,2.1016 -1.77826,2.1016 -3.39489,2.1016 -4.68818,-0.1617 -0.48498,-2.1015 3.7182,-0.6467 0,-1.2933 -2.26326,-0.6466 0.96998,-2.4249 2.26325,-3.8799 0,-1.7783 0.16166,-0.8083 4.36486,-2.2633 0.96996,1.2933 2.74825,0 -1.29329,-2.5865 -3.71822,-0.3234 -5.01149,2.7483 -2.42492,3.3949 -1.77827,2.5865 -1.13163,2.2633 -4.20319,1.4549 -3.07157,2.5866 -0.32332,1.6166 2.26325,0.97 0.80832,2.1016 -2.74825,3.2332 -6.46644,4.2032 -7.75975,4.2032 -2.10159,1.1316 -5.33482,1.1317 -5.33483,2.2632 1.77828,1.2933 -1.45496,1.455 -0.48498,1.1316 -2.74824,-0.97 -3.23322,0.1617 -0.80831,2.2632 -0.96996,0 0.32332,-2.4249 -3.55655,1.2933 -2.9099,0.97 -3.39489,-1.2933 -2.9099,1.9399 -3.23322,0 -2.1016,1.2933 -1.61661,0.8083 -2.1016,-0.3233 -2.58658,-1.1316 -2.26325,0.6466 -0.96997,0.97 -1.61661,-1.1316 0,-1.94 3.07156,-1.2933 6.30479,0.6467 4.36485,-1.6166 2.1016,-2.1016 2.9099,-0.6467 1.77827,-0.8083 2.74824,0.1617 1.61661,1.2933 0.96997,-0.3233 2.26325,-2.7483 3.07157,-0.97 3.39488,-0.6466 1.2933,-0.3233 0.64664,0.485 0.80831,0 1.29329,-3.7183 4.04153,-1.4549 1.93994,-3.7182 2.26325,-4.5265 1.61662,-1.455 0.32332,-2.5866 -1.61661,1.2933 -3.3949,0.6467 -0.64664,-2.4249 -1.29328,-0.3234 -0.96998,0.97 -0.16166,2.9099 -1.45495,-0.1617 -1.45495,-5.8198 -1.29329,1.2933 -1.13162,-0.485 -0.32332,-1.9399 -4.04154,0.1617 -2.10159,1.1316 -2.58658,-0.3233 1.45494,-1.455 0.48498,-2.5865 -0.64664,-1.94 1.45496,-0.9699 1.29328,-0.1617 -0.64664,-1.7783 0,-4.3648 -0.96996,-0.97 -0.80832,1.4549 -6.14312,0 -1.45495,-1.2932 -0.64664,-3.8799 -2.1016,-3.5566 0,-0.9699 2.1016,-0.8083 0.16166,-2.1016 1.13162,-1.1317 -0.8083,-0.4849 -1.29329,0.4849 -1.13163,-2.7482 0.96997,-5.0115 4.52651,-3.2332 2.58658,-1.61661 1.93993,-3.7182 2.74825,-1.2933 2.58658,1.1316 0.32332,2.4249 2.42492,-0.3233 3.23322,-2.4249 1.61661,0.6466 0.96997,0.6467 1.61661,0 2.26326,-1.2933 0.80831,-4.3649 c 0,0 0.32332,-2.9099 0.96997,-3.3949 0.64664,-0.4849 0.96996,-0.9699 0.96996,-0.9699 l -1.13162,-1.94 -2.58658,0.8083 -3.23323,0.8083 -1.93994,-0.4849 -3.55654,-1.7783 -5.0115,-0.1617 -3.55655,-3.7182 0.48498,-3.8798 0.64666,-2.425 -2.1016,-1.7782 -1.93994,-3.7183 0.48498,-0.8083 6.78978,-0.4849 2.10159,0 0.96996,0.9699 0.64666,0 -0.16166,-1.6166 3.87986,-0.6466 2.58658,0.3233 1.45495,1.1316 -1.45495,2.1016 -0.48499,1.455 2.74825,1.6166 5.0115,1.7783 1.77828,-0.97 -2.26326,-4.3649 -0.96997,-3.2332 0.96997,-0.8083 -3.39489,-1.9399 -0.48498,-1.1317 0.48498,-1.6166 -0.80831,-3.8798 -2.9099,-4.6882 -2.42492,-4.2032 2.90991,-1.9399 3.23322,0 1.77827,0.6466 4.2032,-0.1617 3.7182,-3.5565 1.13163,-3.0716 3.71822,-2.4249 1.6166,0.97 2.74824,-0.6467 3.71821,-2.1016 1.13164,-0.1616 0.96996,0.8083 4.52651,-0.1617 2.74824,-3.0715 1.13163,0 3.55655,2.4249 1.93993,2.1016 -0.48498,1.1316 0.64664,1.1316 1.61662,-1.6166 3.87987,0.3233 0.32332,3.7182 1.93994,1.455 7.11309,0.6466 6.30478,4.2032 1.45494,-0.9699 5.17317,2.5866 2.10159,-0.6467 1.93994,-0.8083 4.84983,1.9399 4.36486,2.9099 z m -115.10279,28.9374 2.1016,5.3348 -0.16166,0.97 -2.90991,-0.3233 -1.77827,-4.0416 -1.77827,-1.4549 -2.42492,0 -0.16166,-2.5866 1.77827,-2.4249 1.13163,2.4249 1.45495,1.4549 2.74824,0.6467 z m -2.58658,33.46391 3.71821,0.8083 3.71821,0.9699 0.8083,0.97 -1.61661,3.7182 -3.07156,-0.1616 -3.39489,-3.5566 -0.16166,-2.7482 z m -20.69263,-14.0646 1.13163,2.5866 1.13162,1.6166 -1.13162,0.8083 -2.1016,-3.0715 0,-1.94 0.96997,0 z m -13.74121,73.0709 3.39489,-2.2632 3.39488,-0.97 2.58658,0.3233 0.48499,1.6166 1.93993,0.485 1.93994,-1.9399 -0.32333,-1.6166 2.74824,-0.6467 2.90991,2.5866 -1.13163,1.7783 -4.36485,1.1316 -2.74825,-0.485 -3.7182,-1.1316 -4.36486,1.4549 -1.61661,0.3234 -1.13163,-0.6467 z m 48.98335,-4.5265 1.61661,1.9399 2.1016,-1.6166 -1.45495,-1.2933 -2.26326,0.97 z m 2.9099,3.0716 1.13163,-2.2633 2.10159,0.3233 -0.8083,1.94 -2.42492,0 z m 23.60254,-1.94 1.45495,1.7783 0.96998,-1.1316 -0.80832,-1.94 -1.61661,1.2933 z m 8.72971,-12.4479 1.13163,5.8198 2.9099,0.8083 5.0115,-2.9099 4.36485,-2.5866 -1.6166,-2.4249 0.48498,-2.4249 -2.1016,1.2933 -2.9099,-0.8083 1.61661,-1.1316 1.93993,0.8083 3.87987,-1.7783 0.48499,-1.455 -2.42492,-0.8083 0.8083,-1.9399 -2.74824,1.9399 -4.68817,3.5566 -4.84984,2.9099 -1.29329,1.1316 z m 42.35524,-19.8843 2.42492,-1.455 -0.96997,-1.7782 -1.77827,0.9699 0.32332,2.2633 z" />
    <path
       inkscape:connector-curvature="0"
       style="fill:#d3d3d3;fill-opacity:1;stroke:#ffffff;stroke-width:0.75;stroke-miterlimit:4;stroke-opacity:1;stroke-dasharray:none"
       id="ID"
       d="m 127.813,1041.6309 1.06646,-36.2808 0.43924,-4.4247 1.19081,-6.34344 -1.71559,-1.96589 -2.43278,0.64744 -1.00096,-0.83473 0.20323,-1.21427 -0.32244,-3.08862 3.18693,-6.31071 1.68959,-0.83638 0.87336,-1.36039 -0.12342,-3.24901 0.74738,-0.86493 2.55545,-6.52402 2.872,-5.07208 -0.5802,-3.7344 -3.91071,-1.83825 -2.43784,-3.97285 -0.18156,-64.79023 13.74587,-0.40958 0.24832,21.83124 5.07322,6.55505 -0.55192,4.8907 2.91336,4.11504 3.33358,0.55784 5.78314,8.52018 4.37732,3.587 0.73912,1.00882 3.50778,0.40515 0.80713,1.97037 -3.10937,18.46227 0.38525,2.54222 3.27834,2.68494 0.87391,-0.24058 4.154,-4.00241 0.42861,-1.21414 1.66679,0.31091 0.86845,5.29016 5.35689,11.71033 4.50488,2.27035 2.1039,1.7576 0.16981,4.14277 1.63982,2.51585 1.26973,0.84005 1.92146,-2.82561 2.79321,-0.55891 3.13668,0.68266 2.57094,-1.2585 3.67297,-0.96508 4.2285,0.71599 2.61727,-0.8744 -0.16169,-3.07341 2.70234,-1.372 1.55417,1.21266 1.05819,2.78342 1.65009,0.88194 3.22678,54.16477 c 0,0 -89.50452,2.4222 -96.65775,2.4427 z"
       sodipodi:nodetypes="ccccccccccccccccccccccccccccccccccccccccccccccccccccccccccc" />
    <path
       inkscape:connector-curvature="0"
       style="fill:#d3d3d3;fill-opacity:1;stroke:#ffffff;stroke-width:0.75;stroke-miterlimit:4;stroke-opacity:1;stroke-dasharray:none"
       id="OR"
       d="m 127.84758,1040.6486 1.23275,-35.8881 0.12566,-4.3562 1.10241,-5.99574 -0.84911,-1.00505 -2.46695,0.49067 -1.6081,-1.35933 0.13487,-1.52787 -0.19984,-3.27959 3.18692,-6.31072 1.55285,-1.46356 0.87335,-1.36038 0.69235,-3.80034 2.74641,-6.40142 2.66096,-4.53332 -0.51188,-3.42081 -3.71973,-1.71563 -2.7315,-4.15616 -13.14253,-0.83127 -15.49761,-0.24788 -15.053462,3.39918 -0.73896,-1.24284 -4.92267,3.17926 -4.47757,0.3913 -2.68636,-1.05224 -1.08245,0.93801 -4.62788,0.77502 -1.96753,-0.97496 -5.575947,-0.8902 -0.757462,0.28216 -4.560693,-0.52658 -1.509051,2.20098 -6.104188,0.9799 -6.6844,-2.75446 0.499665,-0.92792 -1.432551,-7.64345 -3.061708,-3.31031 -4.142505,0.31825 -1.205853,-2.311 -2.39929,0.0457 -5.226845,3.24679 -0.833754,6.80012 -1.023793,10.48164 -1.781451,7.00675 -1.900286,14.80922 -3.425144,14.64528 -5.2112666,14.0421 -1.275507,3.2563 1.035498,8.5436 2.9506896,11.7206 115.601434,1.7346 z"
       sodipodi:nodetypes="ccccccccccccccccccccccccccccccccccccccccccccccccccc" />
    <path
       inkscape:connector-curvature="0"
       style="fill:#d3d3d3;fill-opacity:1;stroke:#ffffff;stroke-width:0.75;stroke-miterlimit:4;stroke-opacity:1;stroke-dasharray:none"
       id="WA"
       d="m 46.49774,886.52078 4.574585,0.4917 10.062441,0.61884 8.784582,0.0702 20.79111,1.25784 23.634212,0.63796 15.55689,-0.10945 0.22629,65.03035 -12.91033,-0.79323 -15.9127,-0.18503 -14.872642,3.27673 -0.73158,-1.21677 -5.00643,3.32206 -4.64689,0.25914 -2.43514,-1.09032 -1.1429,0.92262 -4.65684,0.87179 -1.94689,-0.95687 -5.59221,-0.94261 -0.686802,0.30011 -4.613122,-0.55443 -1.462682,2.17898 -6.185721,1.04294 -6.668577,-2.76863 0.56237,-1.07732 -1.517092,-7.52704 -3.047589,-3.26542 -4.150056,0.28356 -1.196699,-2.3087 -2.320629,0.0383 -3.211188,1.95963 -2.897095,-2.66321 -0.303999,-2.91197 2.61627,-0.90134 0.718528,-4.29313 -2.768256,-0.55462 -0.634167,-3.66729 4.126884,-1.56165 -3.2706,-2.09968 -2.936841,-6.63984 0.0119,-2.98084 -1.687495,-7.73953 -2.426223,-2.78017 0.213861,-9.64322 2.156664,0.0261 2.989132,2.32652 3.236163,1.94173 3.572259,1.20664 4.870289,1.08907 3.138798,-0.0225 3.153043,0.80164 3.523577,0.22448 2.176849,-0.64009 -0.516579,-2.36923 1.022532,-1.38116 1.77783,-1.71129 0.556978,1.03676 0.694724,1.66857 -2.107984,0.95598 0.131803,2.12224 2.047388,1.04272 1.622235,2.12818 1.045056,1.75763 1.387106,-0.4679 -0.117527,-1.29803 -1.223206,-1.05697 -1.162616,-3.05567 0.41092,-1.90965 -0.941744,-1.28378 -0.482141,-2.21131 0.979802,-3.85372 -1.656673,-2.28612 -3.402403,-4.22191 0.143713,-0.85862 0.93345,-1.03083 z m -7.965913,7.85629 1.939934,-0.58844 0.766576,1.23926 1.156141,-1.90666 2.290267,-0.49939 1.116921,1.32832 -1.138921,1.98565 0.804002,0.652 -0.280299,2.12934 -1.256479,0.68762 c 0,0 -0.851529,0.2683 -0.920389,-0.0475 -0.06889,-0.3159 0.870541,-2.83715 0.870541,-2.83715 l -1.77901,-0.19122 -0.0059,1.49043 -0.573028,0.78677 -1.982665,-1.88414 -1.007645,-2.3449 z"
       sodipodi:nodetypes="cccccccccccccccccccccccccccccccccccccccccccccccccccccccccccccccccccccccccccccccccccccscccccc" />
    <path
       inkscape:connector-curvature="0"
       id="labels"
       d="m 77.891198,917.29051 -3.59286,8.38335 -3.4176,-7.9452 -1.60657,0 4.99496,11.59648 3.62207,-8.32493 3.62208,8.32493 4.99496,-11.59648 -1.57736,0 -3.4176,7.88678 z m 13.20305,0 -5.28706,11.68411 1.60656,0 1.28526,-2.89182 4.79048,0 1.31446,2.89182 1.60657,0 z m 0,3.50523 1.81104,4.00181 -3.62208,0 z m -33.543426,68.77797 c -1.71826,0 -3.18657,0.59138 -4.41075,1.75262 -1.22418,1.15966 -1.84025,2.55165 -1.84025,4.17707 0,1.68521 0.60574,3.10907 1.81104,4.29391 1.20687,1.18329 2.66328,1.78179 4.38154,1.78179 1.74343,0 3.213316,-0.6064 4.410746,-1.78179 1.19743,-1.1754 1.81104,-2.59139 1.81104,-4.29391 0,-1.60812 -0.59787,-3.00796 -1.81104,-4.17707 -1.21317,-1.16911 -2.674976,-1.75262 -4.352326,-1.75262 z m 8.412556,0.35053 0,11.27516 1.54815,0 0,-4.64443 0.32131,0 3.1255,4.64443 1.78183,0 -3.27156,-4.8489 c 1.04481,-0.23445 1.81511,-0.62015 2.30762,-1.19762 0.49408,-0.57748 0.73025,-1.26181 0.73025,-2.01551 0,-0.94096 -0.37605,-1.7034 -1.1392,-2.30761 -0.76472,-0.60265 -1.76471,-0.90552 -2.97945,-0.90552 z m -8.529396,1.22683 c 1.306,0 2.407006,0.40478 3.300756,1.25604 0.89532,0.85126 1.34367,1.91165 1.34367,3.15471 0,1.19429 -0.4333,2.22929 -1.31446,3.09629 -0.87801,0.86857 -1.943116,1.28525 -3.154706,1.28525 -1.31859,0 -2.42207,-0.40478 -3.32997,-1.25604 -0.90791,-0.85126 -1.37289,-1.89502 -1.37289,-3.1255 0,-1.21317 0.4578,-2.26008 1.34368,-3.1255 0.8843,-0.86542 1.94243,-1.28525 3.18392,-1.28525 z m 10.077546,0.14605 c 0.85597,0 1.4873,0.0391 1.92787,0.14605 0.44216,0.10857 0.78565,0.34051 1.05157,0.64263 0.26592,0.30368 0.40895,0.69164 0.40895,1.16841 0,1.36108 -1.11941,2.00429 -3.38839,1.95709 z m 92.333262,10.55008 0,11.2752 1.51893,0 0,-11.2752 z m 4.03101,0 -0.0292,11.2752 2.77498,0 c 2.07858,0 3.64163,-0.5858 4.73206,-1.7234 1.09044,-1.1377 1.63578,-2.4351 1.63578,-3.9142 0,-1.4665 -0.52468,-2.7703 -1.57736,-3.9142 -1.05267,-1.1439 -2.65771,-1.7234 -4.81969,-1.7234 l -2.71656,0 z m 1.51894,1.5189 0.78868,0 c 1.15022,0 2.06444,0.1082 2.74576,0.3506 0.67976,0.2407 1.26326,0.7018 1.75262,1.4021 0.48936,0.7002 0.73026,1.499 0.73026,2.366 0,0.6892 -0.16211,1.3243 -0.46737,1.8987 -0.30683,0.5743 -0.70758,1.0235 -1.22683,1.3728 -0.51925,0.3494 -1.0583,0.5696 -1.63578,0.6719 -0.57904,0.1023 -1.45578,0.1752 -2.59971,0.1752 l -0.0876,0 0,-8.2373 z m 74.2909,-184.75754 -5.25785,11.6841 1.57735,0 1.31446,-2.8918 4.76128,0 1.31446,2.8918 1.60657,0 z m 6.71836,0.4382 0,11.2459 1.54815,0 0,-5.4915 4.96574,5.4915 1.9863,0 -5.49153,-6.0173 5.43311,-5.2286 -2.13235,0 -4.76127,4.5568 0,-4.5568 z m -6.71836,3.0671 1.81103,4.0018 -3.62207,0 z"
       style="fill:#4d4d4d;fill-opacity:1;stroke:none"
       inkscape:label=""
       sodipodi:nodetypes="cccccccccccccccccccccccscscssssscccccccccscscscscssscscccscccccccccssssscccscsscccsccccccccccccccccccccccccccc" />
  </g>
</svg>
