<?xml version="1.0" encoding="UTF-8" standalone="no"?>
<!-- Created with Inkscape (http://www.inkscape.org/) -->

<svg
   xmlns:dc="http://purl.org/dc/elements/1.1/"
   xmlns:cc="http://creativecommons.org/ns#"
   xmlns:rdf="http://www.w3.org/1999/02/22-rdf-syntax-ns#"
   xmlns:svg="http://www.w3.org/2000/svg"
   xmlns="http://www.w3.org/2000/svg"
   xmlns:sodipodi="http://sodipodi.sourceforge.net/DTD/sodipodi-0.dtd"
   xmlns:inkscape="http://www.inkscape.org/namespaces/inkscape"
   width="300"
   height="300"
   id="svg4089"
   version="1.1"
   inkscape:version="0.48.4 r9939"
   sodipodi:docname="mapsvgregionthree.svg">
  <defs
     id="defs4091" />
  <sodipodi:namedview
     id="base"
     pagecolor="#ffffff"
     bordercolor="#666666"
     borderopacity="1.0"
     inkscape:pageopacity="0.0"
     inkscape:pageshadow="2"
     inkscape:zoom="0.9899495"
     inkscape:cx="106.00882"
     inkscape:cy="13.883968"
     inkscape:document-units="px"
     inkscape:current-layer="layer1"
     showgrid="false"
     inkscape:window-width="1440"
     inkscape:window-height="838"
     inkscape:window-x="-8"
     inkscape:window-y="-8"
     inkscape:window-maximized="1" />
  <metadata
     id="metadata4094">
    <rdf:RDF>
      <cc:Work
         rdf:about="">
        <dc:format>image/svg+xml</dc:format>
        <dc:type
           rdf:resource="http://purl.org/dc/dcmitype/StillImage" />
        <dc:title />
      </cc:Work>
    </rdf:RDF>
  </metadata>
  <g
     inkscape:label="Layer 1"
     inkscape:groupmode="layer"
     id="layer1"
     transform="translate(0,-752.36218)">
    <path
       inkscape:connector-curvature="0"
       style="fill:#d3d3d3;stroke:#ffffff;stroke-width:0.75;stroke-miterlimit:4;stroke-opacity:1;stroke-dasharray:none"
       id="HI"
       d="m 8.9721542,978.07754 1.9399298,-3.5566 2.26326,-0.3233 0.32332,0.8083 -2.1016,3.0716 -2.4249098,0 z m 10.1846598,-3.7182 6.14313,2.5866 2.10159,-0.3234 1.61661,-3.8798 -0.64664,-3.3949 -4.2032,-0.485 -4.04153,1.7783 -0.96996,3.7182 z m 30.71563,10.023 3.7182,5.4965 2.42492,-0.3234 1.13163,-0.4849 1.45495,1.2932 3.71821,-0.1616 0.96997,-1.455 -2.90991,-1.7782 -1.93993,-3.7183 -2.1016,-3.5565 -5.8198,2.9099 -0.64664,1.7783 z m 20.20765,8.8914 1.29329,-1.94 4.68817,0.97 0.64665,-0.485 6.14312,0.6466 -0.32332,1.2933 -2.58658,1.455 -4.36485,-0.3233 -5.49648,-1.6166 z m 5.33482,5.1731 1.93994,3.87986 3.07155,-1.1317 0.32333,-1.61656 -1.61661,-2.1016 -3.71821,-0.3233 0,1.2933 z m 6.95143,-1.1316 2.26326,-2.9099 4.68817,2.4249 4.36485,1.1316 4.36486,2.74826 0,1.9399 -3.55654,1.7783 -4.84985,0.9699 -2.42491,-1.4549 -4.84984,-6.62806 z m 16.65111,15.51936 1.616606,-1.2932 3.39489,1.6166 7.59807,3.5565 3.39489,2.1016 1.6166,2.4249 1.93994,4.3649 4.04153,2.5866 -0.32332,1.2933 -3.87987,3.2332 -4.20319,1.4549 -1.45495,-0.6466 -3.07157,1.7783 -2.42491,3.2332 -2.26326,2.9099 -1.77828,-0.1617 -3.556536,-2.5866 -0.32332,-4.5265 0.64664,-2.4249 -1.61661,-5.6581 -2.1016,-1.7783 -0.16166,-2.5866 2.26326,-0.9699 2.101596,-3.0716 0.48498,-0.97 -1.616606,-1.7783 -0.32332,-2.1016 z" />
    <path
       inkscape:connector-curvature="0"
       style="fill:#d3d3d3;fill-opacity:1;stroke:#ffffff;stroke-width:0.75;stroke-miterlimit:4;stroke-opacity:1;stroke-dasharray:none"
       id="AZ"
       d="m 190.2459,995.51997 -2.27916,2.52282 -0.10466,1.48696 0.62299,0.88745 20.2836,7.7565 13.11446,5.7227 15.81594,6.2995 18.10946,7.4275 12.50967,0.5825 25.0767,-1.0177 -0.54195,-120.36893 -84.57736,0.59048 -0.63248,16.68931 -1.58645,0.25223 -1.30717,2.85376 -2.50418,0.25862 -1.64911,-2.5274 -2.76406,0.0666 -1.07337,-0.99538 -0.90451,0.13482 -0.81992,0.7005 -1.76991,1.30473 0.91766,6.91331 0.027,1.72955 1.29337,12.52069 -1.14874,2.36768 -0.0752,3.36309 3.43986,4.45591 2.10536,5.57996 0.94346,0.8993 1.10194,0.41311 0.22489,2.27812 -1.38004,1.59316 -3.13822,2.20274 -1.63468,2.20921 -0.92907,3.83735 0.16105,4.94593 -2.42082,3.13575 -1.93365,0.98243 0.25689,0.8007 -0.19879,1.76345 0.5705,0.72383 3.70227,0.0241 -0.15979,2.79789 -1.1487,2.36766 -3.59565,1.46203 z"
       sodipodi:nodetypes="cccccccccccccccccccccccccccccccccccccccccccccc" />
    <path
       inkscape:connector-curvature="0"
       style="fill:#d3d3d3;fill-opacity:1;stroke:#ffffff;stroke-width:0.75;stroke-miterlimit:4;stroke-opacity:1;stroke-dasharray:none"
       id="NV"
       d="m 212.03559,793.02139 -4.33808,130.90176 -1.76048,0.6161 -1.19984,2.61226 -2.34522,0.36167 -1.8613,-2.49581 -2.64564,0.0136 -0.92616,-0.98152 -1.03444,0.0996 -2.5048,2.03694 0.69624,6.75678 0.49585,5.76716 0.92536,8.54999 -1.12238,2.28013 -2.57092,-0.70171 -83.72297,-92.84602 8.79083,-69.64933 95.12416,6.67915 z"
       sodipodi:nodetypes="cccccccccccccccccc" />
    <path
       inkscape:connector-curvature="0"
       style="fill:#d3d3d3;fill-opacity:1;stroke:#ffffff;stroke-width:0.75;stroke-miterlimit:4;stroke-opacity:1;stroke-dasharray:none"
       id="CA"
       d="m 189.96782,995.12573 3.82457,-1.06563 1.17243,-2.20895 0.10383,-2.98929 -3.59973,-0.0585 -0.60725,-0.58492 0.17182,-2.08063 -0.24468,-0.55956 1.80988,-0.897 2.59067,-3.25131 -0.16421,-5.0262 0.8619,-3.56866 1.60174,-2.42975 3.24525,-2.09227 1.39901,-1.83177 -0.24372,-2.09584 -1.06816,-0.42681 -1.17046,-0.90966 -2.007,-5.61352 -3.36964,-4.38013 0.0415,-3.55015 -2.54518,-0.66036 -83.70128,-92.82621 8.70235,-69.65285 -68.663344,-5.61051 -0.79073,4.90398 0.939285,7.3786 -3.37199,12.43622 -2.655481,3.01218 -0.152517,1.16695 -1.63925,1.06229 -0.817702,4.37205 -0.321521,3.31718 3.339312,3.75078 2.220123,3.91808 1.644872,3.35016 0.636033,6.4432 -1.304733,3.30065 0.22067,5.85145 -0.409723,3.82072 2.33221,3.57439 3.387096,4.07053 2.955241,4.46202 1.876447,3.80597 0.158121,3.24546 -0.248078,0.52749 0.310626,2.07847 6.527875,5.39919 -0.121239,2.46999 -0.305009,2.33395 -0.352797,2.01418 1.37852,8.13019 2.628092,3.36673 2.300936,2.27143 2.789728,0.0733 1.365515,2.57463 -0.593505,3.68468 -1.839561,1.90952 -1.119176,0.16732 -0.225935,3.95675 0.909765,2.80628 3.84285,3.8389 2.387381,5.03724 2.131927,4.42169 1.733071,2.84662 4.217803,5.25408 1.821293,2.34313 0.909748,2.80614 1.742218,0.72039 0.358422,2.39827 -0.512682,2.03804 -0.707357,7.29786 -0.192917,1.99027 2.804499,2.35967 4.228697,-0.14108 4.739629,1.08969 4.147862,1.50504 2.87791,-0.43012 3.33195,2.60768 3.27503,4.41433 1.4537,2.0711 4.14786,1.50503 4.91604,0.0825 1.74958,1.86346 1.11748,3.1021 -1.34344,0.85455 0.46318,0.91156 3.31712,0.32148 2.74198,-0.24623 2.87583,-2.13543 4.45854,3.58357 1.13391,2.11889 3.17945,3.7747 0.79766,3.14989 1.38598,9.27332 0.74249,1.68707 10.12787,-0.0424 19.91216,-0.19725 13.89243,-0.71152 z m -93.62884,-30.20921 1.506064,1.32771 0.03144,1.30293 -3.209675,0.39787 -0.738796,-1.11547 -0.854602,-1.34344 3.265675,-0.56996 z m 1.918621,-0.28676 1.103557,-0.81877 3.828132,1.55283 3.21702,0.74514 -0.7838,0.77096 -4.51263,0.4292 -1.837807,-1.35989 -1.01447,-1.31945 z m 23.392459,16.52732 2.10521,2.05553 0.94279,0.83988 1.60256,0.33258 0.34455,-1.52257 -1.22216,-1.61537 -2.9368,-1.60437 -1.01537,0.31525 0.17872,1.19914 z m -0.16057,8.76897 2.2247,2.85494 1.48585,1.73938 -1.40311,0.45489 -1.4583,-1.00791 c 0,0 -0.93454,-1.33152 -0.99427,-1.73116 -0.0599,-0.39973 -0.32258,-2.15854 -0.32258,-2.15854 l 0.46769,-0.15182 z"
       sodipodi:nodetypes="ccccccccccccccccccccccccccccccccccccccccccccccccccccccccccccccccccccccccccccccccccccccccccccccccccccccccccccccccccccccccccccccccscc" />
    <path
       inkscape:connector-curvature="0"
       id="labels"
       d="m 149.10726,838.03252 0,11.71332 1.51893,0 0,-8.00361 8.35414,8.5294 0,-11.77175 -1.54814,0 0,8.09125 z m 11.21675,0.46736 5.141,11.6257 5.19943,-11.6257 -1.63577,0 -3.56366,8.00362 -3.53444,-8.00362 z m -37.46764,74.90634 -5.25785,11.6841 1.60656,0 1.28526,-2.8919 4.76127,0 1.31446,2.8919 1.60657,0 z m -9.43492,0.088 c -1.71354,0 -3.19444,0.5574 -4.41075,1.7234 -1.21632,1.1659 -1.81104,2.5698 -1.81104,4.2062 0,1.6679 0.60348,3.1138 1.84025,4.294 1.23676,1.1816 2.72574,1.7526 4.46917,1.7526 1.18956,0 2.31192,-0.2474 3.32997,-0.7887 l 0,-1.7818 c -1.11875,0.6325 -2.18318,0.9639 -3.18392,0.9639 -1.37838,0 -2.53104,-0.4158 -3.44681,-1.256 -0.91578,-0.8403 -1.37289,-1.8991 -1.37289,-3.1548 0,-1.2304 0.44836,-2.2805 1.34368,-3.1254 0.89532,-0.8466 1.99318,-1.2561 3.30076,-1.2561 1.01805,0 2.14602,0.3076 3.35918,0.9055 l 0,-1.7526 c -1.17697,-0.4909 -2.31615,-0.7302 -3.4176,-0.7302 z m 9.43492,3.4468 1.81104,4.0018 -3.59287,0 z m 122.07456,46.11939 -5.25785,11.68411 1.57736,0 1.31446,-2.8626 4.76128,0 1.31446,2.8626 1.60656,0 z m 6.39705,0.4388 0,1.54811 5.08259,0 -5.34548,9.727 7.76994,0 0,-1.5481 -5.28706,0 5.4039,-9.72701 z m -6.39705,3.09621 1.81104,4.0019 -3.62207,0 z m -202.958769,50.61678 0,11.246 1.54815,0 0,-5.4039 5.37469,0 0,5.4039 1.51893,0 0,-11.246 -1.51893,0 0,4.3231 -5.37469,0 0,-4.3231 z m 10.86623,0 0,11.246 1.51893,0 0,-11.246 z"
       style="fill:#333333;fill-opacity:1;stroke:none"
       inkscape:label=""
       sodipodi:nodetypes="ccccccccccccccccccccccccssscsccssscsccsccccccccccccccccccccccccccccccccccccccccccc" />
  </g>
</svg>
