<?xml version="1.0" encoding="UTF-8" standalone="no"?>
<!-- Created with Inkscape (http://www.inkscape.org/) -->

<svg
   xmlns:dc="http://purl.org/dc/elements/1.1/"
   xmlns:cc="http://creativecommons.org/ns#"
   xmlns:rdf="http://www.w3.org/1999/02/22-rdf-syntax-ns#"
   xmlns:svg="http://www.w3.org/2000/svg"
   xmlns="http://www.w3.org/2000/svg"
   xmlns:sodipodi="http://sodipodi.sourceforge.net/DTD/sodipodi-0.dtd"
   xmlns:inkscape="http://www.inkscape.org/namespaces/inkscape"
   width="350"
   height="300"
   id="svg4089"
   version="1.1"
   inkscape:version="0.48.4 r9939"
   sodipodi:docname="mapsvgregionfour.svg">
  <defs
     id="defs4091" />
  <sodipodi:namedview
     id="base"
     pagecolor="#ffffff"
     bordercolor="#666666"
     borderopacity="1.0"
     inkscape:pageopacity="0.0"
     inkscape:pageshadow="2"
     inkscape:zoom="2.8"
     inkscape:cx="145.52598"
     inkscape:cy="108.25576"
     inkscape:document-units="px"
     inkscape:current-layer="layer1"
     showgrid="false"
     inkscape:window-width="1440"
     inkscape:window-height="838"
     inkscape:window-x="-8"
     inkscape:window-y="-8"
     inkscape:window-maximized="1" />
  <metadata
     id="metadata4094">
    <rdf:RDF>
      <cc:Work
         rdf:about="">
        <dc:format>image/svg+xml</dc:format>
        <dc:type
           rdf:resource="http://purl.org/dc/dcmitype/StillImage" />
        <dc:title />
      </cc:Work>
    </rdf:RDF>
  </metadata>
  <g
     inkscape:label="Layer 1"
     inkscape:groupmode="layer"
     id="layer1"
     transform="translate(0,-752.36218)">
    <path
       inkscape:connector-curvature="0"
       style="fill:#d3d3d3;fill-opacity:1;stroke:#ffffff;stroke-width:0.75;stroke-miterlimit:4;stroke-opacity:1;stroke-dasharray:none"
       id="SD"
       d="m 328.99857,908.85661 -0.1139,-0.57156 -3.43344,-4.48051 1.3063,-4.89468 0.80627,-6.01911 -3.00249,-1.74619 -0.69792,-2.681 0.49357,-2.62851 3.16913,-0.35137 -0.69767,-4.95882 -3.79923,-29.93596 -1.04666,-3.67161 -4.42819,-2.8408 -1.16887,-1.55291 -0.247,-1.59098 1.83295,-1.75169 1.33061,-1.83073 -0.0618,-2.66735 -58.05495,5.10617 -54.83247,2.87223 2.03051,63.88117 14.59745,-0.77916 19.95619,-1.0954 17.7322,-1.1169 23.76903,-1.43789 11.85446,-1.79908 2.21133,2.00429 5.53415,2.63473 0.84189,0.63016 4.34436,-1.96515 6.42652,-1.3626 1.81779,1.13488 4.3601,1.10228 3.11356,1.2865 0.56687,1.42811 1.29016,2.10656 2.19941,-0.45719 z"
       sodipodi:nodetypes="ccccccccccccccccccccccccccccccccccccc" />
    <path
       inkscape:connector-curvature="0"
       style="fill:#d3d3d3;fill-opacity:1;stroke:#ffffff;stroke-width:0.75;stroke-miterlimit:4;stroke-opacity:1;stroke-dasharray:none"
       id="ND"
       d="m 319.23205,834.37939 -1.58018,-8.30711 -2.44924,-6.578 -3.37592,-12.72051 -1.71702,-10.86166 -2.08161,-2.85683 -2.34201,-4.95807 -1.16944,-10.37864 0.17971,-3.87037 -2.4504,-5.22073 -28.51726,2.73177 -18.54206,1.49447 -26.48527,1.76254 -23.03952,0.51768 0.77421,67.53541 54.95251,-2.99229 57.84345,-5.29764 z"
       sodipodi:nodetypes="ccccccccccccccccc" />
    <path
       inkscape:connector-curvature="0"
       style="fill:#d3d3d3;fill-opacity:1;stroke:#ffffff;stroke-width:0.75;stroke-miterlimit:4;stroke-opacity:1;stroke-dasharray:none"
       id="WY"
       d="m 206.71531,861.85121 -107.5819,-1.09919 -3.823033,89.49051 114.075453,0.47715 -2.67052,-88.86847 z"
       sodipodi:nodetypes="ccccc" />
    <path
       inkscape:connector-curvature="0"
       style="fill:#d3d3d3;fill-opacity:1;stroke:#ffffff;stroke-width:0.75;stroke-miterlimit:4;stroke-opacity:1;stroke-dasharray:none"
       id="MT"
       d="m 205.56976,775.10122 -30.79375,0.73644 -29.47541,-0.16985 -29.53114,-0.6516 -32.730997,-1.58329 -18.697351,-1.25416 -33.303612,-3.12563 -1.995712,21.72086 4.273763,7.1004 -0.837106,4.6998 2.342404,4.33193 3.337181,0.99476 5.828008,10.16699 3.042338,2.84571 0.585598,1.08298 3.537998,0.74138 0.690714,1.9914 -5.016982,18.30189 0.289054,2.49819 2.866063,2.89043 0.908425,-0.10501 4.427648,-3.50421 0.549949,-1.21438 1.668585,0.49739 0.377268,5.24975 4.170545,12.17558 3.241443,2.15658 0.987252,0.57621 2.07964,2.06085 -0.06006,3.45918 1.075483,3.32777 1.240653,0.77705 2.008295,-2.53385 2.725289,-0.31533 3.363449,1.22186 2.393074,-1.19747 4.087938,-0.473 3.817648,1.16932 2.672743,-0.76954 0.112606,-3.00495 2.873562,-1.02293 1.520314,1.20499 0.822102,3.12694 1.512348,0.66523 0.60614,-11.17849 107.58172,1.07087 -1.17511,-86.73893 z"
       sodipodi:nodetypes="ccccccccccccccccccccccccccccccccccccccccccccccc" />
    <path
       inkscape:connector-curvature="0"
       style="fill:#d3d3d3;fill-opacity:1;stroke:#ffffff;stroke-width:0.75;stroke-miterlimit:4;stroke-opacity:1;stroke-dasharray:none"
       id="CO"
       d="m 246.66382,1036.1032 -5.0512,-86.31649 -114.09036,0.4724 -2.0254,88.76019 121.16696,-2.9161 z"
       sodipodi:nodetypes="ccccc" />
    <path
       inkscape:connector-curvature="0"
       style="fill:#d3d3d3;fill-opacity:1;stroke:#ffffff;stroke-width:0.75;stroke-miterlimit:4;stroke-opacity:1;stroke-dasharray:none"
       id="UT"
       d="m 125.68042,1039.1695 -84.558565,-2.1677 7.515982,-114.16182 47.475429,3.31039 -0.253131,10.73064 -0.782271,13.35105 7.862656,0.0248 16.50523,-0.0929 8.25489,-0.0938 -2.02022,89.09924 z"
       sodipodi:nodetypes="cccccccccc" />
    <path
       inkscape:connector-curvature="0"
       id="labels"
       d="m 246.13872,803.33826 0.0204,11.68411 1.51896,-0.003 -0.014,-8.00363 8.36902,8.51483 -0.0206,-11.77174 -1.54812,0.003 0.0141,8.09124 z m 12.18143,0.4169 0.0196,11.24595 2.74576,-0.005 c 2.08017,-0.004 3.64066,-0.56291 4.7291,-1.70247 1.08844,-1.13952 1.63147,-2.46713 1.62888,-3.94621 -0.003,-1.4665 -0.52794,-2.76935 -1.58415,-3.91142 -1.05625,-1.14209 -2.66225,-1.68971 -4.82268,-1.68578 z m -137.09806,5.64995 -3.04664,11.71865 1.48974,-0.002 1.88606,-7.21826 3.22648,7.64747 3.1706,-7.62942 1.882,7.18244 1.51895,-0.003 -3.11676,-11.7079 -3.49058,8.38944 z m 138.6196,-4.16286 0.78866,-10e-4 c 1.14868,-0.001 2.06464,0.10467 2.74638,0.34573 0.68018,0.23957 1.26454,0.7289 1.7551,1.42825 0.489,0.69935 0.73284,1.46854 0.73435,2.33555 0.001,0.68917 -0.15796,1.32464 -0.46406,1.89947 -0.30582,0.57486 -0.70574,1.05401 -1.22436,1.40422 -0.51866,0.35022 -1.05734,0.57144 -1.6346,0.67471 -0.57887,0.10328 -1.4556,0.13754 -2.59947,0.1506 l -0.0876,10e-4 -0.0144,-8.23727 z m -127.60653,4.61096 0.003,1.51895 2.68734,-0.005 0.017,9.72703 1.51894,-0.003 -0.017,-9.72702 2.68734,-0.005 -0.003,-1.51892 z m 123.11883,55.93566 c -0.92521,0.002 -1.71726,0.28205 -2.36454,0.85121 -0.64729,0.56917 -0.96173,1.26843 -0.96032,2.07562 3.6e-4,0.33674 0.0615,0.64039 0.17688,0.93441 0.1154,0.29406 0.30745,0.6076 0.5566,0.90456 0.24911,0.29697 0.53736,0.54297 0.87763,0.75793 0.34024,0.21497 0.83185,0.43683 1.46174,0.6985 0.62983,0.26011 1.08264,0.5009 1.37409,0.69867 0.29146,0.19931 0.53593,0.45167 0.73158,0.75818 0.19723,0.30804 0.2932,0.62895 0.29373,0.9342 9e-4,0.51138 -0.18205,0.92121 -0.5528,1.25703 -0.37232,0.3358 -0.84108,0.49804 -1.40123,0.49902 -1.15809,0.002 -2.01143,-0.6238 -2.5738,-1.89419 l -1.54737,0.44086 c 0.39043,1.02996 0.94587,1.78984 1.66899,2.30471 0.72313,0.51327 1.56936,0.78595 2.51346,0.78429 0.96614,-0.002 1.77177,-0.33697 2.45193,-0.99742 0.68017,-0.66051 1.01981,-1.4608 1.01817,-2.39705 -9e-4,-0.40122 -0.0491,-0.77877 -0.17725,-1.13888 -0.1265,-0.35855 -0.32577,-0.69765 -0.58598,-1.02136 -0.25862,-0.32209 -0.59146,-0.63696 -0.99473,-0.90376 -0.40485,-0.2668 -0.9729,-0.53543 -1.69567,-0.84414 -0.72278,-0.30873 -1.22104,-0.61141 -1.52046,-0.87365 -0.30099,-0.26226 -0.46837,-0.56325 -0.46896,-0.90471 -0.001,-0.39337 0.17999,-0.71405 0.52412,-0.96486 0.34414,-0.25079 0.78912,-0.3811 1.343,-0.38206 0.5051,-9.4e-4 0.90114,0.0925 1.16885,0.26084 0.2678,0.16946 0.54819,0.4155 0.87765,0.75794 l 1.2543,-0.99536 c -0.4195,-0.54055 -0.94799,-0.93159 -1.57944,-1.19484 -0.63143,-0.26485 -1.25652,-0.40677 -1.87017,-0.40569 z m 5.63819,0.34081 0.0197,11.27513 2.74576,-0.005 c 2.07857,-0.004 3.66982,-0.59216 4.75825,-1.73171 1.08844,-1.13954 1.63153,-2.43794 1.62895,-3.91703 -0.003,-1.4665 -0.55873,-2.76929 -1.6134,-3.91137 -1.05467,-1.14209 -2.66071,-1.71893 -4.82269,-1.71498 z m 1.55079,1.51622 0.75947,-10e-4 c 1.15024,-0.002 2.06462,0.10466 2.74637,0.34574 0.68017,0.23958 1.26449,0.69968 1.75507,1.39905 0.49058,0.69933 0.73286,1.49774 0.73439,2.36475 10e-4,0.68918 -0.13072,1.32455 -0.43485,1.89941 -0.30584,0.57486 -0.735,1.02486 -1.25364,1.37509 -0.51864,0.35022 -1.0573,0.57141 -1.6346,0.67468 -0.57887,0.10329 -1.42633,0.16668 -2.57019,0.17974 l -0.0876,10e-4 -0.0144,-8.23728 z m -118.26212,32.21264 -3.57819,8.41881 -3.43145,-7.93923 -1.60656,0.003 5.01516,11.58772 3.60752,-8.36044 3.63663,8.34779 4.97472,-11.60516 -1.60657,0.003 -3.37465,7.86346 z m 9.58172,0.42138 3.69113,6.09851 0.009,5.14101 1.51895,-0.003 -0.009,-5.14099 3.69903,-6.11142 -1.69418,0.003 -2.73781,4.56159 -2.78292,-4.55196 z m -66.973589,83.56382 0.0027,1.54814 2.687347,-0.005 0.01698,9.72701 1.518925,-0.003 -0.01698,-9.72702 2.687347,-0.005 -0.0027,-1.54813 z m -10.311153,0.0472 0.01163,6.65986 c 0.0029,1.63181 0.42778,2.87349 1.233289,3.70774 0.807097,0.83404 1.87784,1.25274 3.215327,1.25032 1.309147,-0.002 2.337986,-0.43553 3.123301,-1.26143 0.785312,-0.82601 1.194268,-1.92447 1.191861,-3.30291 l -0.01234,-7.06887 -1.548148,0.003 0.01254,7.18573 c 0.0016,0.9363 -0.259353,1.64753 -0.755679,2.16285 -0.497899,0.51536 -1.177237,0.79083 -2.072546,0.79227 -0.903162,10e-4 -1.611137,-0.28561 -2.104631,-0.84325 -0.493474,-0.55946 -0.73259,-1.34056 -0.734378,-2.36494 l -0.01208,-6.92277 z m 99.119012,7.00697 c -1.71353,0 -3.16419,0.59211 -4.37846,1.76022 -1.2143,1.16815 -1.83577,2.57312 -1.83291,4.20947 0.003,1.66795 0.6381,3.11283 1.87695,4.2906 1.23884,1.1795 2.72878,1.748 4.47224,1.7448 1.18951,-10e-4 2.28221,-0.2806 3.29928,-0.8234 l -0.003,-1.7531 c -1.11767,0.6349 -2.15231,0.968 -3.15305,0.9699 -1.37838,0 -2.53177,-0.4115 -3.44899,-1.2502 -0.91724,-0.83847 -1.3762,-1.89653 -1.37839,-3.15224 -0.002,-1.23036 0.44436,-2.28136 1.3382,-3.12783 0.89384,-0.84806 1.99101,-1.25959 3.29858,-1.26187 1.01804,-0.002 2.1173,0.27462 3.33149,0.87047 l -0.003,-1.7234 c -1.17782,-0.48882 -2.31747,-0.75342 -3.41892,-0.75342 z m 10.39889,0.0109 c -1.44919,0.12919 -2.6957,0.71198 -3.7651,1.72995 -1.22214,1.16172 -1.83581,2.5549 -1.83295,4.18037 0.003,1.68506 0.60958,3.1079 1.81854,4.29057 1.20892,1.1812 2.66638,1.7772 4.38463,1.7742 1.74341,0 3.21228,-0.5828 4.40768,-1.7602 1.19538,-1.17757 1.80646,-2.62368 1.8035,-4.32626 -0.003,-1.60826 -0.63228,-2.97768 -1.84748,-4.14471 -1.21523,-1.16699 -2.64885,-1.748 -4.32618,-1.74506 -0.21477,1.3e-4 -0.64264,-0.20678 -0.64264,10e-4 z m 0.5285,1.54716 c 1.30601,-0.002 2.40777,0.42978 3.30299,1.27954 0.8968,0.84966 1.34701,1.90921 1.34918,3.15245 0.002,1.19422 -0.42944,2.20067 -1.3091,3.06927 -0.87649,0.87007 -1.9408,1.31777 -3.1524,1.31987 -1.31861,0 -2.42282,-0.4298 -3.33223,-1.27917 -0.90941,-0.8498 -1.37621,-1.89271 -1.37835,-3.12317 -0.002,-1.21323 0.45392,-2.23166 1.33828,-3.0987 0.88279,-0.86696 1.94014,-1.31791 3.18163,-1.32009 z"
       style="fill:#333333;fill-opacity:1;stroke:none"
       inkscape:label=""
       sodipodi:nodetypes="cccccccccccssssscccccccccccccsccscscsccccccccccccsssccccccscscccssscccccscsccccsccsssssccscsscscsccccccccccccccccccccccccccccccccccscsssccscscsccssscsccssscsccsscscssssssscccssscscc" />
  </g>
</svg>
